<svg id="Groupe_1080" data-name="Groupe 1080" xmlns="http://www.w3.org/2000/svg" width="217.394" height="143.029" viewBox="0 0 217.394 143.029">
  <g id="Groupe_870" data-name="Groupe 870" transform="translate(8.046)">
    <g id="Groupe_866" data-name="Groupe 866" transform="translate(0)">
      <g id="Groupe_865" data-name="Groupe 865">
        <path id="Tracé_1515" data-name="Tracé 1515" d="M650.331,597.391s-9.279-35.769-45.05-51.042c0,0-13.148-6.191-21.074,2.32s0,19.528-7.347,29.969S561,588.889,563.71,597.391s11.216,14.121,28.035,18.565,44.859,1.737,47.372,2.126S650.331,597.391,650.331,597.391Z" transform="translate(-560.923 -541.88)" fill="#fff"/>
        <path id="Tracé_1516" data-name="Tracé 1516" d="M618.5,620.326c-9.162,0-19.737-.526-27.823-2.664-17.783-4.7-26.641-10.7-29.621-20.074-2.109-6.629,1.537-9.541,5.4-12.623a37.579,37.579,0,0,0,8.06-8.129c3.183-4.524,3.116-9.172,3.046-14.092-.079-5.466-.161-11.118,4.5-16.118,8.8-9.451,22.632-3.323,23.665-2.845,36.353,15.54,45.934,51.043,46.324,52.548l.191.735-.29.7c-9.381,22.731-12.065,22.318-13.663,22.07-.482-.052-2.843.041-5.128.133C629.48,620.117,624.27,620.326,618.5,620.326Zm-23.715-74.352a12.385,12.385,0,0,0-9.4,3.752c-3.411,3.662-3.349,7.967-3.277,12.951.075,5.178.159,11.046-3.874,16.777a41.951,41.951,0,0,1-8.942,9.064c-4.013,3.2-5.016,4.187-3.9,7.69,2.45,7.7,10.359,12.8,26.448,17.056,12.519,3.308,31.848,2.534,41.135,2.16,2.715-.109,4.261-.168,5.2-.143,1.762-1.9,6-10.688,9.263-18.516-1.536-5.018-11.994-35.35-43.535-48.817l-.077-.034A24.268,24.268,0,0,0,594.785,545.974Z" transform="translate(-560.436 -541.388)" fill="#2c2763"/>
      </g>
    </g>
    <g id="Groupe_868" data-name="Groupe 868" transform="translate(104.678 0.001)">
      <g id="Groupe_867" data-name="Groupe 867">
        <path id="Tracé_1517" data-name="Tracé 1517" d="M690.466,597.391s9.282-35.769,45.05-51.042c0,0,13.152-6.191,21.078,2.32s0,19.528,7.345,29.969,15.858,10.251,13.154,18.753-11.216,14.121-28.041,18.565-44.857,1.737-47.372,2.126S690.466,597.391,690.466,597.391Z" transform="translate(-688.074 -541.881)" fill="#fff"/>
        <path id="Tracé_1518" data-name="Tracé 1518" d="M721.3,620.327c-5.771,0-10.98-.209-14.654-.356-2.286-.091-4.649-.187-5.149-.13-1.578.244-4.26.659-13.643-22.074l-.29-.7.191-.735c.39-1.5,9.974-37.007,46.324-52.548,1.036-.478,14.867-6.6,23.669,2.845,4.658,5,4.577,10.653,4.5,16.119-.071,4.92-.138,9.568,3.044,14.092a37.541,37.541,0,0,0,8.061,8.128c3.861,3.083,7.508,5.995,5.4,12.623-2.984,9.374-11.845,15.377-29.627,20.075C741.034,619.8,730.458,620.327,721.3,620.327Zm-19.2-5.05c.964,0,2.427.057,4.732.149,9.288.372,28.614,1.149,41.133-2.16,16.09-4.25,24-9.351,26.454-17.056,1.114-3.5.109-4.484-3.9-7.689a41.957,41.957,0,0,1-8.942-9.065c-4.032-5.731-3.947-11.6-3.873-16.776.072-4.984.134-9.29-3.277-12.952-6.681-7.174-18.332-1.863-18.449-1.809-31.674,13.526-42.081,43.833-43.608,48.846,3.267,7.829,7.5,16.615,9.265,18.518C701.767,615.278,701.922,615.276,702.094,615.276Z" transform="translate(-687.561 -541.389)" fill="#2c2763"/>
      </g>
    </g>
    <g id="Groupe_869" data-name="Groupe 869" transform="translate(72.516 49.198)">
      <path id="Tracé_1519" data-name="Tracé 1519" d="M697.016,624.372c.58-.193,2.32-10.441,0-17.594s-15.635,1.419-23.781,0-14.884-3.521-18.852-.117-3.766,18.045-1.448,21.939,33.642,2.346,34.415,1.575S697.016,624.372,697.016,624.372Z" transform="translate(-648.993 -601.622)" fill="#fff"/>
      <path id="Tracé_1520" data-name="Tracé 1520" d="M670.24,632.926a103.72,103.72,0,0,1-12.123-.594c-4.4-.553-6.684-1.467-7.628-3.057-2.649-4.45-3.231-20.4,1.922-24.826,4.159-3.568,10.072-2.429,16.917-1.107,1.228.236,2.5.482,3.806.708,2.792.488,6.618-.484,10.316-1.422,6.184-1.571,13.192-3.349,15.239,2.961a34.557,34.557,0,0,1,1.194,12.251c-.431,6.884-1.527,7.786-2.413,8.124-3.934,2.227-8.314,4.8-9.054,5.383-.561.55-1.48,1.159-12.277,1.487C674.583,632.882,672.519,632.926,670.24,632.926Zm18.227-1.63-.016.016Zm-34.15-4.491c3.155,2.17,26.971,1.8,31.476.838,1.241-.893,4.236-2.687,8.935-5.353.516-2.184,1.4-9.841-.366-15.3-.631-1.942-3.4-1.578-9.794.044-4.161,1.056-8.467,2.148-12.214,1.5-1.336-.232-2.633-.482-3.888-.724-5.923-1.143-10.6-2.044-13.094.093C652.693,610.2,652.38,623.186,654.317,626.805Zm31.138,1.094a2.033,2.033,0,0,0-.2.173A2.4,2.4,0,0,1,685.455,627.9Z" transform="translate(-648.502 -601.136)" fill="#2c2763"/>
    </g>
  </g>
  <g id="Groupe_871" data-name="Groupe 871" transform="translate(9.943 84.732)">
    <rect id="Rectangle_327" data-name="Rectangle 327" width="189.471" height="53.749" transform="translate(2.274 2.275)" fill="#f5b4d1"/>
    <path id="Tracé_1521" data-name="Tracé 1521" d="M756.76,702.587H562.74v-58.3H756.76Zm-189.471-2.958H752.211v-52.38H567.289Z" transform="translate(-562.74 -644.29)" fill="#2c2763"/>
  </g>
  <g id="Groupe_872" data-name="Groupe 872" transform="translate(0 69.263)">
    <rect id="Rectangle_328" data-name="Rectangle 328" width="212.845" height="35.925" transform="translate(2.274 2.274)" fill="#f6b4d1"/>
    <path id="Tracé_1522" data-name="Tracé 1522" d="M768.059,665.977H550.665V625.5H768.059Zm-212.845-4.008h208.3V629.511h-208.3Z" transform="translate(-550.665 -625.503)" fill="#2c2763"/>
  </g>
  <g id="Groupe_873" data-name="Groupe 873" transform="translate(84.966 69.263)">
    <rect id="Rectangle_329" data-name="Rectangle 329" width="38.085" height="69.217" transform="translate(2.274 2.274)" fill="#fff"/>
    <path id="Tracé_1523" data-name="Tracé 1523" d="M696.485,699.268H653.851V625.5h42.634ZM658.4,696.076h33.536V628.7H658.4Z" transform="translate(-653.851 -625.503)" fill="#2c2763"/>
  </g>
</svg>
