<svg xmlns="http://www.w3.org/2000/svg" width="221.5" height="154.914" viewBox="0 0 221.5 154.914">
  <g id="HELLO" transform="translate(-20.982 -159.178)">
    <g id="Group_1046" data-name="Group 1046" transform="translate(20.982 159.177)">
      <g id="Group_1039" data-name="Group 1039" transform="translate(0 10.066)">
        <g id="Group_1038" data-name="Group 1038">
          <path id="Path_1652" data-name="Path 1652" d="M21,173.085q4.918,45.491,5.716,91.293.216,12.954.1,25.91c-.023,2.522,2.7,3.3,4.848,3.042,1.875-.226,5.99-1.531,6.011-4.076q.4-46.52-3.412-92.953-1.077-13.068-2.489-26.1c-.1-.968-1.434-1.668-2.2-1.906a7.567,7.567,0,0,0-4.068.057c-2.183.65-4.788,2.125-4.505,4.736Z" transform="translate(-20.982 -168.04)" fill="#fffffa"/>
        </g>
      </g>
      <g id="Group_1041" data-name="Group 1041" transform="translate(23.998 17.419)">
        <g id="Group_1040" data-name="Group 1040">
          <path id="Path_1653" data-name="Path 1653" d="M42.146,178.866Q51.5,229.928,57.279,281.557q1.618,14.478,2.949,28.988c.076.828,1.475,1.241,2.053,1.353a9.214,9.214,0,0,0,4.008-.285c1.726-.5,4.925-1.664,4.714-3.954q-4.749-51.658-13.1-102.9-2.349-14.415-4.983-28.782c-.154-.842-1.4-1.227-2.054-1.354a9.208,9.208,0,0,0-4.007.285c-1.559.453-5.124,1.723-4.715,3.956Z" transform="translate(-42.113 -174.514)" fill="#fffffa"/>
        </g>
      </g>
      <g id="Group_1043" data-name="Group 1043" transform="translate(1.207 83.31)">
        <g id="Group_1042" data-name="Group 1042">
          <path id="Path_1654" data-name="Path 1654" d="M29.428,242.88c-.567.183-.3.1.108-.03.34-.1.679-.21,1.019-.313q1.15-.348,2.3-.673,2.06-.581,4.136-1.093,1.17-.29,2.346-.555c.349-.079.7-.158,1.047-.233-.586.126-.285.06.124-.022,1.493-.3,2.989-.586,4.492-.84a114.081,114.081,0,0,1,17.178-1.658c2.317-.065,5.6-.855,7.179-2.7,1.614-1.885-1.424-2.267-2.67-2.232a147.174,147.174,0,0,0-41.166,7.237c-.922.3-4.668,2.067-3.1,3.481,1.6,1.446,5.356.16,7-.372Z" transform="translate(-22.046 -232.533)" fill="#fffffa"/>
        </g>
      </g>
      <g id="Group_1045" data-name="Group 1045" transform="translate(57.405)">
        <g id="Group_1044" data-name="Group 1044">
          <path id="Path_1655" data-name="Path 1655" d="M75.4,266.177c1.86,2.345,4.935,3.412,7.814,3.782A24.672,24.672,0,0,0,95.449,268.2c3.206-1.32,6.556-3.367,7.97-6.695,1.3-3.052.2-6.59-1.751-9.083-2.569-3.286-7.095-4.36-11.079-4.159-5.379.271-11.269,2.253-14.976,6.317-5.6,6.134-4.383,15.828-2.553,23.187a53.37,53.37,0,0,0,5.287,13.385c1.846,3.261,4.157,6.26,7.5,8.067,4.592,2.479,10.237,2.253,15.111.745a21.8,21.8,0,0,0,12.848-9.787c2.09-3.609,2.805-7.773,3.32-11.855a142.974,142.974,0,0,0,1.086-15.691,173.953,173.953,0,0,0-2.509-31.121c-3.466-20.877-9.9-41.123-16.619-61.143q-1.269-3.782-2.552-7.559c-.65-1.917-4.618-1.08-5.96-.7-1.407.4-5.1,1.517-4.814,3.582a425.739,425.739,0,0,0,12.864,60.59,439.288,439.288,0,0,0,21.558,58.46q1.644,3.64,3.35,7.25a19.271,19.271,0,0,0,2.852,4.888,13.007,13.007,0,0,0,8.451,3.782,24.425,24.425,0,0,0,13.253-2.677c2.96-1.546,5.8-4,6.732-7.33a26.849,26.849,0,0,0,.524-6.338q.121-4.022-.04-8.045a144.178,144.178,0,0,0-1.534-15.862,239.559,239.559,0,0,0-7.158-31.121c-5.912-20.358-13.256-40.39-16.961-61.323q-.673-3.807-1.172-7.642c-.1-.759-1.478-1.021-1.983-1.088a10.411,10.411,0,0,0-3.977.394c-1.572.452-4.9,1.459-4.814,3.582a368.2,368.2,0,0,0,10.46,73.185q4.479,18.115,10.739,35.726,3.143,8.845,6.719,17.526c1,2.433,1.723,5.038,4.161,6.376,2.905,1.592,6.593,1.379,9.691.5,3.85-1.089,6.9-3.521,9.943-6.015,2.5-2.05,4.908-4.227,7.193-6.515a82.462,82.462,0,0,0,11.751-14.8l-10.288.991a32.872,32.872,0,0,0,2.059,25.436c4.069,7.555,15.814,5.677,21.616,1.451,3.3-2.405,4.81-6.722,6-10.471a42.578,42.578,0,0,0,1.98-13.174c-.045-7.21-2.192-14.915-8.334-19.3a19.739,19.739,0,0,0-12.943-3.557c-5.345.4-10.957,2.225-14.775,6.142a15.208,15.208,0,0,0-3.919,8.715c-.409,3.115-.825,7.485.714,10.344,2.068,3.843,6.737,4.5,10.707,4.452,3.308-.042,6.471-.852,9.718-1.339,4.706-.705,9.467-.986,14.151-1.852,6.313-1.167,12.463-3.112,17.834-6.71a29.98,29.98,0,0,0,11.1-14.569,45.739,45.739,0,0,0,1.6-5.295c.753-3.1-9.935-1.482-10.694,1.648-1.333,5.5-3.378,10.573-7.229,14.591q-.313.327-.641.644c-.117.112-.877.757-.151.148-.41.345-.819.69-1.246,1.015s-.856.613-1.289.914c-.835.581.924-.513.039-.022-.246.137-.487.286-.734.422-.493.273-1,.511-1.5.769-.936.482,1.19-.484.21-.1-.216.085-.428.181-.644.267-.475.19-.959.351-1.436.535-1.018.391,1.4-.418.354-.114-.267.077-.533.162-.8.239q-.8.232-1.614.428c-.27.066-.543.123-.813.191-1.018.256,1.227-.238.5-.1-1.047.2-2.092.4-3.145.559-2.077.32-4.166.555-6.254.788-1.992.221-3.986.436-5.969.737q-1.4.213-2.789.5c-.708.143-1.414.286-2.128.4q-.622.1-1.246.165c1.213-.134-.049-.016-.326-.007A5.336,5.336,0,0,1,183,274.5a4.76,4.76,0,0,1-2.3-3.028,20.862,20.862,0,0,1-.142-8.405,11.96,11.96,0,0,1,3.128-6.824c-.549.542.341-.256.378-.288.792-.688-.734.191.284-.2,1.248-.475-1.013.463.248-.125-1.531.714.61-.187-.354.082-.828.231.6-.083.646-.087-1.145.112.377.033.512.04-.83-.043.683.112.676.111a5.9,5.9,0,0,1,.863.177c6.178,1.61,9.925,7.273,11.256,13.2A37.442,37.442,0,0,1,196.31,290.4q-.63,1.664-1.4,3.273a11.756,11.756,0,0,1-.973,1.792,7.038,7.038,0,0,1-.634.693c.776-.729-1.2.488.229-.192-.979.467.922-.374.243-.1q-.62.235.671-.212-.871.221.535-.1c-1.113.194,1.224-.03.092,0q-.748,0,.234.023-.313-.022-.626-.067c-.676-.05-.132-.017.033.027a9.471,9.471,0,0,1-1.186-.392,3.622,3.622,0,0,1-1.3-.832,5.888,5.888,0,0,1-1.166-1.281c-2.2-3.418-3.266-8.071-3.681-12.059a29.667,29.667,0,0,1,1.387-12.423c.623-1.893-2.886-1.774-3.8-1.687a12.452,12.452,0,0,0-3.537.832c-.965.4-2.385.924-2.956,1.846a82.358,82.358,0,0,1-20.972,22.713c-.263.2-.531.386-.794.583-.947.711-.178.069-.025.047.793-.122,1.563-.652,2.4-.776a5.115,5.115,0,0,1,1.114-.044c-.687-.037-.263-.027-.075.023a4.694,4.694,0,0,1-.656-.221,3.244,3.244,0,0,1-1.018-.744,8.428,8.428,0,0,1-1.436-2.858q-.826-1.985-1.632-3.977-3.31-8.2-6.238-16.553A373.658,373.658,0,0,1,132.2,199.467a366.029,366.029,0,0,1-3.717-39.144L117.7,163.211c2.635,20.179,9.154,39.529,15.113,58.9,6,19.5,11.5,39.453,11.792,60q.056,3.882-.151,7.762a9.808,9.808,0,0,1-1,4.081c-.154.3.035-.032.065-.078-.093.149-.2.3-.305.438-.192.248-.4.477-.6.715-.55.646.354-.2-.15.165-.117.082-.755.684-.869.636.233.1.829-.6.06-.081-.7.47,1.04-.663.1-.057-.984.634,1.024-.292.224-.076-.2.055-.728.159.183-.025,1.237-.249-.048.055-.1,0,.009.009-1.005.067.115,0,.853-.049.182-.011-.03-.009-.136,0-.286,0-.422.014-.586.068.073.147.335.026a2.359,2.359,0,0,1-.84-.074c-.326-.041-1.223-.277-.421-.047a15.409,15.409,0,0,1-1.847-.635c-.127-.055-.253-.117-.377-.179-.425-.216.351.216-.052-.04a11.044,11.044,0,0,1-.919-.636,8.167,8.167,0,0,1-2.385-2.988c-1.123-2.317-2.2-4.655-3.275-7a439.9,439.9,0,0,1-21.208-56.1,425.41,425.41,0,0,1-13.155-57.9q-.557-3.608-1.051-7.225l-10.774,2.887c6,17.722,11.983,35.5,16.189,53.755,4.109,17.826,6.571,36.29,5.095,54.6-.55,6.822-.953,16.172-6.515,20.865a11.683,11.683,0,0,1-1.082.806c.75-.5-1.108.53-.376.2.535-.242-.166.06-.232.079.062-.018.946-.249.309-.1-.671.156.293-.055.313-.042-.16-.1-.785.106-.066.048-.228.018-1.3.007-.572.049a11.215,11.215,0,0,1-1.232-.142c.437.075-.447-.119-.581-.161a11.235,11.235,0,0,1-1.252-.476c-2.56-1.145-4.719-3.7-6.18-6.118a51.434,51.434,0,0,1-7.2-23.577,18.723,18.723,0,0,1,1.554-8.9,7.779,7.779,0,0,1,.983-1.642c.219-.285.468-.542.7-.818.014-.017.433-.438.154-.175-.257.242.277-.22.329-.262.144-.116.3-.212.447-.328-.057.045-.666.35-.2.128.17-.081.345-.178.51-.271-.047.027-.893.386-.306.158.637-.248-.391.128-.4.109,0,0,.564-.151.6-.164.625-.184-.433.1-.452.1.606-.142.234.014-.165,0,.187.006.392,0,.579-.016.641-.037-.646-.168-.045.013a3.6,3.6,0,0,0,.793.11c-.236-.059.567.19.731.251.189.069.79.321.761.305a7.947,7.947,0,0,1,2.969,2.776,6.757,6.757,0,0,1,.469,6.965c.286-.511-.086.09-.223.258a7.169,7.169,0,0,0-.5.556c-.2.312.22-.2.266-.227-.1.074-.194.168-.3.243s-.212.151-.308.233c-.539.463.32-.258.348-.2a7.959,7.959,0,0,1-.7.384c-.149.087-.631.324.127-.051,1.037-.513.114-.058.116-.068-.009.041-.342.122-.385.143-.48.232.788-.246.756-.248-.193-.008-1.456.358-.357.114,1.275-.285-.315.106-.382.03-.044-.05,1.185-.053.644-.062-.14,0-.282.023-.422.025a2.475,2.475,0,0,1-.843.008c-.057-.028.987.119.48.009-.176-.039-.375-.032-.555-.052-.271-.033-.549-.106-.82-.124-.409-.028.252.05.288.062-.127-.044-.265-.064-.394-.106a13.374,13.374,0,0,1-1.623-.613c.526.25-.206-.128-.34-.217a7.473,7.473,0,0,1-1.788-1.657c-.5-.626-2.2-.63-2.818-.614a12.389,12.389,0,0,0-4.209.9c-1.212.5-4.416,1.926-3.058,3.638Z" transform="translate(-71.529 -159.177)" fill="#fffffa"/>
        </g>
      </g>
    </g>
  </g>
</svg>
