<svg xmlns="http://www.w3.org/2000/svg" xmlns:xlink="http://www.w3.org/1999/xlink" width="154.18" height="147.013" viewBox="0 0 154.18 147.013">
  <defs>
    <clipPath id="clip-path">
      <path id="Path_1681" data-name="Path 1681" d="M69.975,0a73.252,73.252,0,1,1-30.4,139.909c-7.7-3.5-38.8-4.908-44.935-10.917-13.45-13.165,2.079-35.228,2.079-55.74A73.252,73.252,0,0,1,69.975,0Z" transform="translate(10.838)" fill="#29246b" stroke="#7dced8" stroke-width="5"/>
    </clipPath>
  </defs>
  <g id="ILL_1" data-name="ILL 1" transform="translate(-856.82 -1139)">
    <g id="Group_1088" data-name="Group 1088" transform="translate(856.82 1139.143)">
      <g id="Group_917" data-name="Group 917" transform="translate(34.179 7.176)">
        <ellipse id="Ellipse_121" data-name="Ellipse 121" cx="2.344" cy="2.344" rx="2.344" ry="2.344" transform="translate(1.172)" fill="#f3b2d0"/>
        <path id="Path_1596" data-name="Path 1596" d="M145.358,325.224c1.941,0,3.516,2.15,3.516,4.8h-7.032C141.841,327.374,143.415,325.224,145.358,325.224Z" transform="translate(-141.841 -321.188)" fill="#f3b2d0"/>
      </g>
      <g id="Group_1087" data-name="Group 1087" transform="translate(0 0)">
        <g id="Rectangle_428" data-name="Rectangle 428" transform="translate(8.18 -0.143)" fill="#29246b" stroke="#7dced8" stroke-width="5">
          <rect width="146" height="147" rx="73" stroke="none"/>
          <rect x="2.5" y="2.5" width="141" height="142" rx="70.5" fill="none"/>
        </g>
        <g id="Group_906" data-name="Group 906" transform="translate(64.729 7.672)">
          <path id="Path_1581" data-name="Path 1581" d="M177.094,333.689a1.982,1.982,0,0,0,.615.131h0a3.5,3.5,0,0,0,.628.115l.116.027a.537.537,0,0,0,.285.055.387.387,0,0,0,.22.034l.058.006.162.01a1.024,1.024,0,0,0,.354.024h0l.565.076c.373.085.757.1,1.135.148h0l.182.034a.03.03,0,0,0,.035,0h0a3.18,3.18,0,0,0,.687.111.03.03,0,0,0,.035,0,.286.286,0,0,0,.229.022h0l.049.028h0l.191.042a.55.55,0,0,0,.234.062h.007a1.449,1.449,0,0,0,.531.12.508.508,0,0,0,.278.071h0c.365.115.365.115.453-.116a.48.48,0,0,0,.135-.315l.038-.131h0l.015-.051a2.706,2.706,0,0,0,.175-.614l.015-.052.015-.061a.331.331,0,0,0,.053-.181l.056-.185a5.1,5.1,0,0,0,.268-.81l.017-.052h0l.158-.452h0l.08-.214h0l.063-.171h0a2.443,2.443,0,0,0,.184-.5h0l.042-.1a.5.5,0,0,0,.087-.228h0a1.63,1.63,0,0,0,.166-.416h0a1.068,1.068,0,0,0,.129-.355h0a.032.032,0,0,0,.02-.025.7.7,0,0,0,.1-.295l.052-.182a.34.34,0,0,0,.052-.184,1.809,1.809,0,0,0,.1-.462,1.642,1.642,0,0,0,.071-.5,2.767,2.767,0,0,0,.022-.815.594.594,0,0,0,0-.263h0l-.015-.137a.851.851,0,0,0-.026-.345h0a3.444,3.444,0,0,0-.132-.846.593.593,0,0,0-.066-.249h0a2.373,2.373,0,0,0-.211-.658h0l-.023-.112-.015-.038c-.025-.068-.046-.139-.066-.208l-.04-.075h0l-.043-.078-.193-.351h0l-.107-.2-.019-.034a1.183,1.183,0,0,0-.079-.093v0l-.022-.022-.014-.014h0l-.022-.021a.077.077,0,0,1-.024-.041,3.316,3.316,0,0,0-.455-.5h0a2.874,2.874,0,0,0-.745-.6h0a.886.886,0,0,0-.315-.18h0a4.7,4.7,0,0,0-2.826-.53.1.1,0,0,0-.039,0,1.431,1.431,0,0,0-.623.151h0c-.072-.03-.132.078-.207.02l-.079.042c-.016.118-.167.106-.2.208h0a.39.39,0,0,0-.205.166,1.013,1.013,0,0,0-.315.4,4.109,4.109,0,0,0-.4,2.585h0a9.3,9.3,0,0,0,.267,1.5c.024.108.046.214.079.365a7.954,7.954,0,0,0-1.022-.98,3.123,3.123,0,0,0-.617-.472.225.225,0,0,0-.136-.084h0a3.21,3.21,0,0,0-3.173-.395,2.443,2.443,0,0,0-1.124.827,2.823,2.823,0,0,0-.623,1.1h0a3.009,3.009,0,0,0,.024,2.13,2.936,2.936,0,0,0,.272.7.068.068,0,0,0,.018.049,3.4,3.4,0,0,0,.5.9h0a3.032,3.032,0,0,0,.6.783h0a1.951,1.951,0,0,0,.449.465,1.906,1.906,0,0,0,.513.391h0a.483.483,0,0,0,.19.136h0a4.53,4.53,0,0,0,1.48.77l.112.037h0a.72.72,0,0,0,.309.081h0A.528.528,0,0,0,177.094,333.689Zm3.718-11.563a.21.21,0,0,0,.057.024C180.841,322.159,180.818,322.158,180.812,322.126Zm3.27,1.016-.008,0c-.01-.005-.005-.013,0-.018Zm.667.449h0Zm-4.705-1.072h0Zm3.712,1.313,0,0h0l0,0Zm1.66.509,0,0,.005,0Zm-5-1.233-.007-.027h.011A.037.037,0,0,1,180.413,323.108Zm5.51,2.985v0h0l0-.008Zm0,0v0h0Zm-4.816-.811v0Zm1.908.883Zm-.006.02,0-.01v0Zm-1.46-.324a.271.271,0,0,1-.007-.1l.007.016a.107.107,0,0,1,0,.04Zm4.288,1.751,0,0,0,0h-.005Zm-3.491-.726h0Zm-.28.712,0-.009.005.007Zm3.394.985v0h0Zm0,0v-.012l.005.006Zm-.555.133.007-.011.005-.007-.01.017Zm-.011.02v0h0Zm0,0h0Zm1.011.458h0Zm-.373.058,0,0h0Zm-1.437-.14v-.01c0-.015.008,0,.013,0Zm-8.064-2.265h0Zm9.3,2.867h0Zm-.771-.172.007-.018.011.008Zm-10.664-2.992,0,0h0Zm10.395,3.111,0,0a.074.074,0,0,1-.006-.038Zm.171.189-.005-.012.012-.005Zm-1.211.146h0Zm-7.691-2.072v0h0Zm-.005,0v-.005l0,0Zm4.416,1.293-.012,0h.013Zm-5.6-1.246v0h0Zm9.936,2.92v0a.078.078,0,0,1,.013-.032A.057.057,0,0,1,184.3,330.9Zm-2.356-.586Zm-2.489-.7.01-.023h0v.01l.014.013Zm-.935-.259h0Zm-3.482-.985h0v0Zm9.865,2.873v0h.009Zm-2.893-.8v-.007h.011l-.007.006Zm0,0,0-.008H182v.007Zm.577.545Zm-8.639-2.426a.155.155,0,0,1-.053-.031c-.029-.024-.026-.043-.012-.061A.486.486,0,0,0,173.939,328.567Zm9.5,2.806h0Zm-8.481-1.989v0l0,0Zm-.511.231v0l0-.005h.005Zm2.424.9h0V330.5l.006.006-.007,0Zm6.359,2.045h0Zm-1.2.045h-.008l.007,0v.005Zm-1.682-.188,0,0h0Zm-4.331-1.233,0,0h.005Zm4.705,1.377v-.006h.005Zm1.967.6v-.008h0Zm1.576.549Zm-7.421-1.762v0h0Zm-1.931-.466,0,0v0Zm8.7,2.56,0-.006.007.007Zm-3.082-.755a.191.191,0,0,1,.033.006A.043.043,0,0,1,180.534,333.289Zm-3.434-.774v0l0,0h0Zm.756.349,0,0,.006,0Zm-.844-.239,0-.005v0h0Zm3.207,1.125,0,0h0v0Zm-.974-.218-.007-.005h0l.005-.005Zm-.726-.017h0Zm.12.155.024-.043a.385.385,0,0,0,0,.047Zm-1.423-.4Z" transform="translate(-172.195 -321.707)" fill="#7fcdd7"/>
          <path id="Path_1582" data-name="Path 1582" d="M176.814,331.882h0Z" transform="translate(-172.165 -321.641)" fill="#f3b2d0"/>
        </g>
        <g id="Group_907" data-name="Group 907" transform="translate(7.561 22.267)">
          <path id="Path_1583" data-name="Path 1583" d="M125.989,358.626a3.445,3.445,0,0,0,1.109,0h0a6.016,6.016,0,0,0,1.126-.031l.21,0a.966.966,0,0,0,.513-.008.693.693,0,0,0,.392-.022l.1-.012.285-.041a1.755,1.755,0,0,0,.62-.089h0l1-.076c.676.011,1.343-.107,2.014-.161h0l.327-.009a.054.054,0,0,0,.061-.009h0a5.684,5.684,0,0,0,1.226-.062.054.054,0,0,0,.061-.01.512.512,0,0,0,.4-.047h0l.095.03h0l.345,0a.99.99,0,0,0,.428.021c.006,0,.01,0,.013,0a2.574,2.574,0,0,0,.961.012.887.887,0,0,0,.5.02h0c.672.064.672.064.74-.364a.845.845,0,0,0,.117-.595l.019-.24h0l.007-.094a4.83,4.83,0,0,0,.077-1.123l.007-.1,0-.113a.594.594,0,0,0,.024-.332l.03-.339a9.036,9.036,0,0,0,.165-1.5l.01-.1h0l.107-.838h0l.059-.4h0l.046-.318h0a4.294,4.294,0,0,0,.136-.926h0l.037-.187a.871.871,0,0,0,.064-.427h0a2.8,2.8,0,0,0,.134-.778h0a1.886,1.886,0,0,0,.092-.66h0a.058.058,0,0,0,.027-.05,1.224,1.224,0,0,0,.057-.546l.024-.332a.614.614,0,0,0,.022-.338,3.2,3.2,0,0,0,0-.832,2.923,2.923,0,0,0-.059-.888,4.911,4.911,0,0,0-.262-1.415,1.038,1.038,0,0,0-.1-.453h0l-.076-.231a1.5,1.5,0,0,0-.172-.586h0a6.059,6.059,0,0,0-.538-1.412,1.047,1.047,0,0,0-.205-.406h0a4.214,4.214,0,0,0-.607-1.057h0l-.081-.184-.04-.061c-.068-.11-.131-.222-.19-.336l-.1-.114h0l-.1-.12-.461-.535h0l-.257-.3-.046-.052a1.89,1.89,0,0,0-.17-.13l0,0c-.015-.011-.031-.02-.047-.03l-.028-.019v0c-.016-.01-.03-.02-.046-.029a.121.121,0,0,1-.056-.061,5.886,5.886,0,0,0-.968-.688h0a5.1,5.1,0,0,0-1.506-.769h0a1.591,1.591,0,0,0-.61-.2h0a8.3,8.3,0,0,0-5.071.122.174.174,0,0,0-.067.017,2.507,2.507,0,0,0-1.02.49h0c-.137-.025-.2.184-.351.111l-.119.1c.014.207-.251.243-.268.431h0a.7.7,0,0,0-.293.362,1.8,1.8,0,0,0-.4.8,7.239,7.239,0,0,0,.264,4.607h0a16.337,16.337,0,0,0,1.01,2.482c.08.177.157.354.268.6a14.04,14.04,0,0,0-2.122-1.316,5.482,5.482,0,0,0-1.238-.59.4.4,0,0,0-.267-.094h0a5.665,5.665,0,0,0-5.622.483,4.305,4.305,0,0,0-1.636,1.84,4.99,4.99,0,0,0-.671,2.127h0a5.311,5.311,0,0,0,.822,3.668,5.1,5.1,0,0,0,.727,1.112.116.116,0,0,0,.049.079,6.03,6.03,0,0,0,1.193,1.37h0a5.376,5.376,0,0,0,1.323,1.13h0a3.424,3.424,0,0,0,.946.637,3.359,3.359,0,0,0,1.028.486h0a.865.865,0,0,0,.378.165h0a8.028,8.028,0,0,0,2.838.786l.207.023h0a1.28,1.28,0,0,0,.563.027h0A.942.942,0,0,0,125.989,358.626Zm2.175-21.32a.386.386,0,0,0,.109.02C128.227,337.351,128.187,337.357,128.164,337.305Zm6.018.552-.016,0c-.019-.005-.014-.022,0-.033Zm1.315.53h0Zm-8.513-.125h0Zm6.888.906.006-.006h.005l0,.005Zm3.052.271-.005-.006.007-.008Zm-9.087-.293a.475.475,0,0,0-.023-.044.125.125,0,0,1,.018-.006A.066.066,0,0,1,127.836,339.147Zm10.6,3.131v0h0s0-.009-.006-.013Zm0,.006,0,0h0Zm-8.609.366v0h0Zm3.618.824h0Zm0,.036v0Zm-2.64-.022a.51.51,0,0,1-.047-.166l.017.025a.159.159,0,0,1,.02.068Zm8.044,1.447,0,0h0Zm-6.293.028h0Zm-.22,1.332,0-.017.011.01Zm6.219.455v-.005h0Zm-.007.008-.006-.02.012.007Zm-.907.432a.184.184,0,0,1,.007-.022l.006-.013c0,.01-.008.022-.011.033Zm-.013.039v0h0Zm0,.005h0v0h0Zm1.914.419h0v0Zm-.625.238,0-.006h0Zm-2.531.286,0-.018c0-.025.013-.009.025,0Zm-14.748-.95h0Zm17.1,1.538h0Zm-1.393-.015a.264.264,0,0,0,.006-.032l.021.009A.281.281,0,0,1,137.348,348.75Zm-19.5-1.251-.007,0h.008Zm19.081,1.555,0,0a.134.134,0,0,1-.025-.062C136.9,349.007,136.914,349.029,136.926,349.054Zm.364.264-.014-.018.02-.013A.243.243,0,0,1,137.29,349.318Zm-2.036.7h0l0,0h0Zm-14.036-.755,0-.005h0Zm-.008,0v-.009l.007,0Zm8.1.612-.022,0,.022-.006Zm-10.131-.095,0,0h0Zm18.22,1.394,0,0a.113.113,0,0,1,.01-.06A.1.1,0,0,1,137.4,351.172Zm-4.281-.146Zm-4.552-.293c0-.015.007-.029.009-.043h0c0,.006,0,.011,0,.017l.029.018Zm-1.708-.1h0Zm-6.373-.423h0v0Zm18.082,1.341,0,0,.014,0Zm-5.286-.318,0-.012.02,0-.01.012Zm-.007,0-.008-.013h.008v.013Zm1.195.73Zm-15.8-1.016a.258.258,0,0,1-.1-.034c-.059-.032-.061-.065-.044-.1A.928.928,0,0,0,118.665,350.943Zm17.42,1.36,0,0h0l.005,0Zm-15.366-.322v0l0,0Zm-.8.587,0,0,0-.009.007,0Zm4.513.658h0v-.015l.013.009-.012.006Zm11.726,1.2h-.005l0,0Zm-2.049.516H134.1l.01-.009,0,.008h0Zm-2.973.293-.005-.006,0,0h0Zm-7.926-.538-.005-.006.008,0Zm8.625.65,0-.011.009,0Zm3.616.321v0s0-.007,0-.011h0A.063.063,0,0,1,135.452,355.666Zm2.922.368Zm-13.452-.319,0,0h0Zm-3.506-.095v0h0v0h0Zm15.959,1.226-.005-.01.015.01Zm-5.595-.172a.394.394,0,0,1,.059,0A.076.076,0,0,1,131.78,356.674Zm-6.211-.076,0-.005.005,0h0Zm1.432.326,0-.005.01-.006Zm-1.545-.1,0-.008v-.005h.006Zm5.948.766,0-.005h0v0Zm-1.761-.02-.015-.005h0l.007-.011Zm-1.258.239,0,0h0Zm.263.222.025-.085a.815.815,0,0,0,.016.084A.289.289,0,0,0,128.648,358.028Zm-2.6-.172h0v0Z" transform="translate(-115.393 -336.208)" fill="#fff"/>
          <path id="Path_1584" data-name="Path 1584" d="M124.858,355.587h0Z" transform="translate(-115.332 -336.083)" fill="#fff"/>
        </g>
        <g id="Group_908" data-name="Group 908" transform="translate(121.164 4.177)">
          <path id="Path_1585" data-name="Path 1585" d="M229.674,330.019a2.806,2.806,0,0,0,.486.749h0a5,5,0,0,0,.514.746l.09.143a.778.778,0,0,0,.23.343.568.568,0,0,0,.187.256l.052.063.153.173a1.424,1.424,0,0,0,.331.379h0l.491.642c.289.461.66.859.99,1.288h0l.15.216a.042.042,0,0,0,.033.037h0a4.523,4.523,0,0,0,.579.8.044.044,0,0,0,.034.037.412.412,0,0,0,.209.253h0l.02.077h0l.15.234a.779.779,0,0,0,.173.3l.007.008a2.072,2.072,0,0,0,.413.653.718.718,0,0,0,.207.35h0c.252.481.252.481.571.339a.687.687,0,0,0,.452-.182l.17-.093h0l.066-.036a3.9,3.9,0,0,0,.791-.44l.067-.038.078-.046a.474.474,0,0,0,.235-.129l.243-.129a7.168,7.168,0,0,0,1.083-.544l.068-.035h0l.612-.3h0l.295-.134h0l.236-.108h0a3.451,3.451,0,0,0,.684-.315h0l.142-.056a.7.7,0,0,0,.316-.143h0a2.308,2.308,0,0,0,.584-.251h0a1.515,1.515,0,0,0,.486-.227h0a.046.046,0,0,0,.045-.005.98.98,0,0,0,.394-.2l.236-.13a.5.5,0,0,0,.238-.133,2.61,2.61,0,0,0,.562-.364,2.364,2.364,0,0,0,.574-.429,3.985,3.985,0,0,0,.839-.8.852.852,0,0,0,.262-.268h0l.123-.152a1.2,1.2,0,0,0,.319-.373h0a4.817,4.817,0,0,0,.718-.982.817.817,0,0,0,.183-.316h0a3.358,3.358,0,0,0,.448-.872h0l.089-.136.024-.054c.043-.094.092-.185.143-.275l.034-.117h0l.035-.122.159-.545h0l.089-.3.015-.053a1.641,1.641,0,0,0,.013-.172v0c0-.014,0-.029,0-.044v-.026c0-.015,0-.029,0-.044a.1.1,0,0,1,.016-.065,4.729,4.729,0,0,0,.04-.954h0a4.1,4.1,0,0,0-.141-1.354h0a1.264,1.264,0,0,0-.136-.5h0a6.677,6.677,0,0,0-2.3-3.37.157.157,0,0,0-.042-.037,2.017,2.017,0,0,0-.776-.473h0c-.043-.1-.212-.053-.229-.189l-.121-.035c-.134.1-.274-.062-.409.009h0a.568.568,0,0,0-.373-.039,1.448,1.448,0,0,0-.712.082,5.827,5.827,0,0,0-2.993,2.2h0a13.332,13.332,0,0,0-1.232,1.769l-.289.445a11.312,11.312,0,0,0-.041-2.008,4.407,4.407,0,0,0-.145-1.094.321.321,0,0,0-.053-.22h0a4.556,4.556,0,0,0-2.79-3.582,3.449,3.449,0,0,0-1.958-.3,4.007,4.007,0,0,0-1.73.479h0a4.282,4.282,0,0,0-2.115,2.161,4.122,4.122,0,0,0-.431.978.094.094,0,0,0-.032.068,4.857,4.857,0,0,0-.4,1.4h0a4.291,4.291,0,0,0-.183,1.388h0a2.782,2.782,0,0,0-.015.918,2.681,2.681,0,0,0,.122.906h0a.7.7,0,0,0,.054.328h0a6.458,6.458,0,0,0,.714,2.259l.075.15h0a1.044,1.044,0,0,0,.227.392h0A.76.76,0,0,0,229.674,330.019Zm15.338-7.874a.388.388,0,0,0,.034.083C245.009,322.207,244.987,322.183,245.012,322.145Zm2.265,4.3-.005-.012c-.005-.015.009-.019.021-.017Zm.218,1.119h0Zm-3.645-5.8h0v0Zm2.405,5.044h.007l0,0v.005Zm1.155,2.178,0-.006h.008Zm-3.784-6.261a.32.32,0,0,0,.019-.034l.013.009C243.645,322.722,243.635,322.73,243.626,322.73Zm2.534,8.528,0,0h0l.006-.01Zm0,.005v0h0Zm-4.02-5.648v0Zm1.03,2.8Zm-.026.013.013-.006h0ZM242,326.639a.414.414,0,0,1,.092-.1l-.01.023a.127.127,0,0,1-.037.043Zm2.548,6.063h0l0,0v0Zm-2.777-4.234h0l0,.007Zm-1,.435.012-.006,0,.011Zm2.417,4.4,0,0h0Zm-.007,0,.01-.013a.04.04,0,0,1,0,.011Zm-.689-.423a.093.093,0,0,1,.018-.005l.011,0-.027.007Zm-.032.008h0Zm0,0v0h0Zm.557,1.474h0Zm-.434-.317v0h0v0Zm-1.3-1.582.012-.01c.015-.014.011.005.01.018Zm-5.82-10.368Zm6.453,12.211h0Zm-.6-.947.025-.01,0,.018Zm-7.7-13.708v-.006l0,.006Zm7.312,13.557v0a.106.106,0,0,1,.031-.044C240.946,333.17,240.936,333.186,240.924,333.206Zm-.018.361.006-.017.018.007A.152.152,0,0,1,240.906,333.567Zm-1.362-1.069,0,0h0Zm-5.641-9.8,0,0,0,0Zm-.005-.006.007,0v.006Zm3.136,5.732-.007-.017.014.013Zm-4.376-6.877,0,0h0v0Zm7.043,12.9v0a.1.1,0,0,1,.045-.019A.083.083,0,0,1,239.7,334.45Zm-1.777-2.952Zm-1.8-3.2.032-.012h0l-.012.009c0,.009,0,.018,0,.027Zm-.679-1.2v0l0,0Zm-2.506-4.486h0l0,0ZM239.96,335.4v0l.008.008Zm-2.1-3.707.007-.007.01.013h-.013Zm0,0,.005-.011,0,.006-.008.006Zm.031,1.126Zm-6.237-11.107a.2.2,0,0,1-.023-.085c0-.054.018-.07.05-.074A.711.711,0,0,0,231.649,321.711Zm6.715,12.35h0v.006Zm-6.516-10.509h0v0Zm-.746-.282v0h.008l0,0Zm1.533,3.333h0l.01-.007v.012l-.01-.005Zm4.33,8.437v0l0,0Zm-1.246-1.156-.007-.009.011,0,0,.006h0Zm-1.5-1.877,0-.006h0v0Zm-3.11-5.585,0-.005.006,0Zm3.341,6.105.005-.007.006.005Zm1.367,2.581h0l.007-.006v0Zm1.032,2.133h0Zm-5.679-9.216v0h0Zm-1.472-2.407h0l0,0Zm6.166,11.305,0-.008v.015Zm-2.336-3.851a.316.316,0,0,1,.028.039A.065.065,0,0,1,233.528,333.072Zm-2.67-4.224h.005v.005h0Zm.409,1.109,0,0,.008,0Zm-.608-1.087,0-.006,0,0,0,0Zm2.089,4.349h.005v0Zm-.759-1.2,0-.012H232Zm-.712-.745v0Zm-.035.276.068-.02a.447.447,0,0,0-.049.047A.152.152,0,0,0,231.242,331.552Zm-1.025-1.834Z" transform="translate(-228.269 -318.234)" fill="#f7f19a"/>
          <path id="Path_1586" data-name="Path 1586" d="M231.152,327.958h0Z" transform="translate(-228.25 -318.172)" fill="#f3b2d0"/>
        </g>
        <g id="Group_909" data-name="Group 909" transform="translate(130.218 70.858)">
          <path id="Path_1587" data-name="Path 1587" d="M245.435,385.893a2.8,2.8,0,0,0-.748.486h0a4.99,4.99,0,0,0-.747.514l-.143.09a.767.767,0,0,0-.342.23.563.563,0,0,0-.256.186l-.063.053-.174.153a1.407,1.407,0,0,0-.379.331h0l-.642.491c-.461.289-.859.659-1.288.99h0l-.217.149a.046.046,0,0,0-.037.034h0a4.516,4.516,0,0,0-.8.579.042.042,0,0,0-.037.034.4.4,0,0,0-.253.209h0l-.078.02h0l-.236.149a.792.792,0,0,0-.3.174l-.008.006a2.061,2.061,0,0,0-.654.414.707.707,0,0,0-.349.207h0c-.482.252-.482.252-.339.571a.685.685,0,0,0,.181.452l.093.17h0l.036.065a3.837,3.837,0,0,0,.441.792l.037.067.046.078a.492.492,0,0,0,.129.235l.129.241a7.225,7.225,0,0,0,.545,1.083l.035.069h0l.295.612h0l.135.295h0l.108.234h0a3.394,3.394,0,0,0,.314.684h0l.057.143a.7.7,0,0,0,.143.316h0a2.238,2.238,0,0,0,.251.584h0a1.513,1.513,0,0,0,.227.486h0a.046.046,0,0,0,0,.045.976.976,0,0,0,.2.393l.129.234a.5.5,0,0,0,.134.238,2.532,2.532,0,0,0,.364.562,2.318,2.318,0,0,0,.429.573,3.945,3.945,0,0,0,.8.84.837.837,0,0,0,.268.261h0l.152.124a1.207,1.207,0,0,0,.372.319h0a4.868,4.868,0,0,0,.982.718.843.843,0,0,0,.317.183h0a3.371,3.371,0,0,0,.872.448h0l.136.089.053.024c.095.043.186.092.276.143l.117.034h0l.121.035.546.159h0l.3.088.054.016c.057.007.115.011.172.013h0a.34.34,0,0,0,.045,0h.07a.1.1,0,0,1,.064.017,4.737,4.737,0,0,0,.955.04h0a4.118,4.118,0,0,0,1.353-.141h0a1.287,1.287,0,0,0,.5-.136h0a6.669,6.669,0,0,0,3.369-2.3.127.127,0,0,0,.037-.041,2.029,2.029,0,0,0,.474-.777h0c.1-.042.053-.211.188-.229l.035-.122c-.1-.134.062-.273-.008-.408h0a.562.562,0,0,0,.038-.373,1.446,1.446,0,0,0-.081-.712,5.823,5.823,0,0,0-2.2-2.993h0a13.193,13.193,0,0,0-1.77-1.232l-.445-.289a11.416,11.416,0,0,0,2.009-.041,4.468,4.468,0,0,0,1.094-.145.324.324,0,0,0,.22-.053h0a4.559,4.559,0,0,0,3.582-2.79,3.46,3.46,0,0,0,.3-1.958,4,4,0,0,0-.479-1.729h0a4.277,4.277,0,0,0-2.162-2.114,4.158,4.158,0,0,0-.977-.432.1.1,0,0,0-.068-.031,4.874,4.874,0,0,0-1.4-.4h0a4.291,4.291,0,0,0-1.388-.183h0a2.81,2.81,0,0,0-.918-.016,2.711,2.711,0,0,0-.907.123h0a.7.7,0,0,0-.327.054h0a6.453,6.453,0,0,0-2.259.714l-.15.074h0a1.038,1.038,0,0,0-.391.229h0A.763.763,0,0,0,245.435,385.893Zm7.874,15.338a.354.354,0,0,0-.082.034C253.247,401.227,253.272,401.206,253.31,401.231Zm-4.3,2.263.012,0c.015-.005.019.008.017.02Zm-1.12.219h0v0Zm5.8-3.646h0Zm-5.044,2.406,0,.007,0,0-.005,0Zm-2.178,1.155h.006v.009Zm6.26-3.784.034.019-.009.013C252.734,399.864,252.726,399.853,252.725,399.845Zm-8.528,2.533h0l.01.006Zm0,0h0Zm5.648-4.02h0Zm-2.8,1.03h0Zm-.013-.026.007.013v0Zm1.791-1.141a.388.388,0,0,1,.1.091l-.023-.01a.125.125,0,0,1-.043-.037Zm-6.063,2.547v0h-.006Zm4.233-2.777h0l-.006,0Zm-.434-.994.006.012-.012,0Zm-4.4,2.417,0,0h0Zm0-.008.013.011a.041.041,0,0,1-.011,0Zm.423-.689a.132.132,0,0,1,0,.019l0,.011-.006-.027Zm-.009-.031v0h0Zm0,0h0Zm-1.475.557h0Zm.317-.435.005,0h0Zm1.583-1.3.009.012c.014.015,0,.011-.017.01Zm10.367-5.821h0Zm-12.21,6.454h0Zm.947-.6a.162.162,0,0,0,.01.025l-.019,0A.131.131,0,0,1,242.1,397.533Zm13.708-7.7h.005l-.005,0Zm-13.557,7.312h0a.113.113,0,0,1,.044.031Zm-.361-.018.017.006-.008.018C241.894,397.14,241.892,397.133,241.889,397.125Zm1.068-1.363h0v0h0Zm9.8-5.641,0,0,0,0Zm.005,0,.005.007h-.007Zm-5.731,3.136.016-.008-.012.014Zm6.877-4.376h0ZM241,395.92h0a.1.1,0,0,1,.019.045A.084.084,0,0,1,241,395.92Zm2.953-1.777Zm3.2-1.8.012.033h0l-.009-.011h-.027Zm1.2-.678h0Zm4.485-2.507h0l0,0Zm-12.788,7.019h0l-.008.008Zm3.706-2.1.007.006-.012.011v-.013Zm.005,0,.01.005-.005,0-.006-.008Zm-1.126.031Zm11.106-6.237a.2.2,0,0,1,.086-.023c.054-.005.069.017.075.049A.715.715,0,0,0,253.743,387.868Zm-12.349,6.715v0h-.005Zm10.509-6.516v0h0Zm.282-.746h0l0,.007-.005.005Zm-3.334,1.533h0l.007.009a.024.024,0,0,1-.012,0l.005-.009Zm-8.437,4.33h.005l0,0Zm1.156-1.246.009-.007,0,.011-.006,0Zm1.878-1.5.006,0v0h0Zm5.584-3.109.006,0,0,0Zm-6.105,3.34.007.006,0,.006Zm-2.581,1.368,0,0,.005.007h0Zm-2.133,1.032Zm9.217-5.679h0v0Zm2.406-1.472v0l0,0Zm-11.3,6.166.007,0a.066.066,0,0,0-.014,0Zm3.851-2.336a.314.314,0,0,1-.039.027A.065.065,0,0,1,242.384,389.747Zm4.224-2.67v0H246.6Zm-1.109.409h.005l-.005.008Zm1.087-.608.006,0,0,0,0,0Zm-4.349,2.089v.005h0Zm1.2-.759.011,0h0v.011Zm.744-.712h0Zm-.275-.035.019.068a.441.441,0,0,0-.046-.049Zm1.833-1.025Z" transform="translate(-237.266 -384.488)" fill="#7fcdd7"/>
          <path id="Path_1588" data-name="Path 1588" d="M238.862,385.954h0Z" transform="translate(-237.255 -384.478)" fill="#f3b2d0"/>
        </g>
        <g id="Group_910" data-name="Group 910" transform="translate(93.307 7.973)">
          <ellipse id="Ellipse_114" data-name="Ellipse 114" cx="3.42" cy="3.42" rx="3.42" ry="3.42" transform="translate(1.71)" fill="#f3b2d0"/>
          <path id="Path_1589" data-name="Path 1589" d="M205.72,327.858c2.834,0,5.131,3.136,5.131,7H200.59C200.59,330.994,202.887,327.858,205.72,327.858Z" transform="translate(-200.59 -321.968)" fill="#f3b2d0"/>
        </g>
        <g id="Group_911" data-name="Group 911" transform="translate(137.646 36.191)">
          <ellipse id="Ellipse_115" data-name="Ellipse 115" cx="3.42" cy="3.42" rx="3.42" ry="3.42" transform="translate(1.71)" fill="#f3b2d0"/>
          <path id="Path_1590" data-name="Path 1590" d="M249.775,355.9c2.834,0,5.131,3.136,5.131,7H244.645C244.645,359.031,246.942,355.9,249.775,355.9Z" transform="translate(-244.645 -350.005)" fill="#f3b2d0"/>
        </g>
        <g id="Group_912" data-name="Group 912" transform="translate(104.647 32.059)">
          <ellipse id="Ellipse_116" data-name="Ellipse 116" cx="4.163" cy="4.163" rx="4.163" ry="4.163" transform="translate(2.082)" fill="#fff"/>
          <path id="Path_1591" data-name="Path 1591" d="M218.1,353.061c3.448,0,6.244,3.817,6.244,8.527H211.858C211.858,356.878,214.654,353.061,218.1,353.061Z" transform="translate(-211.858 -345.892)" fill="#fff"/>
        </g>
        <g id="Group_913" data-name="Group 913" transform="translate(114.806 103.502)">
          <ellipse id="Ellipse_117" data-name="Ellipse 117" cx="5.339" cy="5.339" rx="5.339" ry="5.339" transform="translate(10.707)" fill="#7eced8"/>
          <path id="Path_1592" data-name="Path 1592" d="M234.212,423c.843,4.342-3.279,8.794-9.207,9.946l-3.054-15.722C227.88,416.069,233.369,418.655,234.212,423Z" transform="translate(-221.952 -416.923)" fill="#7eced8"/>
        </g>
        <g id="Group_914" data-name="Group 914" transform="translate(39.464 31.229)">
          <ellipse id="Ellipse_118" data-name="Ellipse 118" cx="3.218" cy="3.218" rx="3.218" ry="3.218" transform="translate(1.609)" fill="#f3b2d0"/>
          <path id="Path_1593" data-name="Path 1593" d="M151.919,350.62c2.666,0,4.828,2.951,4.828,6.591h-9.655C147.092,353.571,149.253,350.62,151.919,350.62Z" transform="translate(-147.092 -345.078)" fill="#f3b2d0"/>
        </g>
        <g id="Group_915" data-name="Group 915" transform="translate(125.454 39.675)">
          <ellipse id="Ellipse_119" data-name="Ellipse 119" cx="1.984" cy="1.984" rx="1.984" ry="1.984" transform="translate(0.991)" fill="#f3b2d0"/>
          <path id="Path_1594" data-name="Path 1594" d="M235.507,356.9c1.644,0,2.976,1.819,2.976,4.062h-5.951C232.532,358.718,233.863,356.9,235.507,356.9Z" transform="translate(-232.532 -353.482)" fill="#f3b2d0"/>
        </g>
        <g id="Group_916" data-name="Group 916" transform="translate(60.867 30.161)">
          <ellipse id="Ellipse_120" data-name="Ellipse 120" cx="2.344" cy="2.344" rx="2.344" ry="2.344" transform="translate(1.172)" fill="#f3b2d0"/>
          <path id="Path_1595" data-name="Path 1595" d="M171.873,348.062c1.941,0,3.515,2.15,3.515,4.8h-7.031C168.358,350.212,169.932,348.062,171.873,348.062Z" transform="translate(-168.358 -344.026)" fill="#f3b2d0"/>
        </g>
        <g id="Group_918" data-name="Group 918" transform="translate(96.46 51.576)">
          <ellipse id="Ellipse_122" data-name="Ellipse 122" cx="2.521" cy="2.521" rx="2.521" ry="2.521" fill="#f8f299"/>
          <path id="Path_1597" data-name="Path 1597" d="M207.233,369.349c1.744-1.149,4.43-.151,6,2.23l-6.316,4.163C205.348,373.361,205.489,370.5,207.233,369.349Z" transform="translate(-203.709 -365.307)" fill="#f8f299"/>
        </g>
        <g id="Mask_Group_5" data-name="Mask Group 5" transform="translate(0 0.366)" clip-path="url(#clip-path)">
          <g id="Group_905" data-name="Group 905" transform="translate(7.982 19.832)">
            <path id="Path_1560" data-name="Path 1560" d="M125.321,444.612" transform="translate(-105.681 -342.82)" fill="none" stroke="#f3b2d0" stroke-miterlimit="10" stroke-width="0.29"/>
            <path id="Path_1561" data-name="Path 1561" d="M125.321,444.612" transform="translate(-105.681 -342.82)" fill="none" stroke="#f3b2d0" stroke-miterlimit="10" stroke-width="0.29"/>
            <g id="Group_902" data-name="Group 902" transform="translate(48.051)">
              <path id="Path_1562" data-name="Path 1562" d="M156.251,385.638a16.755,16.755,0,0,1,.476-3.191,2.158,2.158,0,0,1,.211-.9,5.159,5.159,0,0,1,.5-1.545h0a14.92,14.92,0,0,1,1.323-2.929,3.233,3.233,0,0,1,.605-1.035h0a7.916,7.916,0,0,1,1.406-2.017h0a4.587,4.587,0,0,1,.722-1.031l.81-1a1.156,1.156,0,0,1,.391-.512,9.357,9.357,0,0,1,1.041-1.321h0l.084-.1a16.959,16.959,0,0,1,1.532-1.937h0a9.551,9.551,0,0,1,1.219-1.534,5.021,5.021,0,0,1,.8-1.005,11.026,11.026,0,0,1,1.129-1.421,1.142,1.142,0,0,1,.4-.51l.029.022h0l-.029-.022a1.1,1.1,0,0,1,.4-.5,32.228,32.228,0,0,1,2.258-2.853,1.28,1.28,0,0,1,.4-.5c.637-.875,1.3-1.727,2.014-2.542a1.137,1.137,0,0,1,.41-.509,2.851,2.851,0,0,1,.184-.3q1.917-2.418,3.839-4.833,2.566-3.226,5.133-6.452h0a15.44,15.44,0,0,1,1.734-2.223,5.458,5.458,0,0,1,.906-1.119,1.223,1.223,0,0,1,.5-.609h0a7.581,7.581,0,0,1,1.222-1.524,2.4,2.4,0,0,1,.719-.915h0a6.973,6.973,0,0,1,1.115-1.423h0a3.138,3.138,0,0,1,.812-1.013,16.516,16.516,0,0,1,1.191-1.551c.232-.343.437-.283.7-.067q1.786,1.483,3.576,2.96c1.625,1.333,3.268,2.646,4.876,4a21.232,21.232,0,0,1,2.07,1.767,17.282,17.282,0,0,1,1.552,1.212c.207.153.138.291-.02.452-.911.931-1.6,2.045-2.454,3.021s-1.629,2.016-2.535,2.947h0c-.042.244-.232.37-.405.51h0a1.423,1.423,0,0,1-.51.608h0a3.084,3.084,0,0,1-.814,1.011h0a1.032,1.032,0,0,1-.406.506h0l-1.117,1.421-.093.105h0q-2.332,2.827-4.664,5.653c-.912,1.1-1.838,2.192-2.757,3.288h0a2.77,2.77,0,0,1-.19.3q-4.933,6.02-9.871,12.038a33.119,33.119,0,0,0-2.894,3.715,18.163,18.163,0,0,0-2.25,5.894,11.289,11.289,0,0,0,.573,6.718c.255.606.56,1.191.842,1.785a15.638,15.638,0,0,0,4.57,4.592,12.112,12.112,0,0,0,14.546-1.142,39.123,39.123,0,0,0,3.594-3.847c.836-.926,1.619-1.9,2.426-2.852a2,2,0,0,1,.156-.256q2.214-2.64,4.432-5.278,2.767-3.3,5.53-6.606c2.025-2.426,3.863-5,5.844-7.46a.855.855,0,0,1,.4-.5,5.235,5.235,0,0,1,1.018-1.32,3.231,3.231,0,0,1,.806-1.018.9.9,0,0,1,.407-.512h0a2.622,2.622,0,0,1,.622-.8,1.808,1.808,0,0,1,.5-.611h0a2.23,2.23,0,0,1,.18-.3c1.433-1.764,2.873-3.522,4.3-5.291.2-.25.337-.182.537-.017q2.238,1.85,4.487,3.687,2.478,2.038,4.953,4.077,1.268,1.044,2.534,2.088c.157.13.338.274.142.5-.663.76-1.251,1.588-1.985,2.285h0a5.4,5.4,0,0,1-.719.9.729.729,0,0,1-.294.323h0c-.033.244-.225.363-.4.5h0a.615.615,0,0,1-.321.4,21.92,21.92,0,0,1-1.827,2.239l-.091.1h0a.358.358,0,0,1-.219.293h0a7.752,7.752,0,0,1-.915,1.115h0a8.517,8.517,0,0,1-1.1,1.329.541.541,0,0,1-.314.4.318.318,0,0,1-.206.2q-2.438,2.975-4.879,5.948c-.664.8-1.287,1.645-2.024,2.389h0a14.787,14.787,0,0,1-1.616,1.94,1.487,1.487,0,0,1-.506.622h0a5.784,5.784,0,0,1-.816,1.013h0l-.07.088-1.152,1.425h0l-.166.2h0c-.6.766-1.191,1.536-1.862,2.241h0a12.633,12.633,0,0,1-1.408,1.718h0a1.483,1.483,0,0,1-.507.607,20.331,20.331,0,0,1-1.846,2.238,3.7,3.7,0,0,1-.695.82q-1.505,1.985-3.149,3.857a.7.7,0,0,1-.321.4l-.166.211h0a7.565,7.565,0,0,1-1.145,1.333,36.706,36.706,0,0,1-3.256,2.843,6.615,6.615,0,0,1-1.719,1.3,12.9,12.9,0,0,1-2.137,1.116.865.865,0,0,1-.5.221.114.114,0,0,1-.027-.041l0,0,.029.04a.514.514,0,0,1-.421.189,7.952,7.952,0,0,1-1.521.624h0a1.521,1.521,0,0,1-.716.282l-.117.051-.179.057a8.219,8.219,0,0,1-1.94.6,1.145,1.145,0,0,1-.695.217.854.854,0,0,1-.175.091,26.208,26.208,0,0,1-4.722.784,13.947,13.947,0,0,1-3.866-.162,1.371,1.371,0,0,1-.715-.105l-.044.009-.04-.02a2.51,2.51,0,0,1-.849-.1c-1.139-.206-2.3-.31-3.418-.618a1.4,1.4,0,0,1-.715-.173,2.57,2.57,0,0,1-1.025-.314,5.162,5.162,0,0,1-1.307-.535.189.189,0,0,1-.2-.085,17.422,17.422,0,0,1-4.084-2.1c-2.052-1.372-3.948-2.953-5.876-4.489a16.176,16.176,0,0,1-2.947-3.048,3.376,3.376,0,0,1-.6-.606,32.361,32.361,0,0,1-3.018-4.363,10.317,10.317,0,0,1-1.276-2.346h0a7.815,7.815,0,0,1-.793-2.325h0a.543.543,0,0,1-.076-.129A28.682,28.682,0,0,1,156.251,385.638Z" transform="translate(-156.151 -334.183)" fill="#f3b2d0"/>
              <path id="Path_1563" data-name="Path 1563" d="M207.225,344.718l-12.479-10.566L185.454,345.8l12.6,10.061Z" transform="translate(-158.45 -334.152)" fill="#f7f19a"/>
              <path id="Path_1564" data-name="Path 1564" d="M242.051,373.622l-12.479-10.566-9.292,11.652,12.6,10.061Z" transform="translate(-161.183 -336.42)" fill="#f7f19a"/>
            </g>
            <g id="Group_904" data-name="Group 904" transform="translate(0 44.564)">
              <path id="Path_1565" data-name="Path 1565" d="M128.407,383.593a10.251,10.251,0,0,1,.143,3.634,22.03,22.03,0,0,1-.276,3.923,3.062,3.062,0,0,1-.145.52.646.646,0,0,1-.582.5c-.3.006-.409-.241-.515-.47a3.808,3.808,0,0,0-.66-1.174,1.944,1.944,0,0,0-1.282-.689.98.98,0,0,0-1.148.894,2.511,2.511,0,0,0,.632,2.2,27.023,27.023,0,0,1,2.619,2.749c.2.3.407.593.611.889,2.391,3.475,1.077,10.352,1.084,14.261.01,6.038-.644,12.633.427,18.506.824,4.522-.336,8.716-5.158,10.669-4.141,1.678-8.87.8-13.1-.638a7.759,7.759,0,0,1-3.454-1.947,8.329,8.329,0,0,1-1.5-3.293c-1.615-5.578-3.212-11.667-1.024-17.046,1.206-2.966,3.445-5.368,5.306-7.973,2.822-3.95,3.237-8.713,4.538-13.264a32.234,32.234,0,0,1,3.842-8.59,9.455,9.455,0,0,1,6.035-4.526c.29-.066.637.079.874-.208h1.09A2.346,2.346,0,0,1,128.407,383.593Z" transform="translate(-104.008 -382.511)" fill="#f3b2d0"/>
              <path id="Path_1566" data-name="Path 1566" d="M149.065,420.855a21.524,21.524,0,0,0-2.574-.405h0l-3.8-.788h0a30.072,30.072,0,0,0-2.995-.824h0l-3.667-1.235h0a15.2,15.2,0,0,1-2.719-1.5h0a1.166,1.166,0,0,0-.236-.231,3.561,3.561,0,0,1-1.722-2.331h0l-.016-.146h0a3.733,3.733,0,0,1,.655-2.493c.831-1.028,2.083-.869,3.694-.308a12.6,12.6,0,0,0,1.931.774h0a.563.563,0,0,0,.411.157h0a40.064,40.064,0,0,0,7.573,2.539,13.075,13.075,0,0,0,2.507.557h0a1.088,1.088,0,0,0,.608.271,25.991,25.991,0,0,0,4.108.863,13.63,13.63,0,0,0,9.3-1.967c2.665-1.642,5.152-3.538,7.657-5.4,2.531-1.884,4.98-3.869,6.435-6.794.3-.594.857-.615,1.415-.161a2.514,2.514,0,0,1-.107,3.995,10.494,10.494,0,0,0-2.267,2.42,34.572,34.572,0,0,1-3.857,4.647,37.826,37.826,0,0,1-8.946,6.807,14.751,14.751,0,0,1-10.831,1.923,2.915,2.915,0,0,0-1.925-.084C149.562,420.876,149.3,420.906,149.065,420.855Z" transform="translate(-106.152 -383.971)" fill="#fff"/>
              <path id="Path_1567" data-name="Path 1567" d="M134.058,494.826h0a1.259,1.259,0,0,0,.7.513h0l1.481,1.129.284.223h0l.538.3c.006.037.011.074.016.111-.464.8-.911,1.611-1.4,2.4-.987,1.6-.2,3.016.408,4.457l0,.006a3.133,3.133,0,0,0,.119,2.521c-.177.128-.276,0-.364-.086-1.393-1.322-3-2.391-4.354-3.769-.763-.78-1.3-1.73-2.062-2.5h0a30.85,30.85,0,0,1,2.987-6.168h0C133,494.173,133.432,494.689,134.058,494.826Z" transform="translate(-106.003 -391.257)" fill="#7fcdd7"/>
              <path id="Path_1568" data-name="Path 1568" d="M172.814,502.845a.436.436,0,0,1-.018-.042.063.063,0,0,1,.019.042,37.87,37.87,0,0,0,4.638-.219h0a4.5,4.5,0,0,0,.143,1.777,7.76,7.76,0,0,0,2.585,5.2c.15.131.272.4.5.084a7.308,7.308,0,0,0,.684,2.543,4.162,4.162,0,0,1-1.56-.259c-1.569-.518-3.123-1.082-4.687-1.615-.706-.24-1.249-.819-2.007-.94h0q-.679-3.279-1.356-6.557h0Z" transform="translate(-109.324 -391.936)" fill="#7fcdd7"/>
              <path id="Path_1569" data-name="Path 1569" d="M131.441,503.16c1.351,1.378,2.961,2.447,4.354,3.769.088.084.187.214.364.086a3.133,3.133,0,0,1-.119-2.521l.007-.01c.2-.269.382-.6.791-.488a.868.868,0,0,1,.624.8,6.268,6.268,0,0,0,1.286,2.8c.619.847,1.44,1.5,2.036,2.362a1.031,1.031,0,0,1,.048,1.152.943.943,0,0,1-.907.484A2.707,2.707,0,0,1,138.3,511c-1.261-.884-2.483-1.816-3.694-2.769a49.609,49.609,0,0,1-5.243-4.612,2.625,2.625,0,0,1-.378-2.654.386.386,0,0,1,.4-.3h0C130.14,501.43,130.677,502.381,131.441,503.16Z" transform="translate(-105.953 -391.782)" fill="#f3b2d0"/>
              <path id="Path_1570" data-name="Path 1570" d="M175.211,510.906c1.564.533,3.118,1.1,4.687,1.614a4.162,4.162,0,0,0,1.56.259,7.309,7.309,0,0,1-.684-2.543c.566-.756.889-.777,1.45-.03a7.836,7.836,0,0,0,2.484,2.074c.55.313,1.078.665,1.616,1a1.6,1.6,0,0,1,.695.97c.194.691-.07,1.058-.783,1.19a3.581,3.581,0,0,1-1.145-.072c-2.139-.275-4.187-.966-6.293-1.393a17.434,17.434,0,0,1-4.8-1.647,1.759,1.759,0,0,1-.792-2.363h0C173.963,510.086,174.505,510.665,175.211,510.906Z" transform="translate(-109.421 -392.488)" fill="#f3b2d0"/>
              <path id="Path_1571" data-name="Path 1571" d="M149.463,434.829c-.022.007-.041.017-.065.023A.25.25,0,0,1,149.463,434.829Z" transform="translate(-107.57 -386.616)" fill="#f7f19a"/>
              <path id="Path_1572" data-name="Path 1572" d="M134.816,400.974c-.016-.048-.032-.1-.049-.143A.548.548,0,0,1,134.816,400.974Z" transform="translate(-106.422 -383.949)" fill="#7fcdd7"/>
              <path id="Path_1573" data-name="Path 1573" d="M126.27,393.015a27.035,27.035,0,0,1,2.619,2.749c.2.3.407.594.612.89a27.535,27.535,0,0,1,1.12,3.969h0a5.349,5.349,0,0,0,.148,1.432h0l.684-.11h0l2.313,0h0l1.351.006a8.548,8.548,0,0,1-1.02-2.321c-.016-.048-.032-.1-.049-.143h0c-.009-.133-.018-.265-.029-.4h0l-.118-.133a2.968,2.968,0,0,1-.45.664,2.968,2.968,0,0,0,.45-.664l.118.133c-.013-.28.142-.356.4-.432a3.607,3.607,0,0,0,2.516-3.319,9.832,9.832,0,0,0-1.127-4.491,14.474,14.474,0,0,0-3.623-5.668,8.665,8.665,0,0,0-2.082-1.491,10.251,10.251,0,0,1,.143,3.634,22.02,22.02,0,0,1-.276,3.923,3.061,3.061,0,0,1-.145.52.646.646,0,0,1-.581.5c-.3.007-.409-.24-.515-.47a3.807,3.807,0,0,0-.66-1.174,1.944,1.944,0,0,0-1.282-.689.98.98,0,0,0-1.148.894A2.511,2.511,0,0,0,126.27,393.015Zm7.6,6.93a.466.466,0,0,0,.187-.339A.466.466,0,0,1,133.868,399.944Zm-.817.929a.772.772,0,0,0,.084.346,1.413,1.413,0,0,0,.148.238,1.413,1.413,0,0,1-.148-.238A.772.772,0,0,1,133.05,400.873Zm-1.184.312a3.951,3.951,0,0,1,.986-1.035,4.041,4.041,0,0,0,.317-.252,4.041,4.041,0,0,1-.317.252A3.951,3.951,0,0,0,131.866,401.186Z" transform="translate(-105.702 -382.603)" fill="#fff"/>
              <path id="Path_1574" data-name="Path 1574" d="M139.727,433.425a19.022,19.022,0,0,0,2.978-.1h0a32.849,32.849,0,0,0,5.834-.489c.264-.042.535-.046.8-.067l.23-.029h0c.545-.24,1.16.027,1.7-.238l.005,0,.234.042q.353.72.7,1.442h0a5.737,5.737,0,0,1,.7,1.227h0l-.442.116a9.987,9.987,0,0,1-2.57.3h0c-.307.219-.65.095-.978.1h0l-3.535.308h0a11.513,11.513,0,0,0-2.452.405h0c-.38-.106-.712.2-1.088.123a10.72,10.72,0,0,0-2.179.288h0a6.06,6.06,0,0,0-1.91.4l-.114.1c0-.214-.006-.429-.008-.642h0c-.024-.152,0-.32-.147-.43h0c-.192-.124-.125-.327-.154-.5h0l-.8-1.84A8.734,8.734,0,0,1,139.727,433.425Z" transform="translate(-106.56 -386.434)" fill="#fff"/>
              <path id="Path_1575" data-name="Path 1575" d="M136.657,504.819l0-.006.01,0Z" transform="translate(-106.57 -392.108)" fill="#7fcdd7"/>
              <path id="Path_1576" data-name="Path 1576" d="M129.6,488.594l0,0h0c.121.026.219-.073.317-.135-.1.063-.2.161-.317.135h0a8.39,8.39,0,0,0,1.789,1.341l.932.8h0c.59.206,1.017.722,1.643.86h0a1.259,1.259,0,0,0,.7.513h0l1.481,1.129.284.223h0l.538.3c.006.037.011.074.016.111h0l.394.169h0c1.173,1,2.631,1.585,3.743,2.68a.841.841,0,0,0,1.311-.164,5.84,5.84,0,0,0,.478-.738q1.189-2.057,2.367-4.116h0a6.7,6.7,0,0,0,.826-1.349h0a76.621,76.621,0,0,0,5.442-9.862c.2-.429.39-.865.583-1.3h0a5.214,5.214,0,0,0,.648-1.377q.63-1.29,1.259-2.579h0q.474-.889.947-1.777h0c.485-.985,1.192-1.845,1.614-2.865l.157-.263a17.53,17.53,0,0,0,1.37-2.6h0a17.687,17.687,0,0,0,1.214-3.118h0c-.078-.492.149-1.069-.414-1.424q-1.577-1-3.148-2l-.274-.272a.285.285,0,0,1-.269-.138l-.4-.265-.008-.006-2.45-1.5-4.218-2.73h0a1.492,1.492,0,0,0-.819-.547l-.137-.131c-1.22-.948-2.531-1.774-3.7-2.787-.1-.086-.246-.234-.405-.053h0a15.266,15.266,0,0,0,2.69,3.111c.6.6,1.026,1.38,1.826,1.773l.136.135a1.256,1.256,0,0,0,.543.549,17.322,17.322,0,0,0,1.755,1.665l.723.775a1.25,1.25,0,0,1,.218,1.492h0l-.513.567a2.392,2.392,0,0,0-.693.647l-.938.863h0a1.562,1.562,0,0,1-.168.6,1.562,1.562,0,0,0,.168-.6h0a33.933,33.933,0,0,0-3.406,3.266h0a39.184,39.184,0,0,0-2.83,3.075c-.369.393-.681.839-1.019,1.26l-3.8,3.958h0c-1.848,1.8-3.576,3.711-5.248,5.672a26.193,26.193,0,0,0-2.357,2.515l-.171.229h0l-.521.584h0a.9.9,0,0,0-.405.407v0C127.749,486.483,127.954,487.776,129.6,488.594Zm25.77-27.278c0,.026,0,.053,0,.077a.136.136,0,0,1,0,.022.136.136,0,0,0,0-.022C155.362,461.369,155.365,461.342,155.365,461.316Zm-.017.13,0-.008h0l0,0,.007.014Zm-.179,0a.1.1,0,0,1-.109-.051.1.1,0,0,0,.109.051.128.128,0,0,1,.045.009A.128.128,0,0,0,155.17,461.445Zm-.16,1.668a.174.174,0,0,1,.1.029.183.183,0,0,1,0,.091A1.06,1.06,0,0,0,155.01,463.113Zm-9.333,25.954a3.073,3.073,0,0,0,.424,1.28h0A3.073,3.073,0,0,1,145.676,489.067ZM130,484.315h0c.053.1.105.206.157.31Z" transform="translate(-105.907 -388.017)" fill="#7fcdd7"/>
              <g id="Group_903" data-name="Group 903" transform="translate(30.784 48.768)">
                <path id="Path_1577" data-name="Path 1577" d="M157.666,462.186l.007.014-.013-.007,0-.008Z" transform="translate(-139.002 -437.531)" fill="#7fcdd7"/>
                <path id="Path_1578" data-name="Path 1578" d="M157.394,464.122a1.066,1.066,0,0,0-.1-.12.175.175,0,0,1,.1.029A.184.184,0,0,1,157.394,464.122Z" transform="translate(-138.973 -437.673)" fill="#7fcdd7"/>
                <path id="Path_1579" data-name="Path 1579" d="M137.549,438.731l.014.391c.264.664-.047,1.4.259,2.061h0l.013.259a3.261,3.261,0,0,0,.228,1.424c.012.03.019.06.032.089a5.961,5.961,0,0,0,1.008,2.785,21.838,21.838,0,0,0,2.823,3.817,2.862,2.862,0,0,0,.8.619l1.075,1.232h0c.159-.182.305-.033.405.053,1.172,1.013,2.484,1.838,3.7,2.787l.137.131a1.492,1.492,0,0,1,.819.547h0l4.218,2.73,2.45,1.5.008.006.4.265a.285.285,0,0,0,.269.138l.274.272q1.573,1,3.148,2c.563.355.335.932.414,1.424h0c.233-.269.017-.623.177-.924.4.034.623.435,1,.511.64.561,1.286,1.117,1.92,1.685a3.652,3.652,0,0,1,1.645,3.649c-.014,2.292.062,4.586-.034,6.875-.088,2.1-.287,4.2-.238,6.311a.291.291,0,0,0,0,.129h0c-.032.058-.091.116-.091.174,0,2.087-.323,4.151-.458,6.227h0l0,0c-.206.249-.112.545-.128.823a31.084,31.084,0,0,0-.394,3.129h0l-.006.141h0A7.144,7.144,0,0,0,163.44,495c0,.545-.021,1.09.015,1.633.051.769.422,1.049,1.175.912a13.526,13.526,0,0,1,2.359-.251l2.068.286h0l1.063-.012a.429.429,0,0,1-.018-.042.063.063,0,0,1,.019.042,37.857,37.857,0,0,0,4.638-.219h0l.247-.039h0a21.515,21.515,0,0,0,3.7.122h0a2.275,2.275,0,0,0,1.065-.138c1.164-.42,1.443-.919,1.148-2.121a8.733,8.733,0,0,0-.42-1.7h0c-.041-.229.045-.488-.155-.682h0a.357.357,0,0,0-.011-.125h0a2.07,2.07,0,0,0-.26-.959h0c-.006-.09-.014-.181-.02-.271l-.94-4.083c-.178-1.254-.529-2.469-.825-3.7q-1.357-5.627-2.735-11.25a2.456,2.456,0,0,0-.121-.316h0a78.292,78.292,0,0,0-2.081-8.671,14.842,14.842,0,0,0-2.188-3.564,43.482,43.482,0,0,0-4.723-5.748c-1.863-2.2-3.717-4.416-5.593-6.608-.9-1.048-1.6-2.236-2.448-3.314h0a2.9,2.9,0,0,0-.672-.981h0l-2.2-3.539a35.485,35.485,0,0,0-1.8-3.8c-.192-.317-.387-.479-.748-.427h0l-.442.116a9.99,9.99,0,0,1-2.57.3h0c-.307.219-.65.095-.978.105h0l-3.535.308h0a11.517,11.517,0,0,0-2.452.405h0c-.38-.106-.712.2-1.088.123a10.726,10.726,0,0,0-2.179.288h0a6.061,6.061,0,0,0-1.91.4l-.114.1-.168.288h0A.745.745,0,0,0,137.549,438.731Zm26.305,23.693c-.1-.221-.038-.6-.374-.58.336-.018.277.358.377.58h0Z" transform="translate(-137.413 -435.431)" fill="#7fcdd7"/>
              </g>
              <path id="Path_1580" data-name="Path 1580" d="M129.323,417.924h0c.041-.078.067-.2.13-.224.137-.053.1.095.122.16.269.887.524,1.777.8,2.66.252.8.529,1.583.794,2.374a2.045,2.045,0,0,0,.287.932c.331.627.267,1.391.692,1.984.264.488.206,1.087.54,1.55a5.778,5.778,0,0,0,.546,1.5l.1.279c.245.337.109.819.427,1.129a1.038,1.038,0,0,0,.29.628c.292.983.573,1.1,1.908.772a8.736,8.736,0,0,1,3.192-.517,19.023,19.023,0,0,0,2.978-.1h0a32.84,32.84,0,0,0,5.834-.489c.264-.041.535-.046.8-.067l.23-.029h0c.545-.24,1.16.027,1.7-.238l.006,0,.234.042c.446-.065.893-.133,1.34-.2.958-.135,1.2-.5.993-1.493a2.636,2.636,0,0,0-.541-1.092c-.7-1.625-1.784-3.031-2.608-4.586a5.212,5.212,0,0,1-.592-1.574c-.137-.263-.4-.233-.634-.284a21.517,21.517,0,0,0-2.574-.405h0l-3.8-.788h0a30.062,30.062,0,0,0-2.995-.824l-3.667-1.235h0a15.2,15.2,0,0,1-2.719-1.5h0a1.167,1.167,0,0,0-.236-.231,3.561,3.561,0,0,1-1.722-2.331l-.016-.146a3.733,3.733,0,0,1,.655-2.493c.831-1.027,2.083-.869,3.694-.308a12.606,12.606,0,0,0,1.931.774h0a.563.563,0,0,0,.411.157h0a40.064,40.064,0,0,0,7.573,2.539,13.079,13.079,0,0,0,2.507.557h0c-.741-2.719-2.913-4.21-5-5.749a28.9,28.9,0,0,0-2.741-1.606l-2.586-2.048c-.521-.532-1.048-1.058-1.56-1.6a.9.9,0,0,0-.652-.3l-1.351-.006-2.313,0-.684.11h0a34.187,34.187,0,0,1-.288,4.765,59.9,59.9,0,0,0-1.327,8.209A4.755,4.755,0,0,0,129.323,417.924Zm6.976,9.984a.555.555,0,0,0-.105-.01A.562.562,0,0,1,136.3,427.908Zm-3.756-7.664c.044.21-.025.44.138.673h0C132.518,420.684,132.587,420.453,132.543,420.243Zm7.784,10.778c.11-.134.176-.294.351-.328-.175.034-.241.194-.351.328Z" transform="translate(-105.992 -384.158)" fill="#7fcdd7"/>
            </g>
          </g>
        </g>
      </g>
    </g>
  </g>
</svg>
