<svg xmlns="http://www.w3.org/2000/svg" width="170.195" height="168.646" viewBox="0 0 170.195 168.646">
  <g id="ILL_2" data-name="ILL 2" transform="translate(-1179.349 -1117.881)">
    <g id="Group_901" data-name="Group 901" transform="translate(1181.789 1117.881)">
      <rect id="Rectangle_349" data-name="Rectangle 349" width="145.413" height="145.413" rx="72.706" transform="translate(0.06 20.733)" fill="#29246b" stroke="#7dced8" stroke-linejoin="round" stroke-width="5"/>
      <g id="Group_900" data-name="Group 900" transform="translate(0 0)">
        <g id="Group_896" data-name="Group 896" transform="translate(0 22.171)">
          <path id="Path_1535" data-name="Path 1535" d="M360.158,414.475l-28.522,25.4a19.461,19.461,0,0,1-27.4-1.586h0a19.462,19.462,0,0,1,1.586-27.4l28.522-25.4a19.461,19.461,0,0,1,27.4,1.587h0A19.461,19.461,0,0,1,360.158,414.475Z" transform="translate(-299.35 -316.167)" fill="#f3b2d0"/>
          <path id="Path_1536" data-name="Path 1536" d="M372.3,459.538h0a9.9,9.9,0,0,1-13.944-.808l-24.811-27.864a9.9,9.9,0,0,1,.807-13.943h0a9.9,9.9,0,0,1,13.944.807L373.1,445.594A9.9,9.9,0,0,1,372.3,459.538Z" transform="translate(-299.619 -316.453)" fill="#fff"/>
          <path id="Path_1537" data-name="Path 1537" d="M354.513,435.75l-6.073,11.927-6.789-7.624Z" transform="translate(-299.708 -316.634)" fill="#3c6db4"/>
          <path id="Path_1538" data-name="Path 1538" d="M367.575,443.2h0a4.872,4.872,0,0,1-6.86-.4l-11.676-13.111a4.875,4.875,0,0,1,.4-6.861h0a4.875,4.875,0,0,1,6.861.4l11.675,13.112A4.873,4.873,0,0,1,367.575,443.2Z" transform="translate(-299.76 -316.514)" fill="#f7f19a"/>
          <path id="Path_1539" data-name="Path 1539" d="M367.179,436.72h0a3.2,3.2,0,0,0,.261-4.5l-7.041-7.906a3.2,3.2,0,0,0-4.5-.261h0a3.2,3.2,0,0,0-.261,4.5l7.041,7.907A3.2,3.2,0,0,0,367.179,436.72Z" transform="translate(-299.82 -316.528)" fill="#32c2e1"/>
          <path id="Path_1540" data-name="Path 1540" d="M341.432,341.426s-11.229,33.657-37.1,55.626c-6.65,5.922-2.962,20.919,8.239,33.5s25.672,17.974,32.322,12.051c24.809-23.16,59.539-30.428,59.539-30.428l-21.876-43.943Z" transform="translate(-299.365 -315.835)" fill="#7dced8"/>
          <path id="Path_1541" data-name="Path 1541" d="M341.728,341.426a124.392,124.392,0,0,1-5.746,13.536,151.5,151.5,0,0,0,54.635,61.355,124.217,124.217,0,0,1,14.111-4.146l-21.876-43.943Z" transform="translate(-299.66 -315.835)" fill="#8ebbe4" opacity="0.3"/>
          <g id="Group_895" data-name="Group 895" transform="translate(33.4 0)">
            <path id="Path_1542" data-name="Path 1542" d="M345.875,326.509c-13.34,11.88-7.538,39.435,13.209,62.734s47.449,32.244,60.789,20.364,7.539-39.435-13.208-62.734S359.216,314.63,345.875,326.509Z" transform="translate(-333.084 -315.664)" fill="#f7f19a"/>
            <ellipse id="Ellipse_113" data-name="Ellipse 113" cx="25.043" cy="47.365" rx="25.043" ry="47.365" transform="translate(0 33.309) rotate(-41.685)" fill="#2c2763"/>
            <g id="Group_894" data-name="Group 894" transform="translate(13.563 12.94)">
              <path id="Path_1543" data-name="Path 1543" d="M362.209,328.667a15.772,15.772,0,0,0-10.355,3.714c-10.329,9.2-4.6,32.492,12.8,52.028C351.826,370.008,351.614,348,362.209,328.667Z" transform="translate(-346.715 -328.667)" fill="#212557"/>
              <path id="Path_1544" data-name="Path 1544" d="M364.8,384.885c17.4,19.536,39.873,27.917,50.2,18.719a15.773,15.773,0,0,0,4.886-9.857C399.468,402.04,377.628,399.287,364.8,384.885Z" transform="translate(-346.868 -329.143)" fill="#2c2763"/>
            </g>
            <path id="Path_1545" data-name="Path 1545" d="M349.3,359.425A77.539,77.539,0,0,0,364.673,384.6c7.48,8.4,15.9,14.73,23.886,18.5l11.048-28.311L384.8,360.345l-6.807-9.079-27.944,7.955C349.795,359.281,349.544,359.348,349.3,359.425Z" transform="translate(-333.173 -315.918)" fill="#f7f19a"/>
            <path id="Path_1546" data-name="Path 1546" d="M354.541,358l-4.492,1.279c-.255.059-.506.127-.752.2a77.538,77.538,0,0,0,15.375,25.175c7.48,8.4,15.9,14.73,23.886,18.5l1.924-4.932C359.728,392.1,355.181,366.869,354.541,358Z" transform="translate(-333.173 -315.975)" fill="#f7f19a"/>
            <path id="Path_1547" data-name="Path 1547" d="M394.541,358.2c5.926,6.655,7.879,14.59,4.36,17.725s-11.177.278-17.1-6.378-7.879-14.591-4.36-17.725S388.615,351.541,394.541,358.2Z" transform="translate(-333.396 -315.912)" fill="#f7f19a"/>
            <path id="Path_1548" data-name="Path 1548" d="M393.8,358.922c4.185,4.7,5.564,10.3,3.079,12.516s-7.893.2-12.078-4.5-5.564-10.3-3.079-12.516S389.61,354.221,393.8,358.922Z" transform="translate(-333.437 -315.938)" fill="#7eced8"/>
            <path id="Path_1549" data-name="Path 1549" d="M391.4,361.137c1.916,2.153,2.547,4.718,1.409,5.731s-3.613.09-5.529-2.061-2.547-4.718-1.41-5.731S389.48,358.985,391.4,361.137Z" transform="translate(-333.478 -315.981)" fill="#fff"/>
          </g>
        </g>
        <path id="Path_1550" data-name="Path 1550" d="M361.068,438.364h0a.766.766,0,0,1-1.079-.062l-2.1-2.352a.767.767,0,0,1,.062-1.079h0a.767.767,0,0,1,1.079.062l2.094,2.353A.765.765,0,0,1,361.068,438.364Z" transform="translate(-299.844 -294.453)" fill="#32c2e1"/>
        <path id="Path_1551" data-name="Path 1551" d="M361.754,440.534a.881.881,0,1,0,.071-1.243A.881.881,0,0,0,361.754,440.534Z" transform="translate(-299.877 -294.491)" fill="#32c2e1"/>
        <g id="Group_897" data-name="Group 897" transform="translate(6.734 81.157)">
          <path id="Path_1552" data-name="Path 1552" d="M307.851,394.384q-.845.79-1.709,1.566c0,20.816,12.188,39.45,40.538,45.523.58-.515,1.165-1.018,1.753-1.517C323.4,432.787,310.235,419.928,307.851,394.384Z" transform="translate(-306.142 -375.269)" fill="#fff"/>
          <path id="Path_1553" data-name="Path 1553" d="M324.218,375.106a124.242,124.242,0,0,1-11.155,13.949c1.863,21.511,17.059,40.923,41.155,46.216a124.4,124.4,0,0,1,15.143-9.47C342.493,419.765,327.346,399.616,324.218,375.106Z" transform="translate(-306.201 -375.106)" fill="#fff"/>
        </g>
        <g id="Group_898" data-name="Group 898" transform="translate(138.836 72.693)">
          <path id="Path_1554" data-name="Path 1554" d="M468.318,390.976h0a3.067,3.067,0,0,1-3.058,3.058H445.712a3.066,3.066,0,0,1-3.057-3.058h0a3.066,3.066,0,0,1,3.057-3.058H465.26A3.067,3.067,0,0,1,468.318,390.976Z" transform="translate(-439.399 -366.75)" fill="#8cd4e1"/>
          <path id="Path_1555" data-name="Path 1555" d="M462,368.1h0a3.067,3.067,0,0,1-1.118,4.176l-16.929,9.775a3.066,3.066,0,0,1-4.176-1.12h0a3.067,3.067,0,0,1,1.118-4.176l16.93-9.775A3.066,3.066,0,0,1,462,368.1Z" transform="translate(-439.371 -366.569)" fill="#8cd4e1"/>
          <path id="Path_1556" data-name="Path 1556" d="M462,415.081h0a3.067,3.067,0,0,0-1.118-4.176l-16.929-9.775a3.066,3.066,0,0,0-4.176,1.119h0a3.067,3.067,0,0,0,1.118,4.176l16.93,9.774A3.066,3.066,0,0,0,462,415.081Z" transform="translate(-439.371 -366.858)" fill="#8cd4e1"/>
        </g>
        <g id="Group_899" data-name="Group 899" transform="translate(93.028)">
          <path id="Path_1557" data-name="Path 1557" d="M421.278,302.462h0a3.068,3.068,0,0,1,.511,4.294L409.7,322.115a3.067,3.067,0,0,1-4.294.512h0a3.068,3.068,0,0,1-.511-4.294l12.093-15.359A3.068,3.068,0,0,1,421.278,302.462Z" transform="translate(-393.266 -293.329)" fill="#8cd4e1"/>
          <path id="Path_1558" data-name="Path 1558" d="M399.459,293.288h0a3.066,3.066,0,0,1,2.59,3.462L399.255,316.1a3.066,3.066,0,0,1-3.462,2.589h0a3.065,3.065,0,0,1-2.589-3.462L396,295.877A3.065,3.065,0,0,1,399.459,293.288Z" transform="translate(-393.172 -293.256)" fill="#8cd4e1"/>
          <path id="Path_1559" data-name="Path 1559" d="M436.31,322.406h0a3.066,3.066,0,0,0-3.974-1.7l-18.152,7.254a3.067,3.067,0,0,0-1.7,3.974h0a3.067,3.067,0,0,0,3.974,1.7l18.152-7.255A3.065,3.065,0,0,0,436.31,322.406Z" transform="translate(-393.334 -293.487)" fill="#8cd4e1"/>
        </g>
      </g>
    </g>
  </g>
</svg>
