<svg xmlns="http://www.w3.org/2000/svg" xmlns:xlink="http://www.w3.org/1999/xlink" width="150.413" height="150.413" viewBox="0 0 150.413 150.413">
  <defs>
    <clipPath id="clip-path">
      <rect id="Rectangle_344" data-name="Rectangle 344" width="129.818" height="125.881" fill="none"/>
    </clipPath>
    <clipPath id="clip-path-2">
      <path id="Path_1533" data-name="Path 1533" d="M493.735,403.785c17.323-5.549,21.847-7.506,32.587-7.131,6.986.244,15.7-6.993,20.358-15.773S561,359.928,565.655,356.527s18.975-12.352,48.333-11.457V450.628H493.735Z" transform="translate(-493.735 -345.008)" fill="none"/>
    </clipPath>
  </defs>
  <g id="ILL_3" data-name="ILL 3" transform="translate(-1517.696 -1136.114)">
    <rect id="Rectangle_429" data-name="Rectangle 429" width="145.413" height="145.413" rx="72.706" transform="translate(1520.196 1138.614)" fill="#29246b" stroke="#7dced8" stroke-linejoin="round" stroke-width="5"/>
    <g id="Group_890" data-name="Group 890" transform="translate(1525.797 1149.492)">
      <g id="Group_887" data-name="Group 887" transform="translate(4.398)">
        <g id="Group_886" data-name="Group 886" clip-path="url(#clip-path)">
          <path id="Path_1527" data-name="Path 1527" d="M532.926,405.756c6.295-3.148,12.221-6.931,18.184-10.645,16.042-9.991,31.448-20.835,45.11-33.986A105.745,105.745,0,0,0,610.815,344.1c.453-.673.815-1.409,1.218-2.117.861-.851-.16-.974-.536-1.216-1.113-.716-2.466-1.044-3.6-2.229,4.275-2.7,8.461-5.358,12.67-7.98,1.082-.674,1.245.047,1.258.946.034,2.462.1,4.923.145,7.383a8.611,8.611,0,0,0,.381,3.089l.093,1.84-.215,2.324a7.08,7.08,0,0,1-3.14-1.419c-1.741-1.229-2.9-.914-3.739.989-.176.4-.4.789-.6,1.183a137.658,137.658,0,0,1-18.8,20.973C579.493,382.83,561,394.925,541.918,406.19c-3.021,1.784-6.058,3.542-9.089,5.312-5.208,2.79-10.4,5.618-15.628,8.36-14.187,7.432-28.619,14.356-43.244,20.881q-7.265,3.242-14.521,6.507a17.617,17.617,0,0,0-4.943,2.015,2.214,2.214,0,0,1-1.685-.009,4.259,4.259,0,0,0-.826-2.14c.021-.835-1.131-1.867.414-2.445l.714-.227c2.835-1.148,5.694-2.241,8.5-3.453,18.257-7.879,36.269-16.278,53.858-25.565C521.354,412.322,527.307,409.339,532.926,405.756Z" transform="translate(-494.638 -323.548)" fill="#f7f19a"/>
          <path id="Path_1528" data-name="Path 1528" d="M622.32,343.813l-.093-1.84c2.695,0,5.389-.031,8.083.018.7.012,1.815-.471,1.766.973-.044,1.282-1.051.8-1.674.817C627.709,343.834,625.014,343.809,622.32,343.813Z" transform="translate(-494.512 -323.54)" fill="#44377c"/>
          <g id="Group_885" data-name="Group 885" transform="translate(-0.872 21.471)">
            <g id="Group_884" data-name="Group 884" clip-path="url(#clip-path-2)">
              <path id="Path_1529" data-name="Path 1529" d="M632.317,448.564c-.55,1.31-1.7.679-2.549.681q-72.022.051-144.044.029-15.618,0-31.233-.02a17.616,17.616,0,0,1,4.943-2.016c.893.046,1.786.132,2.68.133q21.766.01,43.533,0,12.678,0,25.357.008c1.111,0,1.96.076,1.945-1.565-.1-11.441-.094-22.885-.123-34.327,3.03-1.769,6.068-3.527,9.089-5.311,19.082-11.265,37.575-23.36,54.041-38.319a137.665,137.665,0,0,0,18.8-20.973q.021,10.355.043,20.708c-.038,2.825-.1,5.651-.11,8.477-.015,5.871,0,11.743,0,17.614v1.777l-.077.47.012.66a10.218,10.218,0,0,0-.136,4.251l-.085,7.248q-.173,19.031-.362,38.063c-.011,1.041.5,1.261,1.369,1.253q6.149-.062,12.3-.1c1.041.04,2.085.138,3.123.1C631.71,447.38,632.287,447.578,632.317,448.564Z" transform="translate(-493.764 -345.007)" fill="#f5b4d1"/>
              <path id="Path_1530" data-name="Path 1530" d="M602.5,342.04l9.476-.061c-.4.708-.765,1.443-1.218,2.117a105.753,105.753,0,0,1-14.595,17.021c-13.662,13.151-29.069,23.995-45.11,33.986-5.962,3.714-11.889,7.5-18.183,10.645q-.024-7.1-.048-14.2c3.67-2.208,7.329-4.428,9.625-8.241,1.847-1.186,2.811-3.076,3.891-4.875,4.734-6.9,9.234-13.97,14.809-20.255,6.239-6.582,14.032-10.424,22.613-12.919,1.449-.421,3.092-.317,4.307-1.448,3.372.337,6.519-1.12,9.862-1.239C599.409,342.515,601.061,342.885,602.5,342.04Z" transform="translate(-493.706 -345.011)" fill="#f5b4d1"/>
              <path id="Path_1531" data-name="Path 1531" d="M459.431,447.19q7.259-3.254,14.521-6.507c14.625-6.526,29.057-13.45,43.244-20.881,5.232-2.742,10.42-5.57,15.627-8.36.029,11.441.025,22.885.123,34.326.014,1.641-.835,1.567-1.945,1.565q-12.678-.023-25.357-.008-21.768,0-43.533,0C461.217,447.322,460.324,447.236,459.431,447.19Z" transform="translate(-493.76 -344.959)" fill="#7fcdd7"/>
              <path id="Path_1532" data-name="Path 1532" d="M508.12,396.778l5.307-1.2c5.191-1.3,10.659-.992,15.775-2.722,1.351-.105,2.413-1,3.676-1.344q.024,7.1.048,14.2c-5.619,3.584-11.573,6.566-17.455,9.672-17.589,9.287-35.6,17.686-53.858,25.565-2.808,1.212-5.667,2.3-8.5,3.45.15-.807.233-1.629.455-2.412,2.481-8.759,7.373-16.121,13.5-22.679,7.686-8.22,17.077-13.933,27.481-18.061" transform="translate(-493.765 -344.974)" fill="#7fcdd7"/>
            </g>
          </g>
        </g>
      </g>
      <g id="Group_888" data-name="Group 888" transform="translate(3.089 9.451)">
        <line id="Line_279" data-name="Line 279" y1="118.082" transform="translate(1.332 0)" fill="#f5b4d1"/>
        <rect id="Rectangle_345" data-name="Rectangle 345" width="2.664" height="118.082" fill="#fff"/>
      </g>
      <g id="Group_889" data-name="Group 889" transform="translate(4.398 124.548)">
        <line id="Line_280" data-name="Line 280" x2="135.111" transform="translate(0 1.332)" fill="#f5b4d1"/>
        <rect id="Rectangle_346" data-name="Rectangle 346" width="135.11" height="2.664" transform="translate(0)" fill="#fff"/>
      </g>
      <path id="Path_1534" data-name="Path 1534" d="M490.211,334.165h8.843l-4.421-7.538Z" transform="translate(-490.211 -323.551)" fill="#fff"/>
    </g>
  </g>
</svg>
