<svg xmlns="http://www.w3.org/2000/svg" width="57.935" height="49.492" viewBox="0 0 57.935 49.492">
  <g id="PANIER_" data-name="PANIER " transform="translate(0)">
    <path id="Path_11" data-name="Path 11" d="M-2743.412,959.656a12.836,12.836,0,0,1-1.614-.184,2.761,2.761,0,0,1-2.064-3.075,2.788,2.788,0,0,1,2.734-2.436c2.108-.013,4.217,0,6.3,0,0,.575-.036,1.1.006,1.623a5.329,5.329,0,0,0,4.138,4.769,5.352,5.352,0,0,0,5.781-2.428c.7-1.156,1.369-2.331,2.026-3.513a.757.757,0,0,1,.761-.46q7.2.02,14.394,0a.753.753,0,0,1,.759.46q.9,1.642,1.854,3.257a5.384,5.384,0,0,0,6.537,2.508,5.356,5.356,0,0,0,3.459-6.022,1.851,1.851,0,0,1,0-.193h2.137c1.374,0,2.748,0,4.122,0a2.782,2.782,0,0,1,2.9,2.71,2.755,2.755,0,0,1-2.774,2.9c-.776,0-.992.266-1.177.975-1.756,6.732-3.559,13.453-5.354,20.175a4.49,4.49,0,0,1-4.389,3.367q-15.255,0-30.511,0a4.525,4.525,0,0,1-4.439-3.393q-2.737-10.266-5.446-20.537C-2743.316,959.981-2743.369,959.808-2743.412,959.656Zm40.248,12.622h0q0-2.917,0-5.835a1.611,1.611,0,0,0-1.556-1.821,1.627,1.627,0,0,0-1.646,1.811q-.007,5.835,0,11.67a1.616,1.616,0,0,0,1.631,1.819,1.613,1.613,0,0,0,1.568-1.81Q-2703.161,975.2-2703.164,972.278Zm-17.844.01h0q0-2.953,0-5.906a1.6,1.6,0,0,0-1.564-1.759,1.615,1.615,0,0,0-1.638,1.76q-.008,5.906.008,11.813a2.159,2.159,0,0,0,.231.936,1.543,1.543,0,0,0,1.729.761,1.615,1.615,0,0,0,1.228-1.637C-2721,976.267-2721.008,974.278-2721.008,972.288Zm8.925,0h.007c0-1.989.01-3.977,0-5.966a1.58,1.58,0,0,0-1.625-1.7,1.588,1.588,0,0,0-1.558,1.7c-.01,1.23,0,2.46,0,3.69,0,2.747-.006,5.495,0,8.242a1.567,1.567,0,0,0,1.7,1.666,1.609,1.609,0,0,0,1.472-1.729C-2712.074,976.224-2712.084,974.256-2712.084,972.287Zm-17.842-.042c0-.84,0-1.681,0-2.522-.006-1.23.026-2.461-.039-3.688a1.506,1.506,0,0,0-1.632-1.412,1.549,1.549,0,0,0-1.505,1.557q-.019,6.089,0,12.178a1.56,1.56,0,0,0,1.858,1.549,1.66,1.66,0,0,0,1.315-1.819C-2729.918,976.141-2729.926,974.193-2729.926,972.245Z" transform="translate(2747.112 -934.595)" fill="#fff"/>
    <path id="Path_12" data-name="Path 12" d="M-2650.065,819.979a2.78,2.78,0,0,1-2.35-4.245c1.456-2.565,2.937-5.115,4.408-7.671,1.9-3.3,3.8-6.606,5.71-9.9a2.794,2.794,0,0,1,3.922-1.072,2.827,2.827,0,0,1,.893,3.973q-2.558,4.447-5.125,8.89-2.436,4.233-4.867,8.47A2.722,2.722,0,0,1-2650.065,819.979Z" transform="translate(2664.421 -796.681)" fill="#fff"/>
    <path id="Path_13" data-name="Path 13" d="M-2486.209,820.108a2.975,2.975,0,0,1-2.5-1.589q-3.194-5.568-6.4-11.128c-1.236-2.147-2.487-4.286-3.706-6.443a2.793,2.793,0,0,1,.566-3.479,2.813,2.813,0,0,1,3.57-.149,3.209,3.209,0,0,1,.794.92q5.038,8.723,10.047,17.464a2.784,2.784,0,0,1-1.249,4.122A7.319,7.319,0,0,1-2486.209,820.108Z" transform="translate(2529.699 -796.744)" fill="#fff"/>
  </g>
</svg>
