<svg xmlns="http://www.w3.org/2000/svg" x="0px" y="0px"
width="96" height="96"
viewBox="0 0 172 172"
style=" fill:#000000;"><g fill="none" fill-rule="nonzero" stroke="none" stroke-width="1" stroke-linecap="butt" stroke-linejoin="miter" stroke-miterlimit="10" stroke-dasharray="" stroke-dashoffset="0" font-family="none" font-weight="none" font-size="none" text-anchor="none" style="mix-blend-mode: normal"><path d="M0,172v-172h172v172z" fill="none"></path><g fill="#ffffff"><path d="M86,0c-31.66211,0 -57.33333,25.67122 -57.33333,57.33333c0,31.66211 25.67122,57.33333 57.33333,57.33333c31.66211,0 57.33333,-25.67122 57.33333,-57.33333c0,-31.66211 -25.67122,-57.33333 -57.33333,-57.33333zM47.70313,76.36979h76.59375c-7.05469,14.10938 -21.44401,23.96354 -38.29687,23.96354c-16.85286,0 -31.24219,-9.85417 -38.29687,-23.96354zM52.85417,124.52083c-21.33203,5.59896 -38.01692,18.92448 -45.6875,47.47917h157.66667c-7.67057,-28.55469 -24.35547,-41.88021 -45.6875,-47.47917c-9.88216,5.29101 -21.16406,8.28646 -33.14583,8.28646c-11.98177,0 -23.26367,-2.99544 -33.14583,-8.28646z"></path></g></g></svg>