<svg xmlns="http://www.w3.org/2000/svg" width="831.922" height="617.979" viewBox="0 0 831.922 617.979">
  <g id="boo_cameleon" data-name="boo cameleon" transform="translate(-204 -299.205)">
    <path id="Path_706" data-name="Path 706" d="M304.495,1308.922c78.256,44.072,114.676-22.7,224.686,55.948,0,0,71.446,61.656,209.437,20.8,105.014-31.088,186.779-95.634,212.614-130.887,31.251-42.653,49.164-95.145,43.212-146.674s-37.677-101.229-86.533-125.041c-61.3-29.878-136.992-16.3-201.9-38.4-54.075-18.413-95.23-59.511-135.555-98.133-25.478-24.4-54.434-49.711-90.581-53.083-29.527-2.756-58.5,10.056-81.887,27.263-25.718,18.919-47.724,46.085-47.834,76.833-.154,42.863,41.652,80.777,33.453,122.936-5.153,26.487-28.951,46.032-53.19,60.289s-51.069,26.035-69.467,46.636c-26.811,30.014-30.159,74.72-14.884,111.22S287.548,1294.637,304.495,1308.922Z" transform="translate(-32.979 -493.082)" fill="#f8f297"/>
    <g id="Group_325" data-name="Group 325" transform="translate(-32.979 -493.082)">
      <path id="Path_767" data-name="Path 767" d="M774.226,1101.656c13.371-5.871,23.224-20.539,34.855-29.6,20.767-16.465,39.079-28.869,55.551-50.1,9.065-11.432,26.241-40.726,2.565-45.952-20.289-4.478-41.743,20.863-54.187,31.551-10.806,8.243-20.882,10.029-14.427-6.19,4.056-8.93,14.845-17.977,21.44-26.146,10.721-13.073,28.751-41.575,26.76-59.258-2.976-25.72-28.936-17.213-41.327-3.306-13.218,14.727-18.788,33.348-27.74,51.222-3.242,7.3-9.739,21.107-17.257,24.461-15.843,9.135-10.231-7.069-6.18-15.995,9.733-21.11,27.123-38.325,36.86-59.434,8.138-16.244,17.862-38.163,16.7-56.666-.254-14.5-12.519-41.662-30.913-34.092-10.877,4.218-25.246,49.567-35.657,32.028-9.527-15.136,10.16-45.278-15.269-54.5-21.174-6.881-25.59,29.44-27.052,42.349-.7,8.066,1.221,21.724-5.387,29.089-10.792,9.045-15.169-.542-26.138-1.96-22.789-2.825-13.865,26.013-11.1,39.654,4.59,21.666,0,48.322-7.21,69.388-18.437,53.477-57.276,96.03-96.145,136.977-1.656,1.64-4.139,4.1-5.794,5.74" fill="#6ec1cd" stroke="#29246b" stroke-width="13"/>
      <path id="Path_768" data-name="Path 768" d="M727.975,1105.686c25.862-14.144,42.263-39.4,66.371-57.534,17.456-13.191,51.723-28.284,60.644-47.766" fill="none" stroke="#213888" stroke-miterlimit="10" stroke-width="9.5"/>
      <path id="Path_769" data-name="Path 769" d="M684.306,1112.889c6.483-14.609,22.283-26.16,32.175-38.412,15.661-19.6,33.859-38.443,50.388-56.449,20.656-22.91,55.259-66.995,59.762-98.483" fill="none" stroke="#29246b" stroke-linecap="round" stroke-miterlimit="10" stroke-width="9.5"/>
      <path id="Path_770" data-name="Path 770" d="M661.561,1112.481c8.558-40.417,24.719-79.356,44.3-115.938,13.878-25.208,30.336-47.236,44.228-71.643,11.464-18.724,26.212-42.337,30.057-63.342.8-2.43.744-5.652,1.527-8.885" fill="none" stroke="#29246b" stroke-linecap="round" stroke-miterlimit="10" stroke-width="9.5"/>
      <path id="Path_771" data-name="Path 771" d="M720.488,821.526c-3.787,24.227-3.324,50.795-5.414,75.794-2.078,25.81-5.836,51.649,3.019,76.459" fill="none" stroke="#29246b" stroke-linecap="round" stroke-miterlimit="10" stroke-width="9.5"/>
      <path id="Path_772" data-name="Path 772" d="M605.167,1114.27c14.9-14.756,23.8-35.85,36.131-52.977,13.975-19.572,27.08-40.74,35.948-63.445,13.708-34.869,18.015-77.626-6.108-108.616" fill="none" stroke="#29246b" stroke-linecap="round" stroke-miterlimit="10" stroke-width="9.5"/>
    </g>
    <g id="Group_323" data-name="Group 323" transform="translate(-32.979 -493.082)">
      <g id="Group_322" data-name="Group 322">
        <path id="Path_723" data-name="Path 723" d="M513.466,1125.39c-23.829-19.61-44.193-40.15-61.619-67.049-21.253-34.229-43.2-71.058-73.681-98.17a193.68,193.68,0,0,0-31.054-22.316" fill="none" stroke="#29246b" stroke-miterlimit="10" stroke-width="4.5"/>
        <path id="Path_724" data-name="Path 724" d="M366.72,952.1c-6.2,2.283-13.98.963-20.339-1.975-12.57-5.295-15.145-16.058-15.429-28.671,16.986,1.018,32.563,12.935,34.724,29.07" fill="none" stroke="#29246b" stroke-miterlimit="10" stroke-width="4.5"/>
        <path id="Path_725" data-name="Path 725" d="M379.941,962.172c5.551-10.465,1.646-22.726-1.219-33.411" fill="none" stroke="#29246b" stroke-miterlimit="10" stroke-width="4.5"/>
        <path id="Path_726" data-name="Path 726" d="M382.273,950.093c-3.1-3.5-7.153-7.057-7.893-12.121-.914-6.873,2.792-14.986,3.766-21.746,3.879,6.388,9.083,9.636,9.807,18.107.059,3.7-1.024,12.346-5.433,13.218" fill="none" stroke="#29246b" stroke-miterlimit="10" stroke-width="4.5"/>
        <path id="Path_727" data-name="Path 727" d="M346.74,975.716c8.788,5.072,20.056,6.694,29.663,9.07a67.3,67.3,0,0,0,23.8,1.046" fill="none" stroke="#29246b" stroke-miterlimit="10" stroke-width="4.5"/>
        <path id="Path_728" data-name="Path 728" d="M376.176,983.919c-1.046-6.219-9.125-12.1-14.808-13.673-9.113-2.817-18.218-.995-27.444-1.926-1.66,8.8,15.1,18.235,21.385,20.885a18,18,0,0,0,20.446-4.55" fill="none" stroke="#29246b" stroke-miterlimit="10" stroke-width="4.5"/>
        <path id="Path_729" data-name="Path 729" d="M416.162,1002.6c5.691-6.479,5.574-21.923,4.061-29.875-2.132-10.262-7.653-19.305-11.152-28.891" fill="none" stroke="#29246b" stroke-miterlimit="10" stroke-width="4.5"/>
        <path id="Path_730" data-name="Path 730" d="M440.268,957.449c-4.614,5.88-11.671,13.034-18.89,14.97" fill="none" stroke="#29246b" stroke-miterlimit="10" stroke-width="4.5"/>
        <path id="Path_731" data-name="Path 731" d="M416.534,964.741c-12.163-7.265-14.954-22.3-11.988-35.476,7.274,9.812,21.308,20.6,13.41,33.857" fill="none" stroke="#29246b" stroke-miterlimit="10" stroke-width="4.5"/>
        <path id="Path_732" data-name="Path 732" d="M427.554,968.905c-1.6-12.881,16.132-19.487,25.351-23.2-5.474,10.753-9.858,30.191-26.773,24.821" fill="none" stroke="#29246b" stroke-miterlimit="10" stroke-width="4.5"/>
        <path id="Path_733" data-name="Path 733" d="M428.532,1022.191c-7.112-4.593-17.049-4.715-25.852-6.378-10.556-2.432-22.077-6.153-33.113-6.908" fill="none" stroke="#29246b" stroke-miterlimit="10" stroke-width="4.5"/>
        <path id="Path_734" data-name="Path 734" d="M393.645,1013.283c-4.408-11.819-28.767-11.478-37.311-6.4,6.246,4.825,31.667,19.984,37.466,6.978" fill="none" stroke="#29246b" stroke-miterlimit="10" stroke-width="4.5"/>
        <path id="Path_735" data-name="Path 735" d="M415.124,1018.357c.7,7.24-3.278,12.021-7.68,17.533" fill="none" stroke="#29246b" stroke-miterlimit="10" stroke-width="4.5"/>
        <path id="Path_736" data-name="Path 736" d="M413.073,1025.717c-12.359,2.385-10.475,15.187-16.645,23.342,13.036-1.019,27.317-10.111,17.3-23.211" fill="none" stroke="#29246b" stroke-miterlimit="10" stroke-width="4.5"/>
        <path id="Path_737" data-name="Path 737" d="M437.524,1034.946c1.869-13.81,7.589-27.106,17.566-37.209" fill="none" stroke="#29246b" stroke-miterlimit="10" stroke-width="4.5"/>
        <path id="Path_738" data-name="Path 738" d="M442.964,1013.679c-.793-16.812,14.5-25.556,28.808-28.771-3.917,8.479-6.059,18.957-14.371,24.9-3.078,2.372-11.2,6.717-14.262,5.68" fill="none" stroke="#29246b" stroke-miterlimit="10" stroke-width="4.5"/>
        <path id="Path_739" data-name="Path 739" d="M438.176,1047.771c3.078-2.374,6.965-4.034,9.523-7.2" fill="none" stroke="#29246b" stroke-miterlimit="10" stroke-width="4.5"/>
        <path id="Path_740" data-name="Path 740" d="M441.076,1056.279c4.311-2.4,7.579-6.367,11.813-9.049" fill="none" stroke="#29246b" stroke-miterlimit="10" stroke-width="4.5"/>
        <path id="Path_741" data-name="Path 741" d="M447.427,1067.265c3.965-1.373,7-6.209,9.558-9.372" fill="none" stroke="#29246b" stroke-miterlimit="10" stroke-width="4.5"/>
      </g>
    </g>
    <g id="Group_321" data-name="Group 321" transform="translate(-32.979 -493.082)">
      <g id="Group_320" data-name="Group 320">
        <path id="Path_711" data-name="Path 711" d="M764.515,1074.657c8.265-44.66,55.272-70.049,87.534-96.582,41.123-33.487,61.043-87.642,59.658-139.2a23.227,23.227,0,0,1-.273-3.925" fill="none" stroke="#29246b" stroke-miterlimit="10" stroke-width="4.5"/>
        <path id="Path_712" data-name="Path 712" d="M907.893,870.506a127.714,127.714,0,0,1-7.009-27.379c-1.346-10.359,2.712-30.315,17.424-21.419,17.926,11.2.562,39.789-9.682,49.808" fill="none" stroke="#29246b" stroke-miterlimit="10" stroke-width="4.5"/>
        <path id="Path_713" data-name="Path 713" d="M885.974,935.391c-3.339-5.3-8.367-9.383-11.366-14.934s-8.019-26.643,3.72-25.382c14.072,1.633,8.692,31.825,8.473,40.744" fill="none" stroke="#29246b" stroke-miterlimit="10" stroke-width="4.5"/>
        <path id="Path_714" data-name="Path 714" d="M896.28,921.2c8.737,1.383,19.375-1.707,27.193-5.843,6.133-2.909,29.776-22.15,10.618-23.691-16.583-.835-26.679,21.446-38.73,29.687" fill="none" stroke="#29246b" stroke-miterlimit="10" stroke-width="4.5"/>
        <path id="Path_715" data-name="Path 715" d="M858.457,973.419c7.782,3.617,16.124,3.747,24.8,3.629,5.671,0,36.267-4.7,27.443-16.849-6.128-8.434-29.214,1.643-36.115,5.623-5.3,3.341-11.164,10.172-17.813,8.822" fill="none" stroke="#29246b" stroke-miterlimit="10" stroke-width="4.5"/>
        <path id="Path_716" data-name="Path 716" d="M838.4,986.959c2.7-7.632,2.95-18.638,4.583-27.037.922-5.825,8.476-30.9,19.2-23.228,8.335,5.8-6.6,28.507-10.53,34.451-4.176,5.61-9.667,10.112-13.01,16.151" fill="none" stroke="#29246b" stroke-miterlimit="10" stroke-width="4.5"/>
        <path id="Path_717" data-name="Path 717" d="M792.526,1025.96c7.078,6.2,37.671,1.49,37.342-9.607-.544-13.52-31.734,8.108-37.773,10.436" fill="none" stroke="#29246b" stroke-miterlimit="10" stroke-width="4.5"/>
        <path id="Path_718" data-name="Path 718" d="M863.609,974.832c15.3-2.354,33.5-4.243,48.012-9.114" fill="none" stroke="#29246b" stroke-miterlimit="10" stroke-width="4.5"/>
        <path id="Path_719" data-name="Path 719" d="M840.8,983.159c5.739-15.509,14.3-29.972,19.213-45.911" fill="none" stroke="#29246b" stroke-miterlimit="10" stroke-width="4.5"/>
        <path id="Path_720" data-name="Path 720" d="M898.028,921.479c5.919-5.331,15.55-7.689,22.445-11.669,7.144-3.644,13.645-8.884,19.81-13.876" fill="none" stroke="#29246b" stroke-miterlimit="10" stroke-width="4.5"/>
        <path id="Path_721" data-name="Path 721" d="M884.687,932.2c-3.092-4.967-3.732-12.231-4.65-17.751-1.162-5.857-3.826-11.652-4.651-17.751" fill="none" stroke="#29246b" stroke-miterlimit="10" stroke-width="4.5"/>
        <path id="Path_722" data-name="Path 722" d="M795.53,1025.839c10.546-2.51,21.461-7.347,31.822-8.691" fill="none" stroke="#29246b" stroke-miterlimit="10" stroke-width="4.5"/>
      </g>
    </g>
    <g id="Group_326" data-name="Group 326" transform="translate(-32.979 -493.082)">
      <g id="Group_320-2" data-name="Group 320-2">
        <path id="Path_711-2" data-name="Path 711-2" d="M750.024,1200.106c32.213-16.779,71.357.342,103.961,7.609,41.349,9.428,85.285-4.682,117.1-30.941a18.431,18.431,0,0,1,2.338-2.1" fill="none" stroke="#29246b" stroke-miterlimit="10" stroke-width="4.5"/>
        <path id="Path_712-2" data-name="Path 712-2" d="M949.267,1189.944a102.182,102.182,0,0,1,13.8-17.894c5.867-5.948,20.435-13.218,22.077.434,1.769,16.81-24.8,19.945-36.155,18.422" fill="none" stroke="#29246b" stroke-miterlimit="10" stroke-width="4.5"/>
        <path id="Path_713-2" data-name="Path 713-2" d="M897.587,1208.079c1.7-4.714,1.8-9.889,3.814-14.511s12.843-18.175,17.827-10.157c5.9,9.672-15.776,21.147-21.5,25.4" fill="none" stroke="#29246b" stroke-miterlimit="10" stroke-width="4.5"/>
        <path id="Path_714-2" data-name="Path 714-2" d="M911.6,1207.588c3.428,6.184,10.615,11.366,17.07,14.257,4.853,2.432,28.619,7.859,20.158-4.973-7.639-10.858-26.65-6.251-37.778-9.786" fill="none" stroke="#29246b" stroke-miterlimit="10" stroke-width="4.5"/>
        <path id="Path_715-2" data-name="Path 715-2" d="M860.074,1209.462c1.55,6.687,5.578,12,9.919,17.409,2.79,3.574,20.822,20.535,24.129,9,2.3-8.014-15.418-17.6-21.325-19.99-4.713-1.692-11.9-2.021-14.325-6.877" fill="none" stroke="#29246b" stroke-miterlimit="10" stroke-width="4.5"/>
        <path id="Path_716-2" data-name="Path 716-2" d="M841.668,1203.492c6.139-2.057,13.2-7.317,19.292-10.426,4.125-2.286,23.641-9.865,24.091.667.45,8.1-21.216,9.871-26.9,10.323-5.589.132-11.125-1.11-16.575-.245" fill="none" stroke="#29246b" stroke-miterlimit="10" stroke-width="4.5"/>
        <path id="Path_717-2" data-name="Path 717-2" d="M794.5,1193.782c-.419,7.511,17.609,24.474,24.44,18.8,8.248-7-20.733-16.006-25.175-18.662" fill="none" stroke="#29246b" stroke-miterlimit="10" stroke-width="4.5"/>
        <path id="Path_718-2" data-name="Path 718-2" d="M861.72,1213.4c9.011,8.48,19.172,19.021,29.379,25.767" fill="none" stroke="#29246b" stroke-miterlimit="10" stroke-width="4.5"/>
        <path id="Path_719-2" data-name="Path 719-2" d="M845.241,1203.127c12.6-4.019,25.929-5.747,38.39-10.5" fill="none" stroke="#29246b" stroke-miterlimit="10" stroke-width="4.5"/>
        <path id="Path_720-2" data-name="Path 720-2" d="M912.287,1208.83c6.273,1.106,12.5,6.013,18.4,8.4,5.814,2.707,12.313,4.224,18.5,5.652" fill="none" stroke="#29246b" stroke-miterlimit="10" stroke-width="4.5"/>
        <path id="Path_721-2" data-name="Path 721-2" d="M898.964,1205.7c1.607-4.394,5.871-8.375,8.9-11.67,3.117-3.615,5.457-8.148,8.9-11.67" fill="none" stroke="#29246b" stroke-miterlimit="10" stroke-width="4.5"/>
        <path id="Path_722-2" data-name="Path 722-2" d="M796.058,1195.617c6.771,5.409,15.2,9.906,21.145,15.774" fill="none" stroke="#29246b" stroke-miterlimit="10" stroke-width="4.5"/>
      </g>
    </g>
    <g id="Group_316" data-name="Group 316" transform="translate(-32.979 -493.082)">
      <g id="Group_314" data-name="Group 314">
        <path id="Path_700" data-name="Path 700" d="M565.456,1205.885c-15.84-28.984-32.033-58.439-55.709-81.472s-56.4-39.09-89.168-34.961c-21.272,2.682-40.527,13.405-60.258,21.789s-42.068,14.557-62.407,7.766c32.813,39.4,70.017,77.985,117.486,97.361S524.974,1237.35,565.456,1205.885Z" fill="#e390bd" stroke="#171f56" stroke-miterlimit="10" stroke-width="12"/>
        <path id="Path_701" data-name="Path 701" d="M611.774,1222.746a523.326,523.326,0,0,0-80.441-44.838,2.8,2.8,0,0,0-.909-.4q-13.374-5.952-27.057-11.16a172.181,172.181,0,0,0-39.537-51.017,2.816,2.816,0,0,0-3.921.253,2.776,2.776,0,0,0,.249,3.919l0,0a166.71,166.71,0,0,1,35.382,43.95,523.43,523.43,0,0,0-54.612-16.433,2.781,2.781,0,0,0-.274-.336,338.121,338.121,0,0,0-44.575-37.536,2.778,2.778,0,0,0-3.2,4.543,332.592,332.592,0,0,1,37.689,30.924,523.107,523.107,0,0,0-82.18-11.456,2.778,2.778,0,1,0-.325,5.546h0q25.64,1.51,50.9,5.547l-41.487,18.468a2.778,2.778,0,1,0,2.259,5.075h0l48.325-21.514a2.8,2.8,0,0,0,.623-.4,518.413,518.413,0,0,1,54.275,12.77,378.5,378.5,0,0,1-49.695,35.393,2.778,2.778,0,0,0,2.758,4.823l.087-.053a384.148,384.148,0,0,0,53.224-38.262q15.429,4.731,30.543,10.409a2.774,2.774,0,0,0,1.281.481q11.793,4.47,23.365,9.512a257.7,257.7,0,0,1-45.467,30.158,2.779,2.779,0,1,0,2.559,4.933,263.22,263.22,0,0,0,48.56-32.571,517.56,517.56,0,0,1,78.474,43.863,2.781,2.781,0,0,0,3.595-.406,2.681,2.681,0,0,0,.261-.33A2.777,2.777,0,0,0,611.774,1222.746Z" fill="#151f42"/>
      </g>
      <g id="Group_315" data-name="Group 315">
        <path id="Path_702" data-name="Path 702" d="M549.761,1179.384c-32.741,4.362-66.049,8.884-96.05,22.7s-56.752,38.574-64.678,70.639c-5.146,20.815-2.059,42.634-1.33,64.064s-1.538,44.489-15.185,61.026c48.56-16.456,97.939-37.305,133.086-74.634S564.571,1228.471,549.761,1179.384Z" fill="#e390bd" stroke="#171f56" stroke-miterlimit="10" stroke-width="12"/>
        <path id="Path_703" data-name="Path 703" d="M582.147,1142.222a523.126,523.126,0,0,0-70.757,58.946,2.756,2.756,0,0,0-.7.7q-10.367,10.344-20.143,21.237a172.211,172.211,0,0,0-61.814,18.552,2.818,2.818,0,0,0-1.174,3.749,2.779,2.779,0,0,0,3.749,1.174,166.691,166.691,0,0,1,53.734-17.218,524.165,524.165,0,0,0-34.976,45.058,2.688,2.688,0,0,0-.41.136,337.788,337.788,0,0,0-51.05,28.109,2.778,2.778,0,0,0,3.091,4.611,332.434,332.434,0,0,1,42.406-24.051,523.16,523.16,0,0,0-40.233,72.566,2.779,2.779,0,0,0,5.061,2.3q10.626-23.382,23.472-45.505l2.323,45.353a2.777,2.777,0,0,0,5.553-.123c0-.052,0-.1-.008-.157l-2.709-52.834a2.74,2.74,0,0,0-.146-.722,517.789,517.789,0,0,1,31.425-46.054,378.472,378.472,0,0,1,15.167,59.1,2.778,2.778,0,0,0,5.472-.941,384.258,384.258,0,0,0-16.571-63.422q9.96-12.7,20.692-24.759a2.78,2.78,0,0,0,.91-1.025q8.411-9.4,17.275-18.382a257.681,257.681,0,0,1,11.8,53.267,2.777,2.777,0,1,0,5.53-.523c0-.031-.006-.062-.01-.093a263.174,263.174,0,0,0-12.932-57.022,517.774,517.774,0,0,1,69.14-57.461,2.776,2.776,0,1,0-3.162-4.563Z" fill="#151f42"/>
      </g>
    </g>
    <g id="Group_318" data-name="Group 318" transform="translate(-32.979 -493.082)">
      <path id="Path_704" data-name="Path 704" d="M839.3,1002.4c5.689-15.242,13.2-33.145,28.067-35.993,10.134-1.942,20.086,4.228,30.345,3.775,10.088-.448,19.243-7.341,25.733-15.856s10.837-18.647,15.7-28.344c13.192-26.327,31.9-51.2,57.543-62.141s58.94-3.63,72.218,22.142c-14.055,4.633-23.106,20.032-26.847,35.451s-3.444,31.562-5.9,47.259-8.49,32.042-20.96,40.563c-18.17,12.415-43.723,4.325-61.356,17.64-15.19,11.475-18.4,33.816-21.979,53.432-5,27.457-13.521,54.73-28.85,77.409s-38.131,40.4-63.629,44.25c-21.552,3.255-43.419-3.5-62.364-14.648-12.137-7.145-23.853-16.774-29.168-30.633-10.765-28.071,5.624-62.212,28.811-76.253C808.01,1061.463,825.713,1038.8,839.3,1002.4Z" fill="#29246b"/>
      <path id="Path_705" data-name="Path 705" d="M846.6,1041.036c5.172-3.487,10.581-6.712,16.11-9.769a161.843,161.843,0,0,1,12.538-44.256,2.742,2.742,0,0,1,3.588-1.37,2.666,2.666,0,0,1,1.425,3.492l-.016.037a156.717,156.717,0,0,0-11.573,38.891c7.141-3.75,14.405-7.269,21.554-10.726,22.924-11.089,44.744-21.676,61.208-38.432a365.859,365.859,0,0,1,6.426-75.172,2.727,2.727,0,0,1,5.359,1.008,360.589,360.589,0,0,0-6.38,68.206c.9-1.083,1.8-2.174,2.66-3.309,5.617-7.411,10.11-15.829,14.41-24.037a2.677,2.677,0,0,1,.511-.975l.127-.244c4.162-7.949,8.467-16.17,13.809-23.674,16.576-23.284,37.276-28.562,51.122-25.746a2.688,2.688,0,0,1,2.131,3.148l0,.018a2.716,2.716,0,0,1-3.217,2.075c-11.591-2.362-30.478,2.4-45.559,23.587a154.6,154.6,0,0,0-9.959,16.495,127.084,127.084,0,0,1,49.368-10.844,2.717,2.717,0,0,1,2.777,2.635,2.687,2.687,0,0,1-2.656,2.718h-.016a121.371,121.371,0,0,0-53.692,13.479c-4.373,8.342-8.945,16.887-14.775,24.581a98.772,98.772,0,0,1-7.4,8.639,2.679,2.679,0,0,1-.806.8c-9.833,10.047-21.523,18.02-33.92,25.009a309.923,309.923,0,0,0,61.638-2.922,2.733,2.733,0,0,1,3.112,2.247,2.676,2.676,0,0,1-2.247,3.044l-.029,0a315.708,315.708,0,0,1-71.321,2.413c-6.694,3.49-13.5,6.789-20.257,10.054-8.369,4.047-16.893,8.189-25.161,12.666a2.716,2.716,0,0,1-2.362,1.279c-5.311,2.94-10.495,6.036-15.433,9.365a176.268,176.268,0,0,0-26.035,21.515l89.866.849a2.677,2.677,0,1,1-.032,5.354h0l-94.957-.9c-34.438,37.155-54.558,88.18-74.619,145.065a2.723,2.723,0,0,1-3.224,1.709,2.5,2.5,0,0,1-.243-.071,2.676,2.676,0,0,1-1.7-3.383l.009-.028C764.542,1142.477,790.448,1078.891,846.6,1041.036Z" fill="#6ec1cd"/>
    </g>
    <g id="Group_317" data-name="Group 317" transform="translate(-32.979 -493.082)">
      <path id="Path_689" data-name="Path 689" d="M721.672,1086.976s-15.225,21.862-18.809,19.622-72.722-19.622-72.722-19.622L644,1074.029l-.867-13.3,5.463-11.263-14.722-23.749S532.182,910.384,521.43,894.705s-36.734-8.064-38.974-8.96S461.4,905.008,461.4,905.008l-3.175,21.055,20.087,18.368,13.55-4.032L484.7,987.437l-6.382,29.3-14.224,20.94,2.24,11.579,9.855,27.327-9.855,25.457,5.823,13.517,15.68,12.1,3.135,20.907,16.127,22.547,13.887.9,4.48,24.191,28.544,5.639,7.295,11.832,12.544,23.743,26.782,2.688,21.152,15.116,43.9-4.365,20.607,12.544,10.592-3.136,6.879-16.128h29.119l2.082-15.679s3.742-16.127,5.086-17.471,13.356-.448,13.439-3.584,12.1-14.335,12.1-14.335l-.447-19.711,14.783,7.167s16.371-26.319,18.815-58.812c18.792-22.016,40.766-55.87,26.43-115.452s-83.772-86.46-94.523-90.045-33.758,3.136-33.758,3.136l-37.471,24.639-19.263,41.6v36.593l9.709,22.158,27.921,20.629,25.535,4.009,26.879-13.127,11.647-30.125S740.482,1067.354,721.672,1086.976Z" fill="#f8f297" stroke="#141e41" stroke-miterlimit="10" stroke-width="1"/>
      <g id="Group_312" data-name="Group 312">
        <path id="Path_690" data-name="Path 690" d="M560.575,1089.743c-5.386,0-9.877-3.286-13.7-6.082-1.427-1.042-2.775-2.027-4.137-2.853a4.223,4.223,0,0,1,4.377-7.224c1.676,1.015,3.236,2.157,4.744,3.262,5.5,4.021,8.092,5.472,11.635,3.628,2-1.044,5.236-3.873,8.363-6.61,3.736-3.267,7.6-6.643,10.943-8.456,14.4-10.151,25.721-9.678,35.713-9.27,7.873.327,14.668.608,22.749-3.967l.342-.174h0a6.092,6.092,0,0,0,2.472-3.721c.59-2.819-.759-6.5-3.9-10.641-17.742-20.76-32.184-34.719-44.93-47.035-20.554-19.865-38.3-37.021-62.2-74.313l-.389-.629c-3.213-5.189-8.589-13.879-19.078-19.661-7.347-4.047-21.517-9.8-33.9-2.9-11.229,6.259-19.918,23.219-13.865,34.89,3.693,7.118,12.878,13.234,20.153,10.631,4.683-1.676,9.377-7.256,8.8-13.351-.006-.065-.9-7.516-5.448-8.59-3-.713-7.285,1.3-9.26,5.88a4.226,4.226,0,1,1-7.763-3.342h0c3.4-7.89,11.541-12.515,18.965-10.764,8.392,1.983,11.441,11,11.918,16.015.876,9.2-5.432,18.913-14.361,22.107-11.922,4.274-25.115-4.307-30.5-14.7-8.415-16.226,2.168-37.753,17.254-46.16,15.938-8.885,33.207-2.007,42.084,2.88,12.436,6.857,18.781,17.11,22.19,22.618l.352.568c23.329,36.409,40.751,53.247,60.925,72.744,12.9,12.466,27.521,26.6,45.561,47.714l.146.181c4.974,6.518,6.789,12.631,5.39,18.166a14.308,14.308,0,0,1-6.911,9.01c-10.128,5.692-18.773,5.338-27.139,4.987-9.538-.392-18.539-.767-30.693,7.875l-.5.3c-2.509,1.3-6.249,4.577-9.549,7.462-3.662,3.2-7.122,6.231-10.02,7.743A14.606,14.606,0,0,1,560.575,1089.743Z" fill="#29246b"/>
        <path id="Path_691" data-name="Path 691" d="M530.09,1118.111a27.218,27.218,0,0,1-10.971-2.069c-3.265-1.421-11.261-5.685-14.991-14.535-5.071-12.029-.248-27.161,12-37.656a4.225,4.225,0,1,1,5.5,6.418c-9.3,7.967-13.291,19.462-9.71,27.956,2.545,6.038,8.246,9.054,10.578,10.069,7.015,3.054,18.2.311,26.352-2.528a69.305,69.305,0,0,0,20.611-10.888c5.094-3.694,9.907-7.183,19.864-9.5l.512-.087c38.948-4.139,48.641-9.8,50.952-12.8.768-1,.7-1.679.456-3.261-.052-.333-.1-.651-.134-.952a9.032,9.032,0,0,0-3.576-4.765,4.225,4.225,0,0,1,4.878-6.9,17.353,17.353,0,0,1,6.982,9.965l.1.607c.02.233.063.487.1.758a11.706,11.706,0,0,1-2.111,9.7c-3.9,5.069-13.853,11.466-56.493,16.019-8.123,1.927-11.856,4.634-16.57,8.054a77.488,77.488,0,0,1-22.792,12.026C543.266,1116.66,536.129,1118.111,530.09,1118.111Z" fill="#29246b"/>
        <path id="Path_692" data-name="Path 692" d="M681.867,1255.211l-1.732-.124c-31.1-2.221-90.514-13.308-138.944-62.583-47.671-48.5-56.16-105.917-59.784-130.433-7.4-50.051-.25-98.463,8.12-124.714a4.226,4.226,0,1,1,8.052,2.567c-8.1,25.391-15,72.292-7.812,120.912,3.5,23.7,11.709,79.2,57.451,125.745,45.6,46.4,101.448,57.525,131.792,59.947,53.241-45.769,95.079-91.108,124.377-134.782a116.476,116.476,0,0,0,15.753-32c10.926-35.537,6.914-86.963-26.68-121.742-2.089-2.162-51.723-52.737-100.652-32.676-35.4,14.513-44.817,54.828-45.774,59.378-5.991,28.474-1.663,49.786,12.86,63.34,16.224,15.141,46.425,21.5,63.82,6.41,11.8-10.237,18.634-31.035,9.985-45.677-8.191-13.866-16.636-18.176-27.383-13.954-4.12,1.616-9.276,6.923-8.24,12.687.766,4.261,4.642,7.845,9.874,9.127a4.225,4.225,0,0,1,3.1,5.109h0a4.228,4.228,0,0,1-5.11,3.1c-8.472-2.078-14.823-8.3-16.179-15.841-1.761-9.8,5.466-18.908,13.471-22.05,14.76-5.787,27.459.108,37.746,17.526,10.792,18.27,2.65,43.892-11.724,56.36-21.094,18.3-55.874,11.351-75.124-6.617-16.836-15.714-22.006-39.689-15.364-71.259,1.052-5,11.414-49.293,50.838-65.457,53.259-21.835,104.293,28.78,109.936,34.624,38.453,39.807,39.482,94.961,28.68,130.1a126.022,126.022,0,0,1-16.812,34.22c-29.966,44.671-72.769,90.976-127.222,137.629Z" fill="#29246b"/>
        <path id="Path_693" data-name="Path 693" d="M701.109,1110.886a4.225,4.225,0,0,1-2.565-7.585h0c9.818-7.484,27.454-23.384,35.252-45.772,5.235-15.03,5.125-31.209,2.31-39.421a4.225,4.225,0,0,1,7.993-2.743v0c3.185,9.291,3.815,27.318-2.324,44.944-6.319,18.14-19.853,35.793-38.11,49.709A4.207,4.207,0,0,1,701.109,1110.886Z" fill="#171f56"/>
        <path id="Path_694" data-name="Path 694" d="M720.775,1121.7a4.208,4.208,0,0,1-2.23-.639,200.085,200.085,0,0,0-99.341-30.24,4.225,4.225,0,1,1,.283-8.446,208.51,208.51,0,0,1,103.527,31.514,4.225,4.225,0,0,1,1.352,5.821h0A4.226,4.226,0,0,1,720.775,1121.7Z" fill="#171f56"/>
        <path id="Path_695" data-name="Path 695" d="M552.407,1064.958a48.22,48.22,0,1,1,48.22-48.221A48.276,48.276,0,0,1,552.407,1064.958Zm0-87.99a39.769,39.769,0,1,0,39.769,39.769A39.814,39.814,0,0,0,552.407,976.968Z" fill="#29246b"/>
        <path id="Path_696" data-name="Path 696" d="M592.564,1027.113a37.368,37.368,0,0,1-1.573,10.778,44.011,44.011,0,0,1-62.909,15.5,37.6,37.6,0,1,1,64.482-26.281Z" fill="#29246b"/>
        <path id="Path_697" data-name="Path 697" d="M687.186,1267.7c-3.555,0-8.86-1.209-14.175-6.877-6.108-6.516-14.095-8.862-38.754-2.6-20.588,5.234-26.454-3.825-30.335-9.819a15.964,15.964,0,0,0-3.5-4.369c-2.435-1.684-4.886-1.688-9.364-1.538a47.079,47.079,0,0,1-16.284-1.686c-10.87-3.243-12.287-9.478-13.928-16.7a70.692,70.692,0,0,0-3.715-12.328c-3.772-9.115-5.944-9.1-14.031-8.993a89.281,89.281,0,0,1-10.723-.36c-7.783-.806-12.12-2.5-14.5-5.657-2.81-3.731-2-8.279-1.14-13.095.165-.925.339-1.9.5-2.936.308-1.951.462-3.429.529-4.541a12.865,12.865,0,0,1-7.275.289c-6.509-1.417-15.608-7.218-21.625-19.251-5.224-10.447-5.15-14.941-4.441-20.6a29.692,29.692,0,0,0,.217-7.463c-.483-4.832-1.121-4.955-6.088-5.92a47.68,47.68,0,0,1-7.049-1.792c-2.69-.95-6.257-3.458-7.984-10.011-2.6-9.885.236-24.03,6.2-30.884,4.527-5.2,4.846-10.975-6.918-25.093-11.424-13.709.849-29.135,11.676-42.745,1.833-2.3,3.729-4.687,5.481-7.012a4.225,4.225,0,0,1,5.917-.834h0a4.227,4.227,0,0,1,.833,5.917c-1.82,2.415-3.751,4.843-5.618,7.189-11.708,14.717-18.344,24.218-11.8,32.073,9.7,11.639,17.235,24.062,6.8,36.053-4.148,4.764-6.288,16.031-4.4,23.182.6,2.291,1.559,3.819,2.624,4.194a39.475,39.475,0,0,0,5.848,1.466c5.52,1.072,11.777,2.287,12.885,13.374a38.207,38.207,0,0,1-.24,9.351c-.515,4.115-.854,6.834,3.614,15.774,5.351,10.7,12.614,13.771,14.712,14.458,2.226.728,3.446.483,3.651.377,3.638-2.938,6.416-2.406,8.093-1.437,3.882,2.249,3.889,7.7,2.7,15.2-.172,1.093-.356,2.125-.531,3.1-.479,2.689-1.023,5.739-.429,6.527.276.368,1.715,1.62,8.619,2.335a80.621,80.621,0,0,0,9.754.316c9.916-.138,16.268.506,21.939,14.212a78.994,78.994,0,0,1,4.148,13.687c1.548,6.813,1.964,8.643,8.1,10.474a38.781,38.781,0,0,0,13.587,1.34c4.729-.16,9.61-.318,14.454,3.034,2.6,1.8,4.221,4.3,5.788,6.724,3.462,5.345,6.452,9.96,21.16,6.224,25.227-6.411,37.527-5.1,47,5.005,2.636,2.811,5.318,4.249,8.064,4.2,3.678-.027,6.578-2.616,7.979-4.157a12.919,12.919,0,0,0,2.3-5c1.5-4.825,3.758-12.119,17.1-12.119a47.4,47.4,0,0,1,12.71,1.754c.555.143,1.191.306,1.695.415a27.9,27.9,0,0,0,1.005-3.725c.776-3.574,1.22-7.157,1.649-10.622,1.1-8.883,2.14-17.273,9.254-19.63l1.351-.441c6.163-2,13.833-4.49,16.676-12.2,1.27-3.449.683-6.84.165-9.831-.561-3.236-1.14-6.583,1.125-9.275,2.236-2.657,5.835-2.657,7.018-2.657a16.031,16.031,0,0,1,9.749,3.479c.206.144.447.313.669.461a23.22,23.22,0,0,0,2.756-4.013c7.183-12.314,15.137-47.856,15.216-48.213a4.226,4.226,0,1,1,8.25,1.835c-.336,1.512-8.326,37.2-16.167,50.638-2.607,4.47-5.039,7.6-8.426,8.347-3.106.684-5.432-.936-7.132-2.12-1.509-1.053-2.813-1.961-4.917-1.961h-.139c.079.628.212,1.4.323,2.035.631,3.637,1.493,8.618-.562,14.2-4.26,11.565-14.933,15.029-22,17.321l-1.3.425c-2.041.676-2.828,7.036-3.524,12.646-.431,3.483-.919,7.429-1.778,11.379-1.041,4.791-2.157,7.882-4.782,9.5-2.668,1.643-5.4.943-8.282.2a38.775,38.775,0,0,0-10.6-1.487c-7.119,0-7.68,1.807-9.033,6.172a20.366,20.366,0,0,1-4.122,8.184c-4.024,4.426-9.055,6.886-14.166,6.925Z" fill="#29246b"/>
        <path id="Path_698" data-name="Path 698" d="M659.429,1201.833a76.073,76.073,0,0,1-7.956-.417c-63.863-6.722-99.082-43.78-100.55-45.356a4.226,4.226,0,0,1,.207-5.972h0a4.223,4.223,0,0,1,5.97.207l0,0c.338.359,34.674,36.338,95.256,42.715,35.468,3.721,73.638-20.933,113.606-73.37-8.117,4.9-15.223,9.77-22.184,14.539-21.443,14.689-39.962,27.378-75.989,31.272-30.876,3.339-48.819-14.808-61.919-28.057-3-3.036-5.835-5.9-8.492-8.181a4.223,4.223,0,0,1-.459-5.955v0a4.224,4.224,0,0,1,5.954-.462l.005,0c2.921,2.5,5.874,5.491,9,8.653,12.553,12.7,28.176,28.479,55,25.6,33.914-3.667,50.774-15.216,72.121-29.841,11-7.537,23.467-16.077,39.748-24.32l15.019-7.6-9.648,13.794c-18.866,26.973-36.722,47.42-54.59,62.508C705.738,1191.685,682.2,1201.833,659.429,1201.833Z" fill="#171f56"/>
        <path id="Path_699" data-name="Path 699" d="M623.623,1104.671" fill="none" stroke="#141e41" stroke-linecap="round" stroke-miterlimit="10" stroke-width="9.633"/>
        <circle id="Ellipse_59" data-name="Ellipse 59" cx="5.485" cy="5.485" r="5.485" transform="translate(547.478 1012.568)" fill="#fff"/>
        <circle id="Ellipse_60" data-name="Ellipse 60" cx="3.545" cy="3.545" r="3.545" transform="translate(564.753 1022.17)" fill="#fff"/>
        <circle id="Ellipse_61" data-name="Ellipse 61" cx="3.545" cy="3.545" r="3.545" transform="translate(545.873 1030.587)" fill="#fff"/>
      </g>
    </g>
    <g id="Group_324" data-name="Group 324" transform="translate(-32.979 -493.082)">
      <path id="Path_742" data-name="Path 742" d="M538.657,1301.148c9.015-29.486,31.262-97.1,59.821-108.147.887,16.48-13.965,35.987-4.508,49.511,33.513-17.551,11.307-85.427,57.9-85.906,32.958-1.775,13.079,17.073,10.419,37.167-2.624,23.688,6.723,26.457,17.956,3.4,5.616-11.527,3.252-32.292,13.194-41.716,3.543-3.62,21.428-7.387,27.892-6.022,13.671,4.881,10.089,4.915,8.092,19.989-.666,5.021-23.834,52.573,5.358,32.922,16.369-11.64-.369-35.842,21.764-44.672,10.714-3.69,38.02,2.479,48.107,7.393-3.476,10.788-38.835,57.753-3.955,33.734,8.537-6.538,7.648-23.017,19.1-24.573,8.61.626,20.95,15.558,27.453,20.508,15.187,12.745,41.862,27.526,44.226,48.291,1.662,22.206-25.348,44.707-41.014,54.906-2.92-4.989-30.666-54.167-39.681-24.684-5.548,18.694,29.558,16.181,15.48,41.42-13.414,20.212-32.775,19.692-46.52,7.645-6.5-4.948-31.295-45.557-37.428-14.669-2.624,23.685,33.881,18.287,9.789,45.78-13.487,13.048-36.356,19.731-52.245,8.429-7.946-5.651-22.724-48.515-39.054-33.29-14.189,14.479,30.408,29.078.442,43.006-17.845,7.353-62.479-10.827-78.33-18.549-21.615-10.531-31.923-36.951-47.813-48.254" fill="#6ec1cd" stroke="#171f56" stroke-width="9"/>
      <path id="Path_743" data-name="Path 743" d="M888.876,1247.016c-17.032-5.592-35.225-8.151-52.8-11.5-16.2-3.08-31.973-3.927-48.16-.349-32.971,7.29-67.221,16.382-97.1,32.547a215.744,215.744,0,0,1-47.77,18.775c-15.12,4-30.405,8.491-45.731,11.579-19.075,3.839-38.43,1.476-57.79.26-.3.968-.59,1.914-.867,2.82l-3.548,3.621c15.891,11.3,26.2,37.724,47.812,48.255,15.851,7.722,60.485,25.9,78.331,18.549,29.965-13.928-14.632-28.526-.442-43.006,16.33-15.225,31.11,27.636,39.054,33.29,15.887,11.306,38.758,4.62,52.246-8.424,24.09-27.489-12.414-22.095-9.79-45.78,6.132-30.888,30.928,9.718,37.429,14.669,13.743,12.047,33.1,12.569,46.519-7.645,14.075-25.236-21.024-22.724-15.48-41.42,9.014-29.484,36.763,19.691,39.682,24.684,14.614-9.517,39.1-29.741,40.961-50.444A9.492,9.492,0,0,1,888.876,1247.016Z" fill="#171f56"/>
      <path id="Path_744" data-name="Path 744" d="M854.595,1236.79c-51.324-13.12-106.69,3.609-153.661,24.569-28.446,12.7-57.919,24.458-88.118,32.326-26.833,6.987-55.2,1.433-82.06,8.88-2.939.816-1.383,5.284,1.541,4.471,25.776-7.147,52.863-2.073,78.772-7.978,29.061-6.622,57.721-18.509,84.962-30.383,106.329-45.085,140.231-30.459,193.817-16.76,2.946.753,3.809-3.9.866-4.651Z" fill="#eea3c8"/>
      <path id="Path_745" data-name="Path 745" d="M772.88,1223.139" fill="none" stroke="#3d958c" stroke-miterlimit="10" stroke-width="0.5"/>
      <path id="Path_746" data-name="Path 746" d="M783.05,1218.1l.567.276c2.734,1.332,4.809-2.916,2.07-4.251l-.567-.276c-2.735-1.333-4.812,2.915-2.07,4.251Z" fill="#171f56"/>
      <path id="Path_758" data-name="Path 758" d="M772.373,1219.36l.567.276c2.734,1.332,4.809-2.916,2.07-4.251l-.567-.276c-2.735-1.333-4.812,2.915-2.071,4.251Z" fill="#171f56"/>
      <path id="Path_759" data-name="Path 759" d="M771.74,1208.683l.566.276c2.734,1.332,4.809-2.917,2.07-4.251l-.566-.276c-2.736-1.333-4.812,2.915-2.071,4.25Z" fill="#171f56"/>
      <path id="Path_760" data-name="Path 760" d="M700.767,1214.993l.566.276c2.734,1.332,4.809-2.916,2.07-4.25l-.566-.276c-2.736-1.333-4.812,2.915-2.071,4.25Z" fill="#171f56"/>
      <path id="Path_761" data-name="Path 761" d="M669.372,1242.016l.567.276c2.733,1.332,4.809-2.917,2.07-4.251l-.567-.276c-2.735-1.333-4.812,2.915-2.071,4.25Z" fill="#171f56"/>
      <path id="Path_762" data-name="Path 762" d="M693.868,1240.749l.566.276c2.734,1.332,4.81-2.916,2.07-4.251l-.566-.276c-2.736-1.332-4.812,2.916-2.071,4.251Z" fill="#171f56"/>
      <path id="Path_763" data-name="Path 763" d="M693.865,1233.212l.566.275c2.734,1.332,4.81-2.916,2.07-4.25l-.566-.276c-2.736-1.333-4.812,2.915-2.071,4.25Z" fill="#171f56"/>
      <path id="Path_764" data-name="Path 764" d="M612.852,1263.4l.566.276c2.734,1.332,4.809-2.916,2.07-4.251l-.566-.276c-2.736-1.333-4.812,2.915-2.071,4.251Z" fill="#171f56"/>
      <path id="Path_765" data-name="Path 765" d="M605.944,1266.539l.566.276c2.734,1.332,4.809-2.916,2.07-4.251l-.566-.276c-2.736-1.333-4.812,2.915-2.071,4.251Z" fill="#171f56"/>
      <path id="Path_766" data-name="Path 766" d="M612.855,1272.189l.567.276c2.734,1.332,4.809-2.916,2.07-4.251l-.567-.276c-2.735-1.333-4.812,2.915-2.071,4.251Z" fill="#171f56"/>
      <path id="Path_747" data-name="Path 747" d="M781.075,1225.028" fill="none" stroke="#3d958c" stroke-miterlimit="10" stroke-width="0.5"/>
      <path id="Path_748" data-name="Path 748" d="M721.344,1284.293" fill="none" stroke="#3d958c" stroke-miterlimit="10" stroke-width="0.5"/>
      <path id="Path_749" data-name="Path 749" d="M731.637,1277.559a2.794,2.794,0,0,0-3.821,1.006,2.838,2.838,0,0,0-.184.38c-1.348,2.723,2.9,4.8,4.25,2.07q.357-.66-.5.47l-1.134.389q-1.374-.36-.683-.061C732.308,1283.126,734.384,1278.878,731.637,1277.559Z" fill="#3d958c"/>
      <path id="Path_750" data-name="Path 750" d="M728.174,1290.423" fill="none" stroke="#3d958c" stroke-miterlimit="10" stroke-width="0.5"/>
      <path id="Path_751" data-name="Path 751" d="M650.715,1243.569" fill="none" stroke="#3d958c" stroke-miterlimit="10" stroke-width="0.5"/>
      <path id="Path_752" data-name="Path 752" d="M659.666,1236.708" fill="none" stroke="#3d958c" stroke-miterlimit="10" stroke-width="0.5"/>
      <path id="Path_753" data-name="Path 753" d="M660.335,1246.851" fill="none" stroke="#3d958c" stroke-miterlimit="10" stroke-width="0.5"/>
      <path id="Path_754" data-name="Path 754" d="M585.024,1271.877" fill="none" stroke="#3d958c" stroke-miterlimit="10" stroke-width="0.5"/>
      <path id="Path_755" data-name="Path 755" d="M590.9,1267.024" fill="none" stroke="#3d958c" stroke-miterlimit="10" stroke-width="0.5"/>
      <path id="Path_756" data-name="Path 756" d="M627.575,1324.168" fill="none" stroke="#3d958c" stroke-miterlimit="10" stroke-width="0.5"/>
      <path id="Path_757" data-name="Path 757" d="M634.087,1326.638" fill="none" stroke="#3d958c" stroke-miterlimit="10" stroke-width="0.5"/>
    </g>
  </g>
</svg>
