<svg xmlns="http://www.w3.org/2000/svg" width="245.524" height="233.157" viewBox="0 0 245.524 233.157">
  <g id="livraison" transform="translate(-425.5 -2767.32)">
    <g id="Group_1008" data-name="Group 1008" transform="translate(426.032 2768)">
      <g id="Group_452" data-name="Group 452" transform="translate(72.592 0)">
        <path id="Path_1014" data-name="Path 1014" d="M586.265,288.961c4.176-2.951,5.888-8.447,5.745-13.559s-1.835-10.031-3.189-14.963a116.5,116.5,0,0,1-4.114-27.878c-.1-3.818.019-7.753,1.522-11.264s4.684-6.538,8.493-6.822a5.11,5.11,0,0,1,3.4.812,6.2,6.2,0,0,1,1.731,2.26,19.079,19.079,0,0,1-.243,17.524,19.133,19.133,0,0,1,12.787-4.4c2.562.086,5.329.844,6.812,2.935,1.234,1.741,1.323,4.043,1.072,6.163-.857,7.234-5.061,13.661-9.959,19.052s-10.584,10.034-15.357,15.536a63.71,63.71,0,0,0-13.412,25.363" transform="translate(-580.123 -213.059)" fill="#eea3c8"/>
        <path id="Path_1015" data-name="Path 1015" d="M585.911,289.146c5.236-3.773,6.932-10.5,6.334-16.666a62.6,62.6,0,0,0-2.462-11.132c-1.054-3.681-1.99-7.387-2.713-11.148a112.828,112.828,0,0,1-1.588-11.294,83.73,83.73,0,0,1-.4-11.228c.15-3.241.779-6.605,2.766-9.256,1.561-2.082,4.2-3.912,6.925-3.558,1.69.219,2.427,1.567,3.083,2.988a16.68,16.68,0,0,1,1.388,4.992A17.754,17.754,0,0,1,597.3,233.3a1.435,1.435,0,0,0,2.243,1.731,17.924,17.924,0,0,1,8.359-3.771c2.571-.445,5.832-.472,8.054,1.111,2.351,1.675,2.1,4.977,1.639,7.487a27.706,27.706,0,0,1-3.2,8.562c-3.258,5.772-8.01,10.435-12.753,14.984-4.894,4.693-9.674,9.424-13.5,15.056a65.235,65.235,0,0,0-9.037,19.828,1.429,1.429,0,0,0,2.754.759,62.747,62.747,0,0,1,8.276-18.438c3.874-5.867,8.859-10.7,13.9-15.546,5.009-4.811,10-9.84,13.28-16.035a29.1,29.1,0,0,0,3.174-9.227c.489-3.256.4-6.994-2.314-9.305-2.807-2.389-6.833-2.586-10.322-2.1a20.753,20.753,0,0,0-10.327,4.614l2.243,1.731a20.554,20.554,0,0,0,2.445-10.155,18.586,18.586,0,0,0-2.877-9.959c-2.183-3.132-6.174-3.155-9.365-1.638a13.264,13.264,0,0,0-6.293,7.111c-1.42,3.518-1.565,7.409-1.481,11.154a115.6,115.6,0,0,0,.882,11.873c.5,3.982,1.186,7.94,2.084,11.852.891,3.888,2.1,7.685,3.09,11.547.967,3.78,1.693,7.779.991,11.671-.584,3.244-2.034,6.5-4.776,8.478a1.468,1.468,0,0,0-.512,1.953,1.439,1.439,0,0,0,1.953.512Z" transform="translate(-579.049 -212.012)" fill="#29246b" stroke="#29246b" stroke-width="1"/>
      </g>
      <g id="Group_453" data-name="Group 453" transform="translate(20.284 177.509)">
        <ellipse id="Ellipse_93" data-name="Ellipse 93" cx="22.965" cy="22.965" rx="22.965" ry="22.965" fill="#7dced8" stroke="#29246b" stroke-width="5"/>
        <ellipse id="Ellipse_94" data-name="Ellipse 94" cx="7.291" cy="7.291" rx="7.291" ry="7.291" transform="translate(15.673 15.673)" fill="#fff"/>
      </g>
      <g id="Group_454" data-name="Group 454" transform="translate(167.295 177.509)">
        <ellipse id="Ellipse_95" data-name="Ellipse 95" cx="22.965" cy="22.965" rx="22.965" ry="22.965" fill="#7dced8" stroke="#29246b" stroke-width="5"/>
        <ellipse id="Ellipse_96" data-name="Ellipse 96" cx="7.291" cy="7.291" rx="7.291" ry="7.291" transform="translate(15.673 15.673)" fill="#fff"/>
      </g>
      <g id="Group_455" data-name="Group 455" transform="translate(0 76.749)">
        <path id="Path_1016" data-name="Path 1016" d="M733.061,391.416l-76.528-64.462a10.58,10.58,0,0,0-6.819-2.5H548.706c-22.129,0-40.069,18.408-40.069,41.115v64.973a6.176,6.176,0,0,0,6.1,6.254H735.107a4.059,4.059,0,0,0,4.006-4.111v-28.55A16.276,16.276,0,0,0,733.061,391.416Z" transform="translate(-501.379 -317.192)" fill="#6cc5cf"/>
        <path id="Path_1017" data-name="Path 1017" d="M648.972,323.708a10.579,10.579,0,0,1,6.819,2.5l76.527,64.462a16.274,16.274,0,0,1,6.054,12.716v28.55a4.06,4.06,0,0,1-4.007,4.111H513.991a6.176,6.176,0,0,1-6.1-6.254V364.823c0-22.707,17.94-41.115,40.069-41.115H648.972m0-7.258H547.964c-26.1,0-47.327,21.7-47.327,48.373V429.8a13.448,13.448,0,0,0,13.354,13.511H734.364a11.33,11.33,0,0,0,11.265-11.369v-28.55a23.4,23.4,0,0,0-8.7-18.322L660.466,320.66a17.876,17.876,0,0,0-11.495-4.21Z" transform="translate(-500.637 -316.45)" fill="#2b2a6a"/>
      </g>
      <path id="Path_1018" data-name="Path 1018" d="M641.806,423.176a2.722,2.722,0,0,1-2.722-2.722V324.172a2.722,2.722,0,1,1,5.443,0v96.283A2.722,2.722,0,0,1,641.806,423.176Z" transform="translate(-513.48 -240.165)" fill="#2b2a6a"/>
      <g id="Group_456" data-name="Group 456" transform="translate(139.038 102.982)">
        <path id="Path_1019" data-name="Path 1019" d="M660.147,348.365h9.714a18,18,0,0,1,12.1,4.672l32.16,29.195a3.255,3.255,0,0,1-2.187,5.665H660.147a3.254,3.254,0,0,1-3.254-3.254V351.619A3.254,3.254,0,0,1,660.147,348.365Z" transform="translate(-654.17 -345.643)" fill="#fff"/>
        <path id="Path_1020" data-name="Path 1020" d="M711.654,390.34H659.869a5.984,5.984,0,0,1-5.977-5.976V351.341a5.984,5.984,0,0,1,5.977-5.976h9.714a20.687,20.687,0,0,1,13.93,5.379l32.16,29.195a5.977,5.977,0,0,1-4.018,10.4Zm-51.785-39.532a.533.533,0,0,0-.533.533v33.023a.534.534,0,0,0,.533.533h51.785a.533.533,0,0,0,.359-.927l-32.16-29.195a15.248,15.248,0,0,0-10.271-3.966Z" transform="translate(-653.892 -345.365)" fill="#2b2a6a"/>
      </g>
      <rect id="Rectangle_260" data-name="Rectangle 260" width="19.921" height="6.486" rx="3.243" transform="translate(141.761 160.214)" fill="#2b2a6a"/>
      <g id="Group_460" data-name="Group 460" transform="translate(42.363 112.32)">
        <g id="Group_459" data-name="Group 459">
          <g id="Group_457" data-name="Group 457" transform="translate(20.626 30.609)">
            <ellipse id="Ellipse_97" data-name="Ellipse 97" cx="3.76" cy="3.76" rx="3.76" ry="3.76" fill="#2b2a6a"/>
          </g>
          <g id="Group_458" data-name="Group 458">
            <path id="Path_1021" data-name="Path 1021" d="M575.4,365.955l-.035.087-.027.073a5.116,5.116,0,0,0-.247.838l0,.01c-.187.772-.321,1.805-.545,2.892-.433,2.1-1.331,10.148-1.52,13.75a1.046,1.046,0,1,1-2.091,0c0-.013,0-.026,0-.04-.443-5.446-1.477-18.146-.318-21.076a8.594,8.594,0,0,1,2.489-3.418c.126-.11.253-.22.385-.323a14.958,14.958,0,0,1,1.4-.94,15.434,15.434,0,0,1,20.727,4.759h0a11.467,11.467,0,0,1-1.2,14.079,11.475,11.475,0,0,1-2.492,2.02.012.012,0,0,0,0,.022,13.8,13.8,0,0,1,3.269,1.519,13.624,13.624,0,0,1,1.539,1.132,13.83,13.83,0,0,1,4.9,10.575,14.078,14.078,0,0,1-.123,1.856,13.8,13.8,0,0,1-8.832,10.99q-1.13.431-2.3.766-1.3.369-2.637.611a27.879,27.879,0,0,1-21.792-5.192c-.289-.227-.577-.455-.865-.684l-.047-.037q-7.218-5.745-13.95-12.052-1.546-1.445-3.065-2.923a2.355,2.355,0,0,1-.314-2.946l.012-.016.037-.056q.868-1.282,1.774-2.538,2.938-4.08,6.249-7.855a105.39,105.39,0,0,1,7.806-8.008c.026-.024.052-.05.08-.073a1.131,1.131,0,0,1,1.85.873.9.9,0,0,1-.177.535l-.828,1.115a105.011,105.011,0,0,0-9.541,14.22q-.517.924-1.015,1.861a.977.977,0,0,0,.247,1.217q.67.54,1.342,1.076,6.735,5.371,13.876,10.233l.013.01q.608.442,1.247.842l0,0a20.889,20.889,0,0,0,16.088,2.522c.165-.041.328-.084.491-.13a13.672,13.672,0,0,0,5.092-2.715c.084-.071.167-.142.249-.216a6.577,6.577,0,0,0,1.051-8.507c-.1-.144-.2-.283-.3-.418l-.011-.014a13.456,13.456,0,0,0-7.392-4.915c-.39-.1-.788-.182-1.192-.246l-.078-.013-.025,0a1.429,1.429,0,0,1-1.1-1.058,1.457,1.457,0,0,1-.041-.341,1.423,1.423,0,0,1,.548-1.123c.032-.025.065-.05.1-.072l.04-.025a15.448,15.448,0,0,0,5.56-5.722,8.806,8.806,0,0,0,.464-1.077c.025-.066.049-.132.071-.2l.013-.037c.021-.064.04-.127.058-.19s.041-.145.06-.219c.024-.092.044-.183.064-.276l.011-.053h0a6.379,6.379,0,0,0-.969-4.813,8.815,8.815,0,0,0-2.1-1.955l-.011-.006a9.9,9.9,0,0,0-8.51-1.028,5.253,5.253,0,0,0-1.36.582l-.006,0a5.346,5.346,0,0,0-2.035,2.24Z" transform="translate(-547.332 -355.658)" fill="#2b2a6a"/>
          </g>
        </g>
      </g>
      <g id="Group_461" data-name="Group 461" transform="translate(50.257 32.833)">
        <path id="Path_1022" data-name="Path 1022" d="M559.632,279.569c-1.757.57-3.61-.409-5.164-1.408q-1.783-1.148-3.5-2.393a13.831,13.831,0,0,1-3.206-2.941,5.3,5.3,0,0,1-1.062-4.108,3.992,3.992,0,0,1,7.7-.418,4.432,4.432,0,0,1,.331-4.637,5.091,5.091,0,0,1,4.259-2.017,4.237,4.237,0,0,1,2.4.791c1.476,1.114,1.812,3.208,1.624,5.048-.583,5.716-4.933,10.511-5.576,16.221" transform="translate(-545.146 -260.163)" fill="#ffef86"/>
        <path id="Path_1023" data-name="Path 1023" d="M558.242,277.128c-1.988.566-4.141-1.312-5.666-2.35-1.744-1.186-3.851-2.436-4.919-4.322-.825-1.458-.754-3.351.9-4.165a2.527,2.527,0,0,1,3.409,1.4l2.723-1.148a3.052,3.052,0,0,1,1.7-4.136c1.59-.657,3.459-.178,3.976,1.57.555,1.877-.008,3.963-.629,5.751-.685,1.976-1.658,3.834-2.525,5.733a24.462,24.462,0,0,0-2.256,7.239,1.5,1.5,0,0,0,1.49,1.49,1.527,1.527,0,0,0,1.49-1.49c.622-5.113,4.21-9.32,5.282-14.319.535-2.494.582-5.371-1.164-7.424-1.844-2.169-5.243-2.257-7.589-.908a6.032,6.032,0,0,0-2.346,8c.767,1.476,3.3.455,2.724-1.148a5.7,5.7,0,0,0-4.927-3.825,5.543,5.543,0,0,0-5.187,3.007,6.434,6.434,0,0,0,.906,6.7,22.576,22.576,0,0,0,5.672,4.729c2.263,1.529,4.863,3.306,7.728,2.491a1.491,1.491,0,0,0-.793-2.873Z" transform="translate(-544.151 -259.16)" fill="#2b2a6a"/>
      </g>
      <g id="Group_462" data-name="Group 462" transform="translate(100.08 45.09)">
        <path id="Path_1024" data-name="Path 1024" d="M632.433,304.651c3.431-1.331,4.561-5.546,5.122-9.183s1.376-7.835,4.629-9.555a10.184,10.184,0,0,1,2.8-.878,3.692,3.692,0,0,1,2.608.152,2.685,2.685,0,0,1,1.016,1.243,4.545,4.545,0,0,1-.84,4.868,2.908,2.908,0,0,1,4.089-.935,4.053,4.053,0,0,1,1.5,4.209,6.849,6.849,0,0,1-2.659,3.817c-2.829,2.171-6.513,2.766-9.973,3.627A56.312,56.312,0,0,0,629,306.362" transform="translate(-627.082 -282.989)" fill="#eea3c8"/>
        <path id="Path_1025" data-name="Path 1025" d="M632.327,305.88a9.722,9.722,0,0,0,5.408-6.136c.881-2.445,1.031-5.043,1.632-7.555.515-2.156,1.365-4.564,3.607-5.434.687-.267,2.782-1.11,3.26-.212a2.6,2.6,0,0,1-.423,2.814l2.979,2.3a1,1,0,0,1,1.493-.253,2.264,2.264,0,0,1,.557,2.353c-.647,2.421-3.558,3.72-5.711,4.416-2.8.906-5.724,1.389-8.54,2.257a60.3,60.3,0,0,0-9.156,3.7c-2.185,1.092-.265,4.366,1.915,3.276a54.344,54.344,0,0,1,8.583-3.418c2.808-.848,5.726-1.314,8.506-2.254a13.521,13.521,0,0,0,7.042-4.795,6.478,6.478,0,0,0-.219-7.906,4.853,4.853,0,0,0-7.745.712c-1,1.823,1.5,3.962,2.979,2.3a6.419,6.419,0,0,0,.72-7.869c-1.948-2.728-6.041-1.845-8.6-.493-4.745,2.509-4.867,8.313-5.914,12.886-.463,2.021-1.266,4.784-3.383,5.66a1.959,1.959,0,0,0-1.325,2.333,1.908,1.908,0,0,0,2.333,1.325Z" transform="translate(-626.471 -282.389)" fill="#2b2a6a"/>
      </g>
      <g id="Group_463" data-name="Group 463" transform="translate(17.162 29.867)">
        <path id="Path_1026" data-name="Path 1026" d="M535.182,299.969c-7.526-2.332-15.045-4.935-21.788-9.011s-12.724-9.76-15.97-16.939c-.99-2.189-1.681-4.864-.4-6.9,1.512-2.4,5.148-2.584,7.6-1.156s3.985,3.977,5.418,6.42a13.883,13.883,0,0,1,3.236-10.711,5.642,5.642,0,0,1,3.94-2.257c2.3-.035,4.012,2.123,4.9,4.241,1.977,4.721,1.737,10.025,1.77,15.142a128.767,128.767,0,0,0,1.817,20.755c.234,1.372.863,3.078,2.255,3.094" transform="translate(-494.528 -257.606)" fill="#eea3c8"/>
        <path id="Path_1027" data-name="Path 1027" d="M535,297.537c-9.086-2.819-18.34-6.046-25.937-11.954a37.265,37.265,0,0,1-8.534-9.129c-1.378-2.143-5.256-8.239-1.57-9.934a4.858,4.858,0,0,1,4.669.723c1.862,1.332,3.038,3.456,4.173,5.386.85,1.446,3.613.956,3.393-.919a12.069,12.069,0,0,1,3.274-10.031c1.05-1.019,2.343-1.546,3.577-.516a8.9,8.9,0,0,1,2.434,4.606c1.112,4.071.887,8.355.919,12.534a129.027,129.027,0,0,0,.864,13.93c.289,2.48.55,5.02,1.081,7.463.453,2.084,1.67,3.927,3.947,4.1a1.838,1.838,0,0,0,1.821-1.821,1.857,1.857,0,0,0-1.821-1.821c.267.02.125.075.069-.043a5.078,5.078,0,0,1-.364-.822,24.905,24.905,0,0,1-.595-3.335c-.361-2.4-.642-4.818-.857-7.238-.42-4.733-.475-9.457-.514-14.2-.036-4.491-.268-9.389-2.476-13.42a8,8,0,0,0-4.262-3.9,6.21,6.21,0,0,0-5.985,1.533c-3.6,3.061-5.292,8.38-4.755,12.984l3.394-.919c-2.35-4-5.558-8.529-10.787-8.209a6.52,6.52,0,0,0-5.581,3.318c-1.26,2.528-.682,5.341.376,7.827,3.966,9.313,12.362,16.107,21.225,20.524a118.5,118.5,0,0,0,17.853,6.8c2.244.7,3.2-2.819.968-3.513Z" transform="translate(-493.858 -256.93)" fill="#2b2a6a"/>
      </g>
      <ellipse id="Ellipse_98" data-name="Ellipse 98" cx="7.991" cy="7.991" rx="7.991" ry="7.991" transform="translate(148.671 115.818)" fill="#2b2a6a"/>
      <path id="Path_1028" data-name="Path 1028" d="M686.7,390.415a14.9,14.9,0,0,0-29.8,0" transform="translate(-515.132 -245.18)" fill="#2b2a6a"/>
    </g>
    <path id="Path_1640" data-name="Path 1640" d="M0,0H245.524" transform="translate(425.5 2995.478)" fill="none" stroke="#29246b" stroke-width="10" stroke-dasharray="20 8"/>
  </g>
</svg>
