<svg xmlns="http://www.w3.org/2000/svg" width="225.957" height="172.62" viewBox="0 0 225.957 172.62">
  <g id="give_gift_" data-name="give gift " transform="translate(-856 -3576)">
    <g id="Group_981" data-name="Group 981" transform="translate(858 3578)">
      <g id="Group_491" data-name="Group 491" transform="translate(0 33.422)">
        <g id="Group_490" data-name="Group 490">
          <g id="Group_487" data-name="Group 487" transform="translate(0 103.83)">
            <path id="Path_1078" data-name="Path 1078" d="M75.233,333.563l-1.287,1.261s4.339,19.092,12.83,17.027Z" transform="translate(-73.946 -320.847)" fill="#7dced8" stroke="#29246b" stroke-linecap="round" stroke-linejoin="round" stroke-width="4"/>
            <path id="Path_1079" data-name="Path 1079" d="M90.066,331.542,100.31,328.1q-2.4-4.18-4.805-8.365c-3.217,2.044-18.44,9.784-20.159,12.714,2.037,6.914,3.257,14.3,11.543,18.288C85.658,343.072,84.782,336.62,90.066,331.542Z" transform="translate(-74.059 -319.731)" fill="#7dced8" stroke="#29246b" stroke-linecap="round" stroke-linejoin="round" stroke-width="4"/>
          </g>
          <g id="Group_488" data-name="Group 488" transform="translate(89.122 97.498)">
            <path id="Path_1080" data-name="Path 1080" d="M187.131,338.59l1.408,1.171s18.832-6.359,15.867-14.723Z" transform="translate(-172.204 -313.827)" fill="#7dced8" stroke="#29246b" stroke-linecap="round" stroke-linejoin="round" stroke-width="4"/>
            <path id="Path_1081" data-name="Path 1081" d="M183.383,322.833l-4.54-9.99q-3.973,2.856-7.95,5.72c2.4,3.04,11.791,17.61,14.928,19.043,6.772-2.773,14.106-4.771,17.275-13.552C195.484,326.092,189.059,327.643,183.383,322.833Z" transform="translate(-170.893 -312.843)" fill="#7dced8" stroke="#29246b" stroke-linecap="round" stroke-linejoin="round" stroke-width="4"/>
          </g>
          <path id="Path_1082" data-name="Path 1082" d="M109.242,243.768s7.862,41.24-1.867,45.355c0,0,22.046,12.318,38.532,6.912s16.793-17.2,16.793-17.2l-17.16-43.119Z" transform="translate(-76.644 -209.12)" fill="#e390bc" stroke="#29246b" stroke-linecap="round" stroke-linejoin="round" stroke-width="4"/>
          <g id="Group_489" data-name="Group 489" transform="translate(11.646 0.049)">
            <path id="Path_1083" data-name="Path 1083" d="M112.175,206.854c3.946-.336,10.82,4.216,13,8.085,5.516,9.868,2.471,19.891-2.2,31.909-3.956,10.173-6.165,15.095-11.461,17.8-6.816,3.482-16.352,2.482-21.258-3.109-4.116-4.688-4.372-11.434-2.615-17.244s5.242-11.02,8.093-16.449c4.5-8.562,4.778-12.211,9.3-15.131C107.514,211.112,109.057,207.136,112.175,206.854Z" transform="translate(-86.615 -206.837)" fill="#29246b" stroke="#29246b" stroke-linecap="round" stroke-linejoin="round" stroke-width="3.283"/>
          </g>
          <path id="Path_1084" data-name="Path 1084" d="M169.928,319.334a14.1,14.1,0,0,0,5.24-4.441,13.943,13.943,0,0,0,2.079-4.378c-2.581-3.739-4.31-8-7.5-11.373-7.69-8.148-16.271-15.306-24.745-22.572a55.588,55.588,0,0,1-8.392,2.624c.86.724.612,2.045-.4,4.576-.8,2.012-2.614,3.921-.96,6.324,2.164,1.627,4.36,3.212,6.486,4.888,6.934,5.467,15.708,8.733,21.009,16.067A67.662,67.662,0,0,0,169.928,319.334Z" transform="translate(-78.84 -212.417)" fill="#7dced8" stroke="#29246b" stroke-linecap="round" stroke-linejoin="round" stroke-width="4"/>
          <path id="Path_1085" data-name="Path 1085" d="M135.382,278.334c-.556-.783-1.735-1.122-3.619-1.141-4.147-.039-8.3-.026-12.442-.035a25.706,25.706,0,0,0-1.8,3.373c-2.889,8.042-5.791,16.08-8.508,24.182-1.338,3.992-3.195,7.137-7.647,8.316a17.747,17.747,0,0,0-5.085,2.566,55.965,55.965,0,0,0,5.413,9.928c3.236-1.332,6.5-2.6,9.846-3.658,3.265-1.03,4.9-3.447,6.335-4.71,10.26-9,10.306-16.66,17.346-34.914C135.516,281.489,136.26,279.57,135.382,278.334Z" transform="translate(-75.749 -212.465)" fill="#7dced8" stroke="#29246b" stroke-linecap="round" stroke-linejoin="round" stroke-width="4"/>
          <path id="Path_1086" data-name="Path 1086" d="M146.423,273.913c-.141-1.4-4.531-1.111-6.113-4.3a6.728,6.728,0,0,1-.285-4.172c.889-7.241,1.346-14.509-.176-21.744.407-5.132-2.822-9.056-7.248-8.808l-2.24.162c-2.579,2.281-5.853.727-8.693,1.571l-.891.336a3.852,3.852,0,0,0,.066,2.075c.947,4.978.735,5.359-3.89,7.191a2.138,2.138,0,0,0-1.274,1.023,21.231,21.231,0,0,0,.412,2.474c2.261,7.875,4.244,15.8,4.791,24.021a22.076,22.076,0,0,0,12.582,4.837C140.189,278.847,146.6,275.652,146.423,273.913Z" transform="translate(-77.315 -209.052)" fill="#fff" stroke="#29246b" stroke-linecap="round" stroke-linejoin="round" stroke-width="4"/>
          <path id="Path_1087" data-name="Path 1087" d="M130.977,234.18c-.932,3.434-4.291,4.106-8.693,1.737-.092-3.407-1.25-5.935-4.254-7.462a11.322,11.322,0,0,1-4.484-4.994c-1.444-2.693-1.833-5.431.084-7.884,2.206-2.824,4.905-4.964,8.587-3.823,4.46,1.388,9.3,8.046,9.469,12.953a3.1,3.1,0,0,1-.705,2.135C128.125,229.348,129.348,231.741,130.977,234.18Z" transform="translate(-77.044 -207.16)" fill="#f9c9ae" stroke="#29246b" stroke-linecap="round" stroke-linejoin="round" stroke-width="4"/>
          <path id="Path_1089" data-name="Path 1089" d="M162.521,238.826c1.089-3.362-.305-5.762-2.974-7.665,2.107-2.627,5.131-4.02,7.874-5.77,3.251-2.073,6.542-4.023,8.533-7.551a8.158,8.158,0,0,1,2.443-2.32,4.138,4.138,0,0,1,4.67.336c1.236,1.419-.361,2.917-1.784,3.643-6.733,3.443-8.653,11.16-14.112,15.754C165.665,236.515,164.392,238.038,162.521,238.826Z" transform="translate(-80.856 -207.444)" fill="#f9c9ae" stroke="#29246b" stroke-linecap="round" stroke-linejoin="round" stroke-width="4"/>
          <path id="Path_1091" data-name="Path 1091" d="M142.052,246.675c.747-3.875,2.445-7.827-.923-11.369a61.529,61.529,0,0,0,8.433-2.086,64.809,64.809,0,0,0,24.905-15.13l4.185,5.533A66,66,0,0,1,151.869,243.7,61.91,61.91,0,0,1,142.052,246.675Z" transform="translate(-79.369 -207.697)" fill="#e390bc" stroke="#29246b" stroke-linecap="round" stroke-linejoin="round" stroke-width="4"/>
          <path id="Path_1092" data-name="Path 1092" d="M120.434,237.148s24.218,43.226-6.94,54.86l-2.13-53.928Z" transform="translate(-76.966 -209.235)" fill="#e390bc" stroke="#29246b" stroke-linecap="round" stroke-linejoin="round" stroke-width="4"/>
          <path id="Path_1093" data-name="Path 1093" d="M121.338,211.379s3.947,11.458-8.671,11.707c-1.737.034-10.3-2.475-10.995-3.814-1.563-3.013,5.355-12.387,10.995-12.274C116.968,205.807,120.357,209.927,121.338,211.379Z" transform="translate(-76.166 -206.784)" fill="#29246b" stroke="#29246b" stroke-linecap="round" stroke-linejoin="round" stroke-width="3"/>
        </g>
      </g>
      <g id="Group_970" data-name="Group 970" transform="translate(152.204 5.221)">
        <path id="Path_1623" data-name="Path 1623" d="M304.736,347.616l-3.8,4.188,1.347,2,7.679-2.739-.53-4.058Z" transform="translate(-244.473 -189.901)" fill="#7dced8" stroke="#29246b" stroke-linejoin="round" stroke-width="3"/>
        <path id="Path_1630" data-name="Path 1630" d="M261.112,346.929l-4.6,2.72.586,2.044,7.886-.785.427-3.468Z" transform="translate(-240.887 -189.895)" fill="#7dced8" stroke="#29246b" stroke-linejoin="round" stroke-width="3"/>
        <g id="Group_988" data-name="Group 988">
          <path id="Path_1621" data-name="Path 1621" d="M290.655,203.159c-.282-.061-5.662,1.287-5.662,1.287l-13.9,10.535H252.044l-.9,5.38,23.087,4.482Z" transform="translate(-240.454 -178.29)" fill="#7dced8" stroke="#29246b" stroke-linecap="round" stroke-linejoin="round" stroke-width="3"/>
          <g id="Group_968" data-name="Group 968" transform="translate(18.058 76.694)">
            <path id="Path_1622" data-name="Path 1622" d="M262.866,260.607l-3.707,34.381,2.218,45,4.987.48,7.087-40.641,10.761-40.288Z" transform="translate(-259.159 -259.535)" fill="#f8f297" stroke="#29246b" stroke-linecap="round" stroke-linejoin="round" stroke-width="3"/>
          </g>
          <path id="Path_1624" data-name="Path 1624" d="M285.112,276.933,293,309.694l9.009,32.5,6.64-1.19-4.727-34.323-.136-32.388-10.02-3.168Z" transform="translate(-243.196 -183.777)" fill="#f8f297" stroke="#29246b" stroke-linecap="round" stroke-linejoin="round" stroke-width="3"/>
          <path id="Path_1625" data-name="Path 1625" d="M292.262,202.672s-9.412,3.309-18.892,19.321c-9.652,16.308-14.746,39.815-14.746,39.815s43.942,19.311,44.916,11.427c0,0,17.047-61.367-2.942-68C299.7,204.928,292.859,202.409,292.262,202.672Z" transform="translate(-241.057 -178.249)" fill="#7dced8" stroke="#29246b" stroke-linecap="round" stroke-linejoin="round" stroke-width="3"/>
          <path id="Path_1626" data-name="Path 1626" d="M295.185,203.159c-5.586,7.571-11.064,16.658-16.731,24.167-3.36,4.449-4.688,9.644-6.325,14.872l-4.872,15.592-2.06,6.588,18.677,6.839c.5-6.666.838-13.343,1.463-20,.576-6.138.849-13.123,3.434-18.807,1.258-2.767,2.559-5.521,3.832-8.283,2.335-5.068,4.149-10.4,6.527-15.444a27.478,27.478,0,0,0,.519-3.97Z" transform="translate(-241.588 -178.29)" fill="#e0f3f8" stroke="#29246b" stroke-linecap="round" stroke-linejoin="round" stroke-width="3"/>
          <g id="Group_969" data-name="Group 969" transform="translate(42.685)">
            <path id="Path_1627" data-name="Path 1627" d="M297.044,202.954l4.623.755a23.3,23.3,0,0,0,.715-3.662c1.369-.107,2.99-.381,3.558-1.63a3.873,3.873,0,0,0,.258-1.264q.24-2.672.479-5.342a4.728,4.728,0,0,0-.077-1.839,3.963,3.963,0,0,0-2.3-2.167,9.652,9.652,0,0,0-8.042-.174,4.232,4.232,0,0,0-1.725,1.342,5.735,5.735,0,0,0-.677,3.285q-.007,1.572-.012,3.146c0,1.206.081,2.6,1.054,3.309.517.379,1.215.495,1.648.965C297.313,200.506,296.823,201.845,297.044,202.954Z" transform="translate(-286.585 -176.973)" fill="#f1b58f" stroke="#29246b" stroke-width="3"/>
            <path id="Path_1628" data-name="Path 1628" d="M291.5,189.736l2.243,6.178.071-5.407Z" transform="translate(-286.397 -177.207)" fill="#0b142b" stroke="#29246b" stroke-width="3"/>
            <path id="Path_1629" data-name="Path 1629" d="M286.243,181.175a14.982,14.982,0,0,1,1.273-3.316c.885-1.724,3.262-1.973,5.165-1.607,4.109.79,8.489-.006,12.055,2.451,2.038,1.4,5.012,2.4,6.748,4.079A6.228,6.228,0,0,1,313,185.364a9.376,9.376,0,0,1-2.531,9.592,13.291,13.291,0,0,1-1.885,1.4c-1.37.87-3.021,1.953-4.6,1.991.314-1.317,2.605-5.123,1.886-6.463-1.14-2.126-4.9-2.494-6.991-2.6-2.279-.119-4.608.9-6.834.653a8.343,8.343,0,0,1-4.46-2.6A6.331,6.331,0,0,1,286.243,181.175Z" transform="translate(-285.948 -176.107)" fill="#29246b" stroke="#29246b" stroke-width="3"/>
          </g>
          <path id="Path_1631" data-name="Path 1631" stroke="#29246b" d="M247.979,249.744l21.052-.083,1.621-10.112-21.323,5.491Z" fill="#6bc5cf" transform="translate(-240.198 -181.228)" stroke-linecap="round" stroke-linejoin="round" stroke-width="3" opacity="0.1"/>
          <path id="Path_1632" data-name="Path 1632" d="M303.806,207.482s-4.112,1.429-4.413,2.171S285.2,232.138,285.2,232.138l-28.694,6.9,1.349,6.546,26.449-2.914L293.94,242l15.466-22.415-.514-7.885Z" transform="translate(-240.886 -178.639)" fill="#7dced8" stroke="#29246b" stroke-linecap="round" stroke-linejoin="round" stroke-width="3"/>
          <path id="Path_1633" data-name="Path 1633" d="M255.871,243.324H249.82l-4.035,4.035,2.017,2.69,9.076-2.123Z" transform="translate(-240.021 -181.532)" fill="#f1b58f" stroke="#29246b" stroke-linecap="round" stroke-linejoin="round" stroke-width="3"/>
          <path id="Path_1635" data-name="Path 1635" d="M250.373,216.139l-5.687-2.07-5.171,2.412.975,3.217,9.254,1.11Z" transform="translate(-239.515 -179.171)" fill="#f1b58f" stroke="#29246b" stroke-linecap="round" stroke-linejoin="round" stroke-width="3"/>
        </g>
      </g>
      <g id="Group_486" data-name="Group 486" transform="translate(71.924 0)">
        <g id="Group_483" data-name="Group 483" transform="translate(17.99)">
          <g id="Group_481" data-name="Group 481" transform="translate(0 3.698)">
            <path id="Path_1072" data-name="Path 1072" d="M171.872,188.694a6.211,6.211,0,0,0,2.254,3.6c6.952,6.477,21.16,12.043,28.58,5.226-1,.017-3.514.556-5.577.536-4.9-.05-8.955-4.216-12.361-8.007-2.088-2.324-3.989-9.791-7.219-10.2C174.465,179.452,171.532,185.789,171.872,188.694Z" transform="translate(-171.762 -174.884)" fill="#8abec1" stroke="#29246b" stroke-linecap="round" stroke-linejoin="round" stroke-width="4"/>
            <path id="Path_1073" data-name="Path 1073" d="M199.3,187.127a41.729,41.729,0,0,0-9.2-9.031c-3.472-2.612-7.807-4.242-11.958-3.441a3.126,3.126,0,0,0-1.394.552,3.964,3.964,0,0,0-.976,1.471c-1.4,3-4.394,7.241-3.98,10.966a31.245,31.245,0,0,1,21.83,2.1c5.03,2.39,8.842,7.856,9.3,7.758C207.339,196.556,200.71,189.016,199.3,187.127Z" transform="translate(-171.755 -174.45)" fill="#5bbac5" stroke="#29246b" stroke-linecap="round" stroke-linejoin="round" stroke-width="4"/>
          </g>
          <g id="Group_482" data-name="Group 482" transform="translate(29.467)">
            <path id="Path_1074" data-name="Path 1074" d="M234.168,182.718a6.2,6.2,0,0,1-1.409,4.007c-5.36,7.845-18,16.394-26.736,11.373.984-.2,3.549-.229,5.559-.7,4.772-1.124,7.814-6.079,10.3-10.526,1.527-2.726,1.742-10.427,4.8-11.539C229.606,174.27,233.86,179.809,234.168,182.718Z" transform="translate(-203.988 -170.812)" fill="#8abec1" stroke="#29246b" stroke-linecap="round" stroke-linejoin="round" stroke-width="4"/>
            <path id="Path_1075" data-name="Path 1075" d="M206.972,187.251a41.751,41.751,0,0,1,6.987-10.83c2.814-3.309,6.685-5.853,10.911-5.982a3.117,3.117,0,0,1,1.481.233,3.956,3.956,0,0,1,1.275,1.221c2.022,2.622,5.877,6.1,6.291,9.825a31.244,31.244,0,0,0-20.837,6.837c-4.382,3.44-6.9,9.606-7.375,9.611C201.2,198.214,206.011,189.4,206.972,187.251Z" transform="translate(-203.809 -170.427)" fill="#5bbac5" stroke="#29246b" stroke-linecap="round" stroke-linejoin="round" stroke-width="4"/>
          </g>
        </g>
        <g id="Group_485" data-name="Group 485" transform="translate(0 20.227)">
          <g id="Group_484" data-name="Group 484">
            <path id="Path_1076" data-name="Path 1076" d="M162.276,243.693,247.9,233.659l-4.02-40.124-85.624,10.034Z" transform="translate(-152.675 -192.519)" fill="#f6b4d1" stroke="#29246b" stroke-linecap="round" stroke-linejoin="round" stroke-width="4"/>
            <rect id="Rectangle_266" data-name="Rectangle 266" width="98.009" height="18.364" transform="matrix(0.994, -0.11, 0.11, 0.994, 0, 10.78)" stroke-width="4" stroke="#29246b" stroke-linecap="round" stroke-linejoin="round" fill="#f6b4d1"/>
          </g>
        </g>
        <path id="Path_1077" data-name="Path 1077" d="M200.6,239.8l16.416-1.888-3.821-40.652c-.039-.413-.967-.644-2.074-.516l-12.41,1.427c-1.1.127-1.973.565-1.93.976Z" transform="translate(-155.784 -172.549)" fill="#7dced8" stroke="#29246b" stroke-linecap="round" stroke-linejoin="round" stroke-width="4"/>
      </g>
      <g id="Group_980" data-name="Group 980" transform="translate(35.281 61.117)">
        <path id="Path_1088" data-name="Path 1088" d="M145.9,252.451c-3.276-1.991-4-4.5-1.564-7.662,5.6-2.174,11.281-1.239,16.9-.234,3.412.611,6.647,1.316,9.884-.761a4.24,4.24,0,0,1,4.5.022c-.449,3.875-2.763,5.139-6.428,5.188C161.3,249.1,153.875,252.661,145.9,252.451Z" transform="translate(-114.793 -237.415)" fill="#f9c9ae" stroke="#29246b" stroke-linecap="round" stroke-linejoin="round" stroke-width="4"/>
        <path id="Path_1090" data-name="Path 1090" d="M118.948,236.914c-7.351,1.916-8.476,5.025-3.9,10.8a102.99,102.99,0,0,0,12.95,2.951,105.129,105.129,0,0,0,35.77-.5q.545-3.686,1.088-7.37a93.566,93.566,0,0,1-45.9-5.884Z" transform="translate(-112.325 -236.911)" fill="#e390bc" stroke="#29246b" stroke-linecap="round" stroke-linejoin="round" stroke-width="4"/>
      </g>
    </g>
  </g>
</svg>
