<svg xmlns="http://www.w3.org/2000/svg" width="129.232" height="255.219" viewBox="0 0 129.232 255.219">
  <g id="give_boopon" data-name="give boopon" transform="translate(-945.011 -3097.44)">
    <g id="Group_1104" data-name="Group 1104" transform="translate(955.092 3107.521)">
      <g id="Group_1103" data-name="Group 1103" transform="matrix(0.309, 0.951, -0.951, 0.309, 59.786, 0)">
        <g id="Group_875" data-name="Group 875" transform="translate(0 0)">
          <g id="Rectangle_330" data-name="Rectangle 330" transform="translate(0 0)" fill="#f8f299" stroke="#29246b" stroke-linejoin="round" stroke-width="8">
            <rect width="159.49" height="62.863" stroke="none"/>
            <rect x="-4" y="-4" width="167.49" height="70.863" fill="none"/>
          </g>
        </g>
        <g id="Group_877" data-name="Group 877" transform="translate(71.473 18.065)">
          <rect id="Rectangle_332" data-name="Rectangle 332" width="4.805" height="26.732" transform="translate(0 0)" fill="#2c2763"/>
          <rect id="Rectangle_333" data-name="Rectangle 333" width="1.201" height="26.732" transform="translate(9.129 0)" fill="#2c2763"/>
          <rect id="Rectangle_334" data-name="Rectangle 334" width="6.006" height="26.732" transform="translate(14.053 0)" fill="#2c2763"/>
          <rect id="Rectangle_335" data-name="Rectangle 335" width="2.403" height="26.732" transform="translate(23.182 0)" fill="#2c2763"/>
          <rect id="Rectangle_336" data-name="Rectangle 336" width="4.805" height="26.732" transform="translate(29.308 0)" fill="#2c2763"/>
          <rect id="Rectangle_337" data-name="Rectangle 337" width="2.403" height="26.732" transform="translate(37.836 0)" fill="#2c2763"/>
          <rect id="Rectangle_338" data-name="Rectangle 338" width="1.201" height="26.732" transform="translate(45.764 0)" fill="#2c2763"/>
          <rect id="Rectangle_339" data-name="Rectangle 339" width="6.006" height="26.732" transform="translate(50.689 0)" fill="#2c2763"/>
          <rect id="Rectangle_340" data-name="Rectangle 340" width="2.403" height="26.732" transform="translate(59.817 0)" fill="#2c2763"/>
          <rect id="Rectangle_341" data-name="Rectangle 341" width="4.805" height="26.732" transform="translate(65.943 0)" fill="#2c2763"/>
        </g>
        <g id="Group_881" data-name="Group 881" transform="translate(19.539 19.157)">
          <g id="Group_880" data-name="Group 880" transform="translate(0 0)">
            <g id="Group_878" data-name="Group 878" transform="translate(10.106 14.998)">
              <ellipse id="Ellipse_107" data-name="Ellipse 107" cx="1.842" cy="1.842" rx="1.842" ry="1.842" fill="#2c2763"/>
            </g>
            <g id="Group_879" data-name="Group 879">
              <path id="Path_1526" data-name="Path 1526" d="M13.754,5.045c-.006.014-.011.028-.017.043l-.014.035a2.538,2.538,0,0,0-.121.411v.005c-.091.378-.157.884-.267,1.417-.212,1.027-.652,4.973-.745,6.738a.512.512,0,0,1-1.024,0c0-.007,0-.013,0-.02-.217-2.669-.724-8.892-.156-10.327a4.217,4.217,0,0,1,1.22-1.675c.062-.054.124-.107.188-.158A7.561,7.561,0,0,1,23.661,3.386h0a5.618,5.618,0,0,1-.59,6.9,5.616,5.616,0,0,1-1.221.99.006.006,0,0,0,0,.011,6.785,6.785,0,0,1,4.757,6.48,6.863,6.863,0,0,1-.06.91,6.764,6.764,0,0,1-4.328,5.385q-.553.211-1.129.375c-.423.12-.854.221-1.292.3A13.663,13.663,0,0,1,9.122,22.19L8.7,21.855l-.024-.018q-3.536-2.816-6.835-5.9-.758-.708-1.5-1.433a1.154,1.154,0,0,1-.154-1.443l.005-.008.018-.028q.426-.628.869-1.243,1.44-2,3.062-3.849A51.689,51.689,0,0,1,7.964,4L8,3.969A.554.554,0,0,1,8.91,4.4a.441.441,0,0,1-.087.263L8.417,5.2a51.478,51.478,0,0,0-4.675,6.967q-.254.453-.5.912a.478.478,0,0,0,.121.6q.328.265.657.527,3.3,2.632,6.8,5.014l.006,0q.3.217.611.413h0a10.233,10.233,0,0,0,7.883,1.235c.081-.02.161-.041.241-.063a6.7,6.7,0,0,0,2.5-1.33c.041-.035.082-.07.122-.106a3.223,3.223,0,0,0,.515-4.168q-.07-.106-.148-.2L22.543,15a6.591,6.591,0,0,0-3.622-2.409q-.287-.073-.584-.12l-.038-.006-.013,0A.7.7,0,0,1,18,11.223c.016-.012.032-.024.049-.035l.019-.012a7.567,7.567,0,0,0,2.724-2.8,4.328,4.328,0,0,0,.228-.528c.012-.032.024-.065.035-.1l.006-.019c.01-.031.02-.062.028-.093s.02-.071.029-.107.022-.09.031-.135l.006-.026h0a3.126,3.126,0,0,0-.475-2.358,4.306,4.306,0,0,0-1.028-.958l-.005,0a4.848,4.848,0,0,0-4.169-.5,2.565,2.565,0,0,0-.667.285l0,0a2.617,2.617,0,0,0-1,1.1Z" fill="#2c2763"/>
            </g>
          </g>
        </g>
      </g>
      <rect id="Rectangle_435" data-name="Rectangle 435" width="141.389" height="45.023" transform="matrix(0.309, 0.951, -0.951, 0.309, 53.721, 9.532)" fill="none" stroke="#29246b" stroke-linejoin="round" stroke-width="3"/>
    </g>
    <g id="Group_479" data-name="Group 479" transform="translate(952 3202.754)">
      <g id="Group_478" data-name="Group 478">
        <path id="Path_1068" data-name="Path 1068" d="M561.784,312.165" transform="translate(-530.174 -285.594)" fill="#fad4bd" stroke="#2b2a6a" stroke-miterlimit="10" stroke-width="8"/>
        <path id="Path_1069" data-name="Path 1069" d="M558.3,312.393" transform="translate(-529.522 -285.636)" fill="#fad4bd" stroke="#2b2a6a" stroke-miterlimit="10" stroke-width="8"/>
        <path id="Path_1070" data-name="Path 1070" d="M554.743,306.042,552.5,307.5a16.125,16.125,0,0,1-6.064,10.1l.021.057c.285.774,3.628,9.133,16.2,13.689,0-.029,0-.055.006-.078s0-.033,0-.054c0-.062.007-.1.009-.125s0-.021,0-.032v0c.064-.837.26-3.381.518-6.221.25-2.758.557-5.8.86-7.822.079-.53.157-.99.233-1.357,0,0-1.449-4.824-2.792-10.3-.783-3.187-1.531-6.6-1.939-9.409-.713-4.923-.4-8.628,1.15-11.347a10.882,10.882,0,0,1,6.211-4.782c6.594-2.342,8.961,8.21,8.961,8.21s4.355,13.8,5.427,21.283a173.359,173.359,0,0,0,4.12,18.207.622.622,0,0,1,.019.076.145.145,0,0,0,.007.026c1.263,4.606,2.594,8.959,3.7,11.975,2.706,7.383-2.836,28.321-3.728,41.249,0,.076-.01.16-.015.252q-.089,1.347-.111,2.6c0,.009,0,.017,0,.026-.009.4-.012.8-.012,1.19v.275l-.484,6.5-2.667-.115-37.523-.639c-.336-1.067-.7-2.16-1.091-3.269-5.376-15.3-15.467-33.767-15.467-33.767-.991-1.734-1.881-3.309-2.62-4.646-1.071-1.936-1.839-3.385-2.176-4.148a3.956,3.956,0,0,1-.268-.959c-.884-5.529,5.04-21.191,7.6-35.132q.252-1.376.5-2.589c.123-.617.246-1.206.372-1.762,2.33-10.563,4.526-10.85,11.148-12.367v0a36.88,36.88,0,0,0,7.372-2.71Z" transform="translate(-522.89 -279.471)" fill="#fad4bd" stroke="#2b2a6a" stroke-miterlimit="10" stroke-width="8"/>
      </g>
      <path id="Path_1071" data-name="Path 1071" d="M547.138,416.39c19.494-9.035,42.2.188,42.2.188l10.552,33.7H549.142v-.016Z" transform="translate(-527.431 -304.37)" fill="#6cc5cf" stroke="#2b2a6a" stroke-miterlimit="10" stroke-width="8"/>
    </g>
  </g>
</svg>
