<svg xmlns="http://www.w3.org/2000/svg" width="265.887" height="222.453" viewBox="0 0 265.887 222.453">
  <g id="book_choix" data-name="book choix" transform="translate(3)">
    <path id="Path_1048" data-name="Path 1048" d="M503.558,257.98H419.884v40.886h83.674v-.053L523.975,278.4Z" transform="translate(-281.909 -245.143)" fill="#6cc5cf" stroke="#29246b" stroke-linejoin="round" stroke-width="6"/>
    <path id="Path_1049" data-name="Path 1049" d="M278.446,295.866l-17.37,17.37,17.37,17.37v.045h71.19V295.866Z" transform="translate(-217.723 -266.493)" fill="#eea3c8" stroke="#2b2a6a" stroke-linejoin="round" stroke-width="6"/>
    <path id="Path_1050" data-name="Path 1050" d="M466.533,378.589H412.948v26.183h53.585v-.034l13.075-13.075Z" transform="translate(-275.329 -290.892)" fill="#ffef86" stroke="#2b2a6a" stroke-linejoin="round" stroke-width="6"/>
    <rect id="Rectangle_265" data-name="Rectangle 265" width="23.481" height="202.653" rx="11.74" transform="translate(142.441 202.653) rotate(-180)" fill="#29246b"/>
    <g id="Group_473" data-name="Group 473" transform="translate(0 120.04)">
      <path id="Path_1051" data-name="Path 1051" d="M370.193,558.465l.532-.2H368.77A5.351,5.351,0,0,1,370.193,558.465Z" transform="translate(-258.572 -479.083)" fill="none" stroke="#2b2a6a" stroke-linecap="round" stroke-linejoin="round" stroke-width="6"/>
      <path id="Path_1052" data-name="Path 1052" d="M400.508,546.812l.009.006-.014-.016Z" transform="translate(-270.609 -474.737)" fill="none" stroke="#2b2a6a" stroke-linecap="round" stroke-linejoin="round" stroke-width="6"/>
      <path id="Path_1053" data-name="Path 1053" d="M401.092,547.588l-.012-.017,0,0c-.026.053-.053.1-.081.154l.014.027C401.036,547.7,401.063,547.645,401.092,547.588Z" transform="translate(-270.796 -475.028)" fill="none" stroke="#2b2a6a" stroke-linecap="round" stroke-linejoin="round" stroke-width="6"/>
      <path id="Path_1054" data-name="Path 1054" d="M428.821,558.17l.484.178a5.357,5.357,0,0,1,1.089-.121h-1.159S429.086,558.207,428.821,558.17Z" transform="translate(-281.35 -479.048)" fill="none" stroke="#2b2a6a" stroke-linecap="round" stroke-linejoin="round" stroke-width="6"/>
      <path id="Path_1055" data-name="Path 1055" d="M401.126,547.648l-.05-.06c-.029.057-.056.112-.083.167l-.014-.027c-.009.017-.016.034-.025.051l.435.161a3.412,3.412,0,0,1-.2-.369Z" transform="translate(-270.78 -475.028)" fill="#c0ccb0" stroke="#2b2a6a" stroke-linecap="round" stroke-linejoin="round" stroke-width="6"/>
      <g id="Path_1056" data-name="Path 1056" transform="translate(-271.257 -461.309)" fill="#ffef83" stroke-linecap="round" stroke-linejoin="round">
        <path d="M 514.1624755859375 537.7061767578125 C 508.2347717285156 537.7061767578125 501.7445983886719 537.1539916992188 494.8721618652344 536.06494140625 C 486.0672607421875 534.6696166992188 476.6683349609375 532.3921508789063 466.9365234375 529.2957153320313 C 454.6017150878906 525.3709106445313 444.9873962402344 523.54296875 436.6796264648438 523.54296875 C 424.8292846679688 523.54296875 414.7681579589844 527.268798828125 404.0571594238281 535.623779296875 L 400.2537231445313 530.985595703125 C 401.8139953613281 529.6411743164063 406.2039489746094 526.0554809570313 413.251953125 521.806396484375 C 421.8973083496094 516.5943603515625 431.5428466796875 512.1394653320313 441.9206848144531 508.5654907226563 L 442.5169677734375 508.3601379394531 L 443.1454467773438 508.4122314453125 C 453.7199401855469 509.2891540527344 464.2334289550781 512.560791015625 471.9100646972656 514.9495849609375 L 472.2156982421875 515.044677734375 C 484.5231323242188 518.8736572265625 499.3723754882813 522.8462524414063 516.1911010742188 523.2783813476563 L 517.4999389648438 523.31201171875 L 518.3653564453125 524.2945556640625 L 525.3369750976563 532.2100830078125 L 529.0672607421875 536.4454956054688 L 523.4698486328125 537.168212890625 C 520.705322265625 537.5252075195313 517.5739135742188 537.7061767578125 514.1624755859375 537.7061767578125 Z" stroke="none"/>
        <path d="M 514.1624755859375 534.7061767578125 C 518.1220703125 534.7061767578125 521.0980224609375 534.4495849609375 523.0856323242188 534.1929321289063 L 516.114013671875 526.2774047851563 C 499.1554565429688 525.8416748046875 484.3700561523438 521.9678955078125 471.324462890625 517.9092407226563 C 463.5981140136719 515.50537109375 453.2797546386719 512.262939453125 442.8975219726563 511.4019775390625 C 418.9991149902344 519.63232421875 405.433349609375 530.4826049804688 402.2120056152344 533.25830078125 C 413.4768676757813 524.4713134765625 424.1697692871094 520.54296875 436.6796569824219 520.54296875 C 445.7947998046875 520.54296875 455.8735961914063 522.62744140625 467.8460998535156 526.4369506835938 C 489.0532531738281 533.1845092773438 504.5217590332031 534.7061767578125 514.1624755859375 534.7061767578125 M 514.1624755859375 540.7061767578125 C 504.4645690917969 540.7061767578125 488.2412719726563 539.2225341796875 466.0269165039063 532.154541015625 C 453.9949645996094 528.3260498046875 444.669677734375 526.54296875 436.6796569824219 526.54296875 C 425.5427856445313 526.54296875 416.0506896972656 530.0731201171875 405.9023132324219 537.9892578125 C 404.807373046875 538.8433227539063 403.5070190429688 539.2584838867188 402.215576171875 539.258544921875 C 400.4783020019531 539.258544921875 398.7570190429688 538.5073852539063 397.5724792480469 537.0628662109375 C 395.5074157714844 534.5446166992188 395.8282775878906 530.8388061523438 398.2954406738281 528.7129516601563 C 402.0578918457031 525.470947265625 416.2528686523438 514.2322387695313 440.9438171386719 505.7289733886719 C 441.573486328125 505.5121154785156 442.23388671875 505.4019775390625 442.8975524902344 505.4019775390625 C 443.0628051757813 505.4019775390625 443.2281494140625 505.4087829589844 443.3934020996094 505.4224853515625 C 454.29638671875 506.3266296386719 464.9917907714844 509.6548461914063 472.80126953125 512.0850219726563 C 485.2176513671875 515.9479370117188 499.8163452148438 519.856689453125 516.2681274414063 520.2794189453125 C 517.937255859375 520.322265625 519.5130615234375 521.0587768554688 520.6166381835938 522.3117065429688 L 527.5882568359375 530.2272338867188 C 529.0548095703125 531.8923950195313 529.482666015625 534.2308959960938 528.70068359375 536.3074340820313 C 527.918701171875 538.3839721679688 526.0545654296875 539.859375 523.85400390625 540.1435546875 C 521.6951904296875 540.4223022460938 518.463134765625 540.7061767578125 514.1624755859375 540.7061767578125 Z" stroke="none" fill="#2b2a6a"/>
      </g>
      <path id="Path_1057" data-name="Path 1057" d="M401.127,547.57l0,0,0,0Z" transform="translate(-270.845 -475.028)" fill="#e2e6da" stroke="#2b2a6a" stroke-linecap="round" stroke-linejoin="round" stroke-width="6"/>
      <g id="Path_1058" data-name="Path 1058" transform="translate(-271.153 -447.765)" fill="#ffef83" stroke-linecap="round" stroke-linejoin="round">
        <path d="M 403.7848510742188 522.2088012695313 L 399.5982666015625 517.9660034179688 C 413.3243713378906 500.8997192382813 430.6146240234375 486.7773132324219 450.9887390136719 475.9911499023438 L 451.3788452148438 475.7846374511719 L 451.8119201660156 475.69921875 C 461.9205322265625 473.7055358886719 472.7949829101563 472.6946411132813 484.1332092285156 472.6946411132813 C 494.7541198730469 472.6946411132813 501.7561340332031 473.5968322753906 502.0490112304688 473.63525390625 L 502.6578674316406 473.715087890625 L 503.1863708496094 474.0277099609375 L 523.7696533203125 486.2037353515625 L 522.0055541992188 491.7764587402344 C 516.0317993164063 491.3036804199219 510.0554809570313 491.06396484375 504.2426147460938 491.06396484375 C 482.6739196777344 491.06396484375 462.327880859375 494.3040771484375 443.7695617675781 500.6942443847656 C 420.594970703125 508.67529296875 407.5207214355469 519.009521484375 404.0656127929688 521.9866943359375 L 404.0128173828125 522.0322265625 L 403.9579772949219 522.0751953125 C 403.91943359375 522.1054077148438 403.88134765625 522.1346435546875 403.8433227539063 522.1637573242188 C 403.8238525390625 522.1786499023438 403.8043823242188 522.1934814453125 403.7848510742188 522.2088012695313 Z" stroke="none"/>
        <path d="M 401.9360046386719 519.84619140625 C 401.9931030273438 519.801513671875 402.0495910644531 519.75927734375 402.1072998046875 519.7140502929688 C 405.3286743164063 516.938232421875 418.8944091796875 506.0880126953125 442.7928466796875 497.8576965332031 C 458.6982727050781 492.3809814453125 479.1796264648438 488.06396484375 504.2425231933594 488.06396484375 C 510.0007934570313 488.06396484375 516.0001220703125 488.2918090820313 522.2422485351563 488.7857971191406 L 501.6589660644531 476.6097717285156 C 501.6589660644531 476.6097717285156 494.6803588867188 475.6946411132813 484.1331787109375 475.6946411132813 C 475.3660583496094 475.6946411132813 464.1334533691406 476.3268737792969 452.3923950195313 478.6425170898438 C 435.4649963378906 487.6039733886719 417.3135681152344 500.7265319824219 401.9360046386719 519.84619140625 M 401.9981994628906 525.7455444335938 C 400.4919128417969 525.7455444335938 398.9934387207031 525.1978759765625 397.8515319824219 524.0940551757813 C 395.6210632324219 521.93798828125 395.3163452148438 518.503173828125 397.2605590820313 516.0858154296875 C 411.2438049316406 498.6997680664063 428.8483276367188 484.3179321289063 449.5851135253906 473.3397521972656 C 450.1024475097656 473.0658874511719 450.6571044921875 472.8691711425781 451.2314147949219 472.7558898925781 C 461.5307006835938 470.724609375 472.6004638671875 469.6946411132813 484.1331787109375 469.6946411132813 C 494.9477233886719 469.6946411132813 502.1382751464844 470.6212463378906 502.4390869140625 470.6607055664063 C 503.2425537109375 470.7660827636719 504.0163269042969 471.0330810546875 504.7138061523438 471.4456787109375 L 525.297119140625 483.6217041015625 C 527.7002563476563 485.0432739257813 528.80517578125 487.9346618652344 527.9624633789063 490.5965881347656 C 527.1681518554688 493.1058044433594 524.8411865234375 494.7859191894531 522.2455444335938 494.7859497070313 C 522.0875244140625 494.7859497070313 521.9285888671875 494.7797241210938 521.7689208984375 494.76708984375 C 515.8734130859375 494.300537109375 509.9766845703125 494.06396484375 504.2424926757813 494.06396484375 C 483.0070190429688 494.06396484375 462.9895629882813 497.2490844726563 444.7462463378906 503.5307922363281 C 421.4935607910156 511.5387268066406 408.4104919433594 522.202880859375 406.0239562988281 524.2593383789063 C 404.8770141601563 525.2476806640625 403.4340515136719 525.7455444335938 401.9981994628906 525.7455444335938 Z" stroke="none" fill="#2b2a6a"/>
      </g>
      <path id="Path_1059" data-name="Path 1059" d="M467.513,532.023c-28.4-9.038-46.161-8.368-65.634,6.821l-.171.132c-.124.155-.251.3-.374.461a3.4,3.4,0,0,0,.2.369l16.861,6.211c.265.037.414.056.414.056H528.1l-2.355-6.808a28.077,28.077,0,0,1-3,.514C515.925,540.661,497.43,541.542,467.513,532.023Z" transform="translate(-270.924 -466.895)" fill="#fff" stroke="#2b2a6a" stroke-linecap="round" stroke-linejoin="round" stroke-width="6"/>
      <g id="Path_1060" data-name="Path 1060" transform="translate(-196.517 -461.294)" fill="#ffef83" stroke-linecap="round" stroke-linejoin="round">
        <path d="M 214.2990570068359 537.6918334960938 C 214.2979736328125 537.6918334960938 214.2977294921875 537.6918334960938 214.2966461181641 537.6918334960938 C 209.9262390136719 537.6917114257813 206.7045135498047 537.383544921875 204.7713928222656 537.1250610351563 L 199.1708526611328 536.3762817382813 L 202.9285278320313 532.156494140625 L 210.1105346679688 524.0911865234375 L 210.9748840332031 523.1204833984375 L 212.274169921875 523.0872192382813 C 229.4192657470703 522.6480712890625 244.1250762939453 518.7323608398438 256.2491455078125 514.9598999023438 L 256.7440185546875 514.8058471679688 C 264.1044311523438 512.5150756835938 274.1848449707031 509.377685546875 284.3321838378906 508.37744140625 L 284.9833068847656 508.3132629394531 L 285.60205078125 508.5260314941406 C 301.1169128417969 513.8612670898438 312.3444213867188 520.2996826171875 319.0310974121094 524.7614135742188 L 315.8927917480469 529.8703002929688 C 308.2160949707031 525.5429077148438 300.5565185546875 523.5274047851563 291.7876586914063 523.5274047851563 C 283.4792785644531 523.5274047851563 273.8642272949219 525.3555908203125 261.5285034179688 529.2808227539063 C 251.7957611083984 532.3776245117188 242.3958892822266 534.6553344726563 233.5899505615234 536.0507202148438 C 226.7178802490234 537.1395874023438 220.2269592285156 537.6918334960938 214.2990570068359 537.6918334960938 Z" stroke="none"/>
        <path d="M 214.2967224121094 534.6918334960938 C 223.9394073486328 534.6920776367188 239.4099426269531 533.17041015625 260.6188354492188 526.4220581054688 C 272.5902099609375 522.61279296875 282.6731567382813 520.5274047851563 291.7876586914063 520.5274047851563 C 300.9803771972656 520.5274047851563 309.1880493164063 522.64697265625 317.365966796875 527.2568969726563 C 310.4936828613281 522.6713256835938 299.578857421875 516.5047607421875 284.62646484375 511.3629760742188 C 274.5638732910156 512.3548583984375 264.6328430175781 515.4935913085938 257.1404724121094 517.8244018554688 C 244.0948486328125 521.8836059570313 229.3094329833984 525.65185546875 212.3509826660156 526.0862426757813 L 205.1689758300781 534.1515502929688 C 207.1537780761719 534.4169311523438 210.2003326416016 534.6917114257813 214.2967224121094 534.6918334960938 M 214.2990112304688 540.6918334960938 C 214.2989501953125 540.6918334960938 214.2988891601563 540.6918334960938 214.2988433837891 540.6918334960938 C 209.8431091308594 540.691650390625 206.5315093994141 540.3871459960938 204.3738098144531 540.0986328125 C 202.1735229492188 539.804443359375 200.3154296875 538.3193969726563 199.54345703125 536.2380981445313 C 198.7714691162109 534.15673828125 199.2117767333984 531.8192749023438 200.6880493164063 530.161376953125 L 207.8700561523438 522.0960693359375 C 208.9729919433594 520.8574829101563 210.5393981933594 520.1306762695313 212.1973419189453 520.0881958007813 C 228.9754180908203 519.658447265625 243.4305419921875 515.8065795898438 255.3578338623047 512.0953369140625 C 263.3365173339844 509.6121215820313 273.5859069824219 506.4221801757813 284.0379028320313 505.3919067382813 C 284.23388671875 505.3725891113281 284.4303283691406 505.3629760742188 284.62646484375 505.3629760742188 C 285.2890625 505.3629760742188 285.9484558105469 505.4727172851563 286.5776062011719 505.6890869140625 C 302.3955993652344 511.1285095214844 313.8622436523438 517.7059936523438 320.6961975097656 522.2659301757813 C 323.3797302246094 524.0565185546875 324.1670227050781 527.6485595703125 322.4784240722656 530.3973999023438 C 321.3487854003906 532.2363891601563 319.3810119628906 533.257568359375 317.3609924316406 533.2577514648438 C 316.3616027832031 533.2578125 315.3498229980469 533.0079956054688 314.4196472167969 532.483642578125 C 307.2108764648438 528.4200439453125 300.0194091796875 526.5274047851563 291.7876586914063 526.5274047851563 C 283.7970275878906 526.5274047851563 274.4710083007813 528.3107299804688 262.4381408691406 532.1395874023438 C 240.2230377197266 539.2080688476563 223.9981536865234 540.6918334960938 214.2990112304688 540.6918334960938 Z" stroke="none" fill="#2b2a6a"/>
      </g>
      <path id="Path_1061" data-name="Path 1061" d="M400.089,546.295l0,.121c.088.068.176.135.263.2l0-.01Z" transform="translate(-270.451 -474.544)" fill="#c0ccb0" stroke="#2b2a6a" stroke-linecap="round" stroke-linejoin="round" stroke-width="6"/>
      <g id="Path_1062" data-name="Path 1062" transform="translate(-196.565 -447.763)" fill="#ffef83" stroke-linecap="round" stroke-linejoin="round">
        <path d="M 329.0764770507813 525.6715087890625 L 324.359375 522.00341796875 C 321.472900390625 519.7588500976563 318.7191772460938 517.9061279296875 315.9408874511719 516.3394165039063 L 315.8429260253906 516.2841796875 L 315.7493591308594 516.2217407226563 C 309.3571472167969 511.9564514160156 298.60791015625 505.7959594726563 283.6994323730469 500.6692810058594 C 265.1593322753906 494.2948913574219 244.8367156982422 491.0627746582031 223.2962493896484 491.0627746582031 C 217.4834747314453 491.0627746582031 211.5072937011719 491.302490234375 205.53369140625 491.7752685546875 L 203.7695922851563 486.2025451660156 L 224.3528594970703 474.0265502929688 L 224.8811492919922 473.7140502929688 L 225.4897003173828 473.6341247558594 C 225.7828063964844 473.5956726074219 232.7903137207031 472.6915588378906 243.4198455810547 472.6915588378906 C 255.3088684082031 472.6915588378906 266.6629028320313 473.8004150390625 277.1666259765625 475.9873352050781 L 277.588134765625 476.0751037597656 L 277.9679565429688 476.2778625488281 C 297.9625854492188 486.9520568847656 314.97607421875 500.8640747070313 328.5359191894531 517.62744140625 L 329.2255554199219 518.47998046875 L 329.2028198242188 519.5763549804688 L 329.2003173828125 519.6973876953125 L 329.0764770507813 525.6715087890625 Z" stroke="none"/>
        <path d="M 326.2009582519531 519.6351928710938 L 326.2034606933594 519.51416015625 C 311.0474853515625 500.7775268554688 293.22998046875 487.8262939453125 276.5551147460938 478.9243469238281 C 264.3131408691406 476.3755187988281 252.5347747802734 475.6915588378906 243.4198608398438 475.6915588378906 C 232.8642272949219 475.6915588378906 225.8802795410156 476.6086120605469 225.8802795410156 476.6086120605469 L 205.2970123291016 488.7846069335938 C 211.5377349853516 488.2907104492188 217.5391235351563 488.0628051757813 223.2961578369141 488.0628051757813 C 248.323486328125 488.0628051757813 268.7787170410156 492.366943359375 284.6749877929688 497.8323364257813 C 299.6274108886719 502.97412109375 310.5422058105469 509.1406860351563 317.4144897460938 513.7262573242188 C 320.3323364257813 515.3717041015625 323.2476806640625 517.3386840820313 326.2009582519531 519.6351928710938 M 326.1219787597656 525.5966186523438 C 324.8383483886719 525.5966186523438 323.5690612792969 525.1891479492188 322.5177917480469 524.3717041015625 C 319.7490234375 522.2186279296875 317.1156921386719 520.446044921875 314.4672546386719 518.9525146484375 C 307.8392028808594 514.5501708984375 297.3290710449219 508.5286254882813 282.723876953125 503.5062255859375 C 264.4984436035156 497.2400512695313 244.5039672851563 494.0628051757813 223.2961578369141 494.0628051757813 C 217.5620727539063 494.0628051757813 211.6655578613281 494.2993469238281 205.7703857421875 494.7658996582031 C 205.6108703613281 494.7785339355469 205.4515838623047 494.7847595214844 205.2937622070313 494.7847595214844 C 202.6978607177734 494.7849426269531 200.3711547851563 493.1047668457031 199.5767822265625 490.5953979492188 C 198.7341156005859 487.9334716796875 199.8390350341797 485.0420532226563 202.2422027587891 483.6205139160156 L 222.8254699707031 471.4444885253906 C 223.5225982666016 471.0321044921875 224.2960357666016 470.76513671875 225.0991363525391 470.65966796875 C 225.4001770019531 470.6201477050781 232.596435546875 469.6915283203125 243.4198760986328 469.6915283203125 C 255.5139312744141 469.6915283203125 267.07373046875 470.8215942382813 277.7781066894531 473.0503234863281 C 278.3372802734375 473.166748046875 278.876953125 473.3623962402344 279.3807983398438 473.6313781738281 C 299.731689453125 484.4957885742188 317.0546264648438 498.6634216308594 330.8683776855469 515.74072265625 C 331.7592163085938 516.842041015625 332.2316589355469 518.2229614257813 332.2021789550781 519.6390991210938 C 332.1549072265625 521.9075927734375 330.830810546875 524.015869140625 328.7823181152344 524.9915771484375 C 327.9361267089844 525.3946533203125 327.0254211425781 525.5966186523438 326.1219787597656 525.5966186523438 Z" stroke="none" fill="#2b2a6a"/>
      </g>
      <path id="Path_1063" data-name="Path 1063" d="M405.551,560.494a4.505,4.505,0,0,1,.405-1.408l-15.119-5.568-14.948,5.726a4.53,4.53,0,0,1,.32,1.112c.257.946,2.3,6.688,14.035,6.688a4.549,4.549,0,0,0,1.619,0C403.465,567.042,405.322,561.432,405.551,560.494Z" transform="translate(-261.273 -477.284)" fill="#29246b" stroke="#2b2a6a" stroke-linecap="round" stroke-linejoin="round" stroke-width="6"/>
      <path id="Path_1064" data-name="Path 1064" d="M446.288,554.19H340.272a5.356,5.356,0,0,0-1.089.121l-.483-.177-16.861-6.211-.435-.161-.632-.233-17.389,6.661-.532.2a5.349,5.349,0,0,0-1.423-.2H196.056a4.827,4.827,0,0,0,0,9.655H298.2c2.365,4.307,8.181,10.581,22,10.581a4.546,4.546,0,0,1,1.619,0c13.787,0,19.469-6.235,21.753-10.581H446.288a4.827,4.827,0,1,0,0-9.655ZM321.821,564.771a4.542,4.542,0,0,1-1.619,0c-11.733,0-13.778-5.742-14.035-6.688a4.525,4.525,0,0,0-.32-1.112l14.948-5.726,15.119,5.568a4.507,4.507,0,0,0-.405,1.408C335.278,559.161,333.421,564.771,321.821,564.771Z" transform="translate(-191.229 -475.012)" fill="#6cc5cf" stroke="#2b2a6a" stroke-linecap="round" stroke-linejoin="round" stroke-width="6"/>
      <path id="Path_1065" data-name="Path 1065" d="M305.528,546.073l17.389-6.661.632.234c.009-.018.017-.034.025-.051.029-.051.055-.1.08-.153l0,0c-.124-.156-.25-.306-.374-.461l-.009-.006c-.087-.069-.175-.135-.263-.2a71.826,71.826,0,0,0-8.786-5.909c-16.286-9.18-32.7-8.486-56.747-.835-30.219,9.615-48.793,8.62-55.45,7.729a26.62,26.62,0,0,1-2.784-.487l-2.356,6.808h108.64Z" transform="translate(-193.376 -466.895)" fill="#fff" stroke="#2b2a6a" stroke-linecap="round" stroke-linejoin="round" stroke-width="6"/>
      <path id="Path_1066" data-name="Path 1066" d="M335.127,502.447l.256.315s.009.11.014.116c.124.154.251.559.374.559h0s.008-.088.012-.083.033-.009.05.011c.021-.026.042-.076.063-.1.124-.156.25-.317.374-.472a160.992,160.992,0,0,1,50.456-41.21c29.985-15.875,56.116-18.705,56.116-18.705L415.921,430.7c-61.315,10.871-80.086,49.137-80.086,49.137s-18.771-38.267-80.087-49.139l-26.924,12.176s26.444,2.856,56.655,18.985A160.917,160.917,0,0,1,335.127,502.447Z" transform="translate(-205.489 -430.696)" fill="#fff" stroke="#2b2a6a" stroke-linecap="round" stroke-linejoin="round" stroke-width="6"/>
    </g>
  </g>
</svg>
