<svg height="559.104" viewBox="0 0 485.884 559.104" width="485.884"
     xmlns="http://www.w3.org/2000/svg">
    <defs>
        <clipPath id="clip-path">
            <path d="M473.374-364.687l.875-80.414,1.546-11.838-72.478,9.18s-6.868,20.711-.28,28.616,23.782,18.445,27.272,29.76.391,38.679.391,38.679Z" data-name="Path 852"
                  fill="none"
                  id="Path_852" transform="translate(-400.179 456.939)"/>
        </clipPath>
    </defs>
    <g data-name="ILL BOO GIFT" id="ILL_BOO_GIFT" transform="translate(-1122.476 -231.785)">
        <path d="M419.113-20891.578c-6.865-58.352,3.662-121.277,133.275-186.488s167.367-29.746,194.826-67.5,183.934.77,151.9,159.8c-12.365,61.383-65.635,76.734-74.352,122.188-13.859,72.273,6.047,168.859-77.547,168.395-136.146-.746-140.723-14.48-208.224-39.648S425.978-20833.23,419.113-20891.578Z" data-name="Path 999"
              fill="#7dced8"
              id="Path_999" transform="translate(704.944 21468.211)"/>
        <g data-name="Group 426" id="Group_426" transform="translate(1165.188 231.785)">
            <g data-name="Group 362" id="Group_362" transform="translate(87.804 385.224)">
                <path d="M452.327-356.369c-35.587-.488-78.951-44.421-80.78-46.292-13.481-13.784-12.54-24.3-9.906-36.611,2.209-10.351.56-13.525-2.171-18.785-.628-1.211-1.3-2.517-2-4.028l1.433-.655c.679,1.483,1.347,2.767,1.963,3.956,2.794,5.382,4.64,8.938,2.31,19.841-2.53,11.846-3.439,21.956,9.5,35.182,1.811,1.851,44.729,45.336,79.674,45.817Z" data-name="Path 820"
                      fill="#29246b"
                      id="Path_820" transform="translate(-348.527 469.541)"/>
                <path d="M362.958-459.961c-1.116-3.521-6.807-7.4-9.732-3.3a3.128,3.128,0,0,0,.4,4.217c1.015.828,2.406.716,3.617.69,2.149-.046,4.3-.143,6.442-.213a1,1,0,0,0,.851-1.484q-1.759-1.8.435-2.771,1.274-2.122,1.393-.29c1.189,1.327-.437,3.341-1.244,4.413a10.5,10.5,0,0,0-1.573,2.811c-.708,1.908-1.075,4.006-3.141,4.914q-1.872,1.084-3.738-1.083l1.1-3.306c.782-.793,2.958-.877,3.883-.971,1.25-.127,1.262-2.1,0-1.971-3.541.358-9.316,2.565-6.683,7.244,2.424,4.306,7.927,2.123,9.571-1.567.741-1.664,1.022-3.217,2.077-4.762a9.1,9.1,0,0,0,1.811-3.086c.378-1.616.121-4.077-1.237-5.237a3.141,3.141,0,0,0-4.424.413c-1.692,1.828-.976,4.272.07,6.244l.851-1.484c-1.741.059-4.143.549-5.855.195l-1.172.039.264-2.595c1.233-1.45,3.949,2.884,4.134,3.468.382,1.206,2.284.69,1.9-.525Z" data-name="Path 821"
                      fill="#29246b"
                      id="Path_821" transform="translate(-352.597 466.447)"/>
                <path d="M361.707-443.108c-1.569-.415-3.163-.782-4.719-1.248-.387-.116-2.215-.453-.877-1.365.484-.33,1.994.046,2.484.147,3.536.725,3.211,4.538,4.429,7.226.521,1.154,2.222.152,1.7-.994-1.07-2.362-.919-5.354-3.138-7.09a7.726,7.726,0,0,0-6.235-1.114c-1.653.53-2.622,2.288-1.409,3.765a4.769,4.769,0,0,0,2.519,1.327c1.563.448,3.149.831,4.721,1.248a.986.986,0,0,0,.523-1.9Z" data-name="Path 822"
                      fill="#29246b"
                      id="Path_822" transform="translate(-351.928 482.02)"/>
                <path d="M363.039-433.667a6.183,6.183,0,0,1-1.3-5.681c.119-.422,1.6-4,1.951-.637a8.166,8.166,0,0,1-.664,2.228c-.91,2.908-1.6,5.69-.772,8.7a.987.987,0,0,0,1.9-.525c-1.072-3.9,1.205-6.817,1.534-10.532.15-1.708-.8-3.561-2.787-3.338s-2.949,2.712-3.235,4.4a8.217,8.217,0,0,0,1.982,6.774c.818.971,2.207-.429,1.393-1.395Z" data-name="Path 823"
                      fill="#29246b"
                      id="Path_823" transform="translate(-346.792 485.63)"/>
                <path d="M372.273-427.641c-1.813-.642-10.707-5.11-10.472-.1.083,1.771,2.02,2.708,3.492,3.163a15.956,15.956,0,0,0,3.7.622c1.589.1,3.213-.2,4.567.815,1.017.761,2-.949.995-1.7-2.262-1.7-5.523-.829-8.125-1.472-.765-.189-2.138-.2-1.547-1.213.51-.873,1.125-.253,2.011.06l4.859,1.723c1.2.424,1.714-1.479.525-1.9Z" data-name="Path 824"
                      fill="#29246b"
                      id="Path_824" transform="translate(-344.917 496.802)"/>
                <path d="M376.5-420.293a8.4,8.4,0,0,1-1.982-3.09.546.546,0,0,1,.2-.886q.44-.883.7.235a6.938,6.938,0,0,1,.27,1.668,14.189,14.189,0,0,0,2.017,5.3.987.987,0,0,0,1.7-.994,15.51,15.51,0,0,1-1.475-3.053c-.3-1-.259-2.04-.5-3.049-.341-1.406-1.385-2.782-2.98-2.661a2.325,2.325,0,0,0-2.068,2.82c.183,1.985,1.519,3.618,2.732,5.1.8.983,2.191-.418,1.393-1.393Z" data-name="Path 825"
                      fill="#29246b"
                      id="Path_825" transform="translate(-336.099 499.524)"/>
            </g>
            <g data-name="Group 363" id="Group_363" transform="translate(232.297 402.67)">
                <path d="M437.626-362.263c54.1-.275,64.76-60.863,63.169-94.676-19.123,8.71-42.009,16.143-56.092,33.1-13.044,15.727-18.49,42.91-7.343,61.142l.266.433" data-name="Path 826"
                      fill="#29246b"
                      id="Path_826" transform="translate(-431.345 456.939)"/>
                <path d="M496.47-455.047c-25.721,25.885-43.575,57.993-61.92,89.208a.636.636,0,0,0,1.1.642c18.29-31.121,36.076-63.142,61.722-88.951a.636.636,0,0,0-.9-.9Z" data-name="Path 827"
                      fill="#ffef83"
                      id="Path_827" transform="translate(-428.747 458.361)"/>
                <path d="M473.24-443.177c-4.611.453-9.092,1.671-13.675,2.316l.805.613a63.642,63.642,0,0,1,1.277-11.358c.18-.8-1.046-1.138-1.226-.34a65.593,65.593,0,0,0-1.323,11.7.647.647,0,0,0,.806.615c4.468-.629,8.84-1.829,13.336-2.272.807-.079.816-1.352,0-1.271Z" data-name="Path 828"
                      fill="#ffef83"
                      id="Path_828" transform="translate(-408.175 460.728)"/>
                <path d="M478.52-430.26c-5.908,1.463-15.807,3.883-21.5.417-4.875-2.971-4.152-12.991-4.835-17.984-.11-.807-1.336-.464-1.226.338.7,5.1.007,15.664,5.418,18.743,6.292,3.582,15.93,1.332,22.475-.288a.636.636,0,0,0-.338-1.226Z" data-name="Path 829"
                      fill="#ffef83"
                      id="Path_829" transform="translate(-414.971 464.161)"/>
                <path d="M478.4-417.961a84.424,84.424,0,0,1-10.82,2.2c-3.973.606-10.848,2.369-14.659.259-7.02-3.888-8.653-19.778-6.93-26.7a.636.636,0,0,0-1.226-.339c-1.89,7.585-.092,22.312,6.565,27.446,3.251,2.506,7.947,1.617,11.745,1.206a92.125,92.125,0,0,0,15.664-2.84.636.636,0,0,0-.339-1.226Z" data-name="Path 830"
                      fill="#ffef83"
                      id="Path_830" transform="translate(-420.733 468.577)"/>
                <path d="M474.717-407.746c-8.477,1.138-23.428,2.888-28.734-5.384-4.051-6.316-4.092-14.894-6.136-21.951a.637.637,0,0,0-1.227.338c2.255,7.776,2.009,18.574,8.132,24.642,6.345,6.29,20.092,4.683,27.965,3.626.8-.108.809-1.382,0-1.272Z" data-name="Path 831"
                      fill="#ffef83"
                      id="Path_831" transform="translate(-425.295 474.814)"/>
                <path d="M440.372-417.193c-1.149-3.029-1.475-6.261-2.173-9.406-.176-.8-1.4-.461-1.226.338.7,3.145,1.022,6.378,2.172,9.406.288.758,1.517.429,1.226-.338Z" data-name="Path 832"
                      fill="#ffef83"
                      id="Path_832" transform="translate(-426.66 481.889)"/>
                <path d="M451.3-417.54c-1.978-.059-3.954.108-5.932.049-.82-.026-.818,1.248,0,1.272,1.978.059,3.954-.108,5.932-.05a.636.636,0,0,0,0-1.272Z" data-name="Path 833"
                      fill="#ffef83"
                      id="Path_833" transform="translate(-420.154 489.822)"/>
                <path d="M461.923-425.131l-10.2.87c-.809.07-.817,1.341,0,1.271l10.2-.87c.809-.07.817-1.341,0-1.271Z" data-name="Path 834"
                      fill="#ffef83"
                      id="Path_834" transform="translate(-414.842 483.493)"/>
                <path d="M448.3-442.284a58.565,58.565,0,0,1,1.185,8.633.636.636,0,0,0,1.272,0,60.95,60.95,0,0,0-1.229-8.971c-.141-.805-1.367-.464-1.228.338Z" data-name="Path 835"
                      fill="#ffef83"
                      id="Path_835" transform="translate(-417.201 468.508)"/>
                <path d="M463.547-433.942a46.89,46.89,0,0,1-7.765-.022c-.817-.071-.811,1.2,0,1.272a46.88,46.88,0,0,0,7.765.024c.811-.064.818-1.338,0-1.273Z" data-name="Path 836"
                      fill="#ffef83"
                      id="Path_836" transform="translate(-411.453 476.118)"/>
                <path d="M467.157-441.5a13.389,13.389,0,0,0-6.706.314.637.637,0,0,0,.338,1.227,12.009,12.009,0,0,1,6.03-.316c.8.172,1.139-1.053.339-1.226Z" data-name="Path 837"
                      fill="#ffef83"
                      id="Path_837" transform="translate(-407.419 469.589)"/>
            </g>
            <g data-name="Group 365" id="Group_365" transform="translate(191.46 371.986)">
                <g data-name="Group 364" id="Group_364">
                    <path d="M415.947-411.516c3.1-8.306,5.549-39.931,20.688-43.813s18.98-3.672,26.033-13.263,11.139-9.881,13.246-7.072,1.341,20.171-6.688,24.956c-5.292,3.5-3.618,10.143-2.376,14.842a16.77,16.77,0,0,1-5.572,18.263c-5.09,4.257-27.075,25.877-27.075,25.877l-20.652-20.8-1.042-3.708Z" data-name="Path 838"
                          fill="#eea3c8"
                          id="Path_838" transform="translate(-410.341 478.089)"/>
                    <path d="M435.182-390.085l-21.43-21.582-2.426-8.628,5.3,7.262c.53-1.875,1.073-4.4,1.679-7.222,2.771-12.906,6.96-32.413,19.1-35.529,1.943-.5,3.7-.928,5.3-1.323,10.969-2.69,14.279-3.5,20.237-11.607,4.431-6.026,8.053-8.962,11.075-8.976h.02a4.37,4.37,0,0,1,3.565,1.9c1.367,1.822,1.578,7.6.481,13.151-.723,3.666-2.65,10.242-7.424,13.086-4.433,2.936-3.464,8.233-1.976,13.863a17.637,17.637,0,0,1-5.859,19.163c-5.006,4.184-26.8,25.613-27.022,25.83Zm-17.611-20.229L435.2-392.564c3.684-3.617,21.864-21.435,26.5-25.312a15.947,15.947,0,0,0,5.294-17.343c-1.182-4.472-3.154-11.923,2.736-15.822,4.222-2.518,5.969-8.56,6.635-11.938,1.117-5.659.657-10.661-.163-11.758a2.727,2.727,0,0,0-2.173-1.195c-1.644.007-4.657,1.448-9.666,8.261-6.336,8.617-10.393,9.613-21.233,12.272-1.6.393-3.352.822-5.288,1.319-11.086,2.846-15.136,21.71-17.817,34.195a77.294,77.294,0,0,1-2.268,9.075Z" data-name="Path 839"
                          fill="#29246b"
                          id="Path_839" transform="translate(-411.327 477.689)"/>
                </g>
                <path d="M464.164-471.958c-7.91,15.213-26.808,15.622-33.8,31.751-4.613,10.639-7.668,22.378-10.708,33.554a.856.856,0,0,0,1.65.455c2.939-10.807,6-21.943,10.228-32.321,6.712-16.475,26.05-17.079,34.107-32.576.506-.974-.969-1.84-1.477-.862Z" data-name="Path 840"
                      fill="#29246b"
                      id="Path_840" transform="translate(-404.401 482.115)"/>
                <path d="M440.7-470.262a6.542,6.542,0,0,0-.338,2.725c.083.875.75,1.938.593,2.8-.2,1.075,1.451,1.536,1.65.453a4.774,4.774,0,0,0-.338-2.415,4.952,4.952,0,0,1,.083-3.1c.35-1.046-1.3-1.494-1.65-.455Z" data-name="Path 841"
                      fill="#29246b"
                      id="Path_841" transform="translate(-387.113 483.397)"/>
                <path d="M437.772-462.74c1.828-1.016,3.02-.136,4.5.879a3.957,3.957,0,0,0,3.213.572c1.077-.227.622-1.875-.453-1.649-1.7.36-2.795-1.448-4.361-1.848a5.076,5.076,0,0,0-3.76.569c-.963.536-.1,2.013.863,1.477Z" data-name="Path 842"
                      fill="#29246b"
                      id="Path_842" transform="translate(-390.32 488.34)"/>
                <path d="M427.041-462.881c-.009,1.556.128,3.383,1.549,4.345,1.455.985,3.125.1,4.655.664,1.033.382,1.479-1.27.453-1.65a9.892,9.892,0,0,0-3.172-.174c-1.736-.083-1.783-1.813-1.776-3.185a.855.855,0,0,0-1.708,0Z" data-name="Path 843"
                      fill="#29246b"
                      id="Path_843" transform="translate(-398.208 489.362)"/>
            </g>
            <g data-name="Group 370" id="Group_370" transform="translate(175.111 402.67)">
                <g clip-path="url(#clip-path)" data-name="Group 369" id="Group_369">
                    <g data-name="Group 368" id="Group_368" transform="translate(7.804 3.606)">
                        <g data-name="Group 366" id="Group_366" transform="translate(2.686 40.882)">
                            <path d="M462.639-431.662l-9.733,73.843H408.685l-2.328-75.112Z" data-name="Path 844"
                                  fill="#ffef83"
                                  id="Path_844" transform="translate(-405.07 434.208)"/>
                            <path d="M454.611-355.966H408.09L405.682-433.6l58.986,1.332ZM410.5-358.459h41.922l9.405-71.381-53.576-1.209Z" data-name="Path 845"
                                  fill="#29246b"
                                  id="Path_845" transform="translate(-405.682 433.601)"/>
                        </g>
                        <g data-name="Group 367" id="Group_367" transform="translate(0 29.572)">
                            <path d="M465.907-421.069l1.27-14.441-62.207-3.332.953,15.868Z" data-name="Path 846"
                                  fill="#ffef83"
                                  id="Path_846" transform="translate(-403.641 440.161)"/>
                            <path d="M467.678-419.158l-62.3-1.979-1.106-18.4,64.892,3.477Zm-59.947-4.4,57.667,1.832,1.056-11.982-59.524-3.187Z" data-name="Path 847"
                                  fill="#29246b"
                                  id="Path_847" transform="translate(-404.273 439.534)"/>
                        </g>
                        <path d="M431.471-437.483l-3.988,84.406H416.375l2.379-85.087Z" data-name="Path 848"
                              fill="#29246b"
                              id="Path_848" transform="translate(-393.306 470.348)"/>
                        <path d="M419.414-434.012s-1.843-2.137-1.342-6.2c0,0,3.143-2.722,8.673-.837,0,0,.21,5.53-1.384,7.289S419.414-434.012,419.414-434.012Z" data-name="Path 849"
                              fill="#29246b"
                              id="Path_849" transform="translate(-391.846 467.13)"/>
                        <path d="M421.661-428.758s2.857-17.219,12.7-24.438,21.979,8.41,16.584,17.137-28.643,11.9-28.643,11.9v-1.508s17.3-5.475,21.184-13.172c0,0-1.508-5.314-4.523-6.5s-14.52,12.455-16.74,17.455Z" data-name="Path 850"
                              fill="#29246b"
                              id="Path_850" transform="translate(-388.515 455.047)"/>
                        <path d="M432.932-433.72s-7.568-15.341-17.884-16.611-11.662,11.744-7.3,15.155,17.774,7.221,22.375,6.824l.4-1.138s-15.074-2.194-17.375-6.319,1.508-6.984,4.443-7.223,12.535,6.586,14.361,10.395S432.932-433.72,432.932-433.72Z" data-name="Path 851"
                              fill="#29246b"
                              id="Path_851" transform="translate(-403.246 459.243)"/>
                    </g>
                </g>
            </g>
            <g data-name="Group 378" id="Group_378" transform="translate(131.489 422.477)">
                <g data-name="Group 423" id="Group_423" transform="translate(0 0)">
                    <g data-name="Group 377" id="Group_377">
                        <path d="M455.727-376.8l-21.552-15.321c-2.06-1.464-8.455-3.283-10.607-4.611-2.881-1.778-.64-6.195.675-8.138,4.743-7.007,2.47-10.558.378-12.343-1.833-1.561-4.2-1.561-8.239,1.576-.706.547-4.435,3.771-4.791,2.952-1.943-4.477,2.233-11.587-2.4-18.242a5.2,5.2,0,0,0-2.877-2.468c-3.389-.7-4.963,4.514-8.244,5.611-3.349,1.121-6.308-2.438-7.883-5.6-1.829-3.673-3.4-7.51-5.805-10.833s-5.839-6.149-9.9-6.754a6.388,6.388,0,0,0-3.385.286c-2.3.96-3.384,3.657-3.593,6.145-.437,5.255,1.991,10.479,5.684,14.241s8.545,6.2,13.536,7.9a6.57,6.57,0,0,1,3.506,2.042c1.44,2.077-.317,5.136-2.706,5.963s-5.006.138-7.448-.523-5.094-1.279-7.437-.327c-3.268,1.327-4.725,5.519-3.725,8.9s3.923,5.921,7.145,7.356a19,19,0,0,0,9.217,1.574c2.809-.228,5.538-1.081,8.347-1.3s5.9.327,7.8,2.4c1.185,1.29,1.736,3.418.628,4.774a3.7,3.7,0,0,1-1.427,1c-4.1,1.756-10.1-.773-12.6,2.928-1.994,2.958.846,7.123,4.266,8.143s7.077.121,10.644.061c4.387-.075,8.684,1.13,12.906,2.327l31.74,8.985" data-name="Path 858"
                              fill="#29246b"
                              id="Path_858" transform="translate(-367.455 451.066)"/>
                        <path d="M374.289-441.646c13.393,6.167,17.9,20.033,25.558,31.477a42.571,42.571,0,0,0,8.69,9.894c7.259,5.769,15.545,7.383,20.637,16.05a.792.792,0,0,0,1.367-.8c-3.372-5.741-7.433-8.679-13.178-11.861-8.67-4.8-14.189-10.45-19.193-19.017-6.173-10.569-11.417-21.738-23.083-27.11-.919-.422-1.725.941-.8,1.367Z" data-name="Path 859"
                              fill="#6cc5cf"
                              id="Path_859" transform="translate(-362.093 457.723)"/>
                        <path d="M390.015-436.523c1.405,4.22-3.171,6.894-4.389,10.474-.328.967,1.2,1.382,1.527.422,1.358-3.993,5.989-6.51,4.389-11.316-.321-.963-1.85-.551-1.527.42Z" data-name="Path 860"
                              fill="#6cc5cf"
                              id="Path_860" transform="translate(-352.324 462.401)"/>
                        <path d="M374.942-423.321c8.372-6.772,15.637,1.189,24.486.121,1-.121,1.011-1.707,0-1.583-5.3.639-9.622-2.31-14.719-2.985a13.848,13.848,0,0,0-10.886,3.328c-.791.64.334,1.754,1.119,1.119Z" data-name="Path 861"
                              fill="#6cc5cf"
                              id="Path_861" transform="translate(-362.365 470.414)"/>
                        <path d="M397.326-428.449c2.18,4.369-1.719,5.857-4.033,8.565a8.489,8.489,0,0,0-1.749,5.259c-.075,1.016,1.508,1.011,1.584,0a7.225,7.225,0,0,1,2.732-5.51,15.8,15.8,0,0,0,2.756-2.631c1.525-2.134,1.2-4.231.077-6.481-.455-.912-1.822-.112-1.367.8Z" data-name="Path 862"
                              fill="#6cc5cf"
                              id="Path_862" transform="translate(-347.346 468.947)"/>
                    </g>
                    <path d="M383.618-411.553c2.9-.369,5.886-.765,8.411-2.365a36.86,36.86,0,0,0,3.028-2.573c2.444-1.945,5.152-1.714,8.02-1.626.972.029.971-1.481,0-1.51-2.541-.077-4.892-1.015-7.185.4-1.723,1.066-2.908,2.9-4.626,4-2.279,1.459-5.024,1.826-7.648,2.16-.952.121-.963,1.631,0,1.51Z" data-name="Path 863"
                          fill="#6cc5cf"
                          id="Path_863" transform="translate(-354.561 477.002)"/>
                </g>
            </g>
            <path d="M499.05-577.682c-20.307,14.774-50.936,59.261-68.09,87.88,0,0-16.3-6.367-24.354-11.406s-26.259-27.633-26.921-28.351-20.532-21.268-20.532-21.268H353.4v7.811l2.859,3.87,1.086,1.611s-39,3.494-47.342-2.593,10.934,8.791,10.934,8.791l-5.411,12.343,18.938-7.947,13.508,2.455,14.04,6.062s62.056,78.876,74.575,72.718,23.494-17.472,23.494-17.472,18.569,17.395,16.813,25.848,7.373,11.607-27.119,75.294c0,0-6.8,14.751-.749,27.081s47.69,49.843,52.455,59.3,12.488,48.828,12.488,48.828,15.949-5.578,9.523-30.6-31.785-51.063-40.916-65.6-14.541-29.42-7.778-35.846,32.639-25.241,32.639-25.241,67.327-37.349,84.637-87.7v12.174l39.274,107.153,3.314,17.795-4.987,21.811,4.987,2.96,6.55-9.028s8.7,38.765,8.079,35.659,3.547-16.908,3.547-16.908,7.837,15.444,7.294,14.358,7.339-2.677-6.787-44.287-20.288-87.92-20.288-87.92S613.273-546.867,576.331-579.68,499.05-577.682,499.05-577.682Z" data-name="Path 864"
                  fill="#6cc5cf"
                  id="Path_864" transform="translate(-302.099 745.376)"/>
            <path d="M32.976,0a32.369,32.369,0,0,1,0,64.737c-17.877,0-31.244-15.4-31.244-33.274S15.1,0,32.976,0Z" data-name="Path 994"
                  fill="#fff"
                  id="Path_994" transform="translate(167.382 71.602)"/>
            <ellipse cx="32.369" cy="32.369" data-name="Ellipse 78" fill="#fff" id="Ellipse_78" rx="32.369"
                     ry="32.369" transform="translate(231.801 69.491)"/>
            <path d="M402.462-607.406l-9.965,11.2v8.255l8.692,14.71,62.734,21.072,52.553-15.257,20.78-20.525-10.02-15.529s-5.224-10.655-7.944-7.141-10.209,14.826-11.708,14.415-10.94,3.156-12.813,3.02-11.165-4.879-13.417-6.1-18.072-14.294-18.072-14.294l-3.95,7.47L433.1-598.558s-14.883-2.554-15-3.3-10.314-7.822-10.314-7.822Z" data-name="Path 865"
                  fill="#6cc5cf"
                  id="Path_865" transform="translate(-231.482 728.836)"/>
            <path d="M403.88-599.191s28.167-15.8,33.461-33.975,7.617-14.233,7.617-14.233-7.417,6.848-8.916,3.552-10.626-9.591-10.626-9.591.616-15.217,2.954-14.986,12.56-6.686,12.56-6.686,8.6.993,10.1,2.49,8.329.989,9.395,2.009,43.257,66.927,43.257,66.927l-26.156-4.787s-21.358,15.569-20.931,17.059-13.057-7.18-13.057-7.18l-9.292-9.879Z" data-name="Path 866"
                  fill="#6cc5cf"
                  id="Path_866" transform="translate(-221.978 677.461)"/>
            <path d="M446.853-605.73a22.491,22.491,0,0,1-4.941,14.11,27.58,27.58,0,0,1-16.422,5.4,27.619,27.619,0,0,1-22.358-11.352,22.441,22.441,0,0,1-1.521-8.154,22.621,22.621,0,0,1,22.622-22.62A22.619,22.619,0,0,1,446.853-605.73Z" data-name="Path 867"
                  fill="#29246b"
                  id="Path_867" transform="translate(-223.874 716.501)"/>
            <path d="M477.9-614.671a21.64,21.64,0,0,1-.02,17.864,26.216,26.216,0,0,1-9.116,6.772,26.549,26.549,0,0,1-29.817-5.569c-.224-.4-.426-.82-.617-1.244a21.7,21.7,0,0,1,10.873-28.7A21.7,21.7,0,0,1,477.9-614.671Z" data-name="Path 868"
                  fill="#29246b"
                  id="Path_868" transform="translate(-194.822 717.241)"/>
            <path d="M483.585-582.155a3.5,3.5,0,0,1-1.629-.4,3.523,3.523,0,0,1-1.486-4.754,11.551,11.551,0,0,0,1.325-5.406,11.677,11.677,0,0,0-11.664-11.662c-4.646,0-10.806,4.327-10.806,7.589a3.523,3.523,0,0,1-3.521,3.523,3.522,3.522,0,0,1-3.521-3.523c0-7.881,9.813-14.633,17.848-14.633a18.729,18.729,0,0,1,18.707,18.706,18.75,18.75,0,0,1-2.128,8.674A3.517,3.517,0,0,1,483.585-582.155Z" data-name="Path 869"
                  fill="#29246b"
                  id="Path_869" transform="translate(-181.569 730.633)"/>
            <path d="M430.3-570.983a34.331,34.331,0,0,1-34.292-34.292A34.33,34.33,0,0,1,430.3-639.567a34.33,34.33,0,0,1,34.29,34.292A34.331,34.331,0,0,1,430.3-570.983Zm0-61.542a27.28,27.28,0,0,0-27.25,27.25,27.28,27.28,0,0,0,27.25,27.248,27.28,27.28,0,0,0,27.248-27.248A27.28,27.28,0,0,0,430.3-632.525Z" data-name="Path 870"
                  fill="#29246b"
                  id="Path_870" transform="translate(-228.55 707.136)"/>
            <path d="M463.84-570.983a34.331,34.331,0,0,1-34.292-34.292,34.33,34.33,0,0,1,34.292-34.292,34.33,34.33,0,0,1,34.29,34.292,34.151,34.151,0,0,1-9.389,23.574,3.52,3.52,0,0,1-4.978.136,3.522,3.522,0,0,1-.136-4.978,27.138,27.138,0,0,0,7.461-18.732,27.28,27.28,0,0,0-27.248-27.25,27.28,27.28,0,0,0-27.25,27.25,27.28,27.28,0,0,0,27.25,27.248,27.055,27.055,0,0,0,10.888-2.262c1.791-.778,3.509-1.227,4.286.555s.314,5.122-1.469,5.9A34.039,34.039,0,0,1,463.84-570.983Z" data-name="Path 871"
                  fill="#29246b"
                  id="Path_871" transform="translate(-200.549 707.136)"/>
            <path d="M496.608-594.294a3.513,3.513,0,0,1-2.978-1.638c-11.1-17.534-18.653-30.074-25.242-41.933l-.272-.488a150.285,150.285,0,0,0-14.349-21.567c-6.534-8.266-10.629-8.84-12.173-9.055-.251-.037-.466-.068-.64-.1-7.866-1.51-16.481,3.538-18.828,11.024-.022.068-2.292,7.541,1.494,10.82,1.98,1.716,5.728,2.444,8.156.8.925-.631,2.618-2.341,2.376-4.3-.139-1.132-.8-2.418-1.293-2.5-.558-.083-1.721.514-2.178,2.039a3.523,3.523,0,0,1-4.387,2.36,3.522,3.522,0,0,1-2.358-4.387c1.415-4.708,5.752-7.7,10.112-6.952,4.261.729,6.633,4.837,7.1,8.584.613,4.982-2.534,9.033-5.413,10.987-4.868,3.3-12.055,2.741-16.721-1.3-7.106-6.154-3.984-17.024-3.6-18.244,3.42-10.929,15.47-18.035,26.877-15.841l.288.042c2.306.323,8.437,1.18,16.723,11.666a156.944,156.944,0,0,1,14.984,22.519l.266.481c6.519,11.734,14.007,24.171,25.035,41.586a3.522,3.522,0,0,1-1.092,4.859A3.5,3.5,0,0,1,496.608-594.294Z" data-name="Path 872"
                  fill="#29246b"
                  id="Path_872" transform="translate(-213.198 676.392)"/>
            <path d="M407.315-607.933a3.517,3.517,0,0,1-2.9-1.517,3.52,3.52,0,0,1,.89-4.9c.321-.224,32.29-22.609,37.631-46.191a3.522,3.522,0,0,1,4.213-2.657,3.52,3.52,0,0,1,2.657,4.213c-5.951,26.266-39.085,49.452-40.494,50.426A3.508,3.508,0,0,1,407.315-607.933Z" data-name="Path 873"
                  fill="#29246b"
                  id="Path_873" transform="translate(-222.052 687.332)"/>
            <g data-name="Group 379" id="Group_379" transform="translate(158.643 119.21)">
                <path d="M421.394-598.08c-1.815-6.668-6.76-11.424-13.086-11.424a15.187,15.187,0,0,0-15.186,15.185,15.137,15.137,0,0,0,4.365,10.653" data-name="Path 874"
                      fill="#6cc5cf"
                      id="Path_874" transform="translate(-389.603 613.025)"/>
                <path d="M399.087-578.54a3.513,3.513,0,0,1-2.51-1.053,18.6,18.6,0,0,1-5.372-13.123,18.727,18.727,0,0,1,18.7-18.706c7.7,0,14.169,5.5,16.483,14.02a3.521,3.521,0,0,1-2.472,4.323,3.515,3.515,0,0,1-4.323-2.475c-1.481-5.442-5.193-8.824-9.688-8.824a11.677,11.677,0,0,0-11.664,11.662,11.6,11.6,0,0,0,3.354,8.184,3.523,3.523,0,0,1-.04,4.98A3.511,3.511,0,0,1,399.087-578.54Z" data-name="Path 875"
                      fill="#29246b"
                      id="Path_875" transform="translate(-391.204 611.423)"/>
            </g>
            <path d="M459.688-575.122c-24.09,0-44.756-11.745-57.938-21.692a1.762,1.762,0,0,1-.343-2.468,1.76,1.76,0,0,1,2.464-.345c21.925,16.551,65.378,38.281,110.048-2.106a1.761,1.761,0,0,1,2.486.125,1.76,1.76,0,0,1-.125,2.488C496.65-581.372,477.259-575.122,459.688-575.122Z" data-name="Path 876"
                  fill="#29246b"
                  id="Path_876" transform="translate(-224.341 738.343)"/>
            <path d="M402.322-592.21a1.759,1.759,0,0,1-1.758-1.7,8.286,8.286,0,0,1,5.58-8.4,1.759,1.759,0,0,1,2.195,1.174,1.762,1.762,0,0,1-1.16,2.193,4.721,4.721,0,0,0-3.1,4.9,1.764,1.764,0,0,1-1.7,1.826Z" data-name="Path 877"
                  fill="#29246b"
                  id="Path_877" transform="translate(-224.753 738.181)"/>
            <path d="M466.733-593.249h-.066a1.764,1.764,0,0,1-1.7-1.826,4.688,4.688,0,0,0-3.081-4.9,1.762,1.762,0,0,1-1.174-2.2,1.759,1.759,0,0,1,2.194-1.174,8.286,8.286,0,0,1,5.58,8.4A1.759,1.759,0,0,1,466.733-593.249Z" data-name="Path 878"
                  fill="#29246b"
                  id="Path_878" transform="translate(-174.591 737.312)"/>
            <ellipse cx="4.571" cy="4.571" data-name="Ellipse 79" fill="#fff" id="Ellipse_79" rx="4.571"
                     ry="4.571" transform="translate(253.927 97.289)"/>
            <ellipse cx="2.954" cy="2.954" data-name="Ellipse 80" fill="#fff" id="Ellipse_80" rx="2.954"
                     ry="2.954" transform="translate(268.324 105.292)"/>
            <ellipse cx="2.954" cy="2.954" data-name="Ellipse 81" fill="#fff" id="Ellipse_81" rx="2.954"
                     ry="2.954" transform="translate(252.589 112.306)"/>
            <ellipse cx="5.694" cy="5.694" data-name="Ellipse 82" fill="#fff" id="Ellipse_82" rx="5.694"
                     ry="5.694" transform="translate(191.257 98.277)"/>
            <ellipse cx="2.954" cy="2.954" data-name="Ellipse 83" fill="#fff" id="Ellipse_83" rx="2.954"
                     ry="2.954" transform="translate(203.438 109.35)"/>
            <ellipse cx="2.954" cy="2.954" data-name="Ellipse 84" fill="#fff" id="Ellipse_84" rx="2.954"
                     ry="2.954" transform="translate(183.657 112.306)"/>
            <path d="M466.776-557.272c-.684,0-1.38-.031-2.083-.1l-.949-.09c-34.09-3.717-74.208-24.051-72.511-42.49a3.534,3.534,0,0,1,3.829-3.183,3.522,3.522,0,0,1,3.185,3.829c-1.055,11.435,32.112,31.12,66.206,34.839l.893.082a14.271,14.271,0,0,0,3.09-.035c33.749-4.3,65.369-23.455,64.342-34.617a3.521,3.521,0,0,1,3.184-3.829,3.52,3.52,0,0,1,3.829,3.184c1.679,18.217-37.176,38.009-70.465,42.25A20.024,20.024,0,0,1,466.776-557.272Z" data-name="Path 879"
                  fill="#29246b"
                  id="Path_879" transform="translate(-232.579 737.541)"/>
            <path d="M376.572-492.973a3.5,3.5,0,0,1-1.7-.44,3.524,3.524,0,0,1-1.378-4.785c37.855-68.452,48.69-75.247,66.643-86.507l2.648-1.666a3.525,3.525,0,0,1,4.859,1.092,3.522,3.522,0,0,1-1.092,4.859l-2.673,1.683c-16.991,10.657-27.246,17.09-64.219,83.948A3.525,3.525,0,0,1,376.572-492.973Z" data-name="Path 880"
                  fill="#29246b"
                  id="Path_880" transform="translate(-247.715 751.092)"/>
            <path d="M443.341-460.121a12.3,12.3,0,0,1-1.552-.1c-15.5-1.96-49.635-34.046-60.654-51.558l-.217-.345c-5.413-8.7-11.7-16.218-17.253-20.631-5.683-4.514-26.677-10.343-40.571-14.2-15.5-4.3-16.963-4.765-17.943-6.973a4.534,4.534,0,0,1,.172-4.1c1.385-2.471,4.9-3.271,6.873-3.53l.794-.1.76.251c15.963,5.24,32.229,4.51,40.164,3.528a49.675,49.675,0,0,1-3.2-4.9c-1.989-3.58-.784-6.461,1.011-7.963a7.624,7.624,0,0,1,9.127-.035c17.732,11.332,31.681,29.182,40.637,41.635,3.33,4.627,8.675,6.706,15.44,9.339,7.457,2.9,16.734,6.508,26.035,14.934a3.522,3.522,0,0,1,.242,4.974,3.52,3.52,0,0,1-4.974.246c-8.334-7.554-16.582-10.762-23.855-13.591-7.229-2.811-14.059-5.466-18.6-11.789-8.435-11.727-21.429-28.4-37.646-39.12,1.079,1.633,2.3,3.24,3.193,4.422,1.64,2.165,2.193,2.9,2.193,4.255v1.8l-1.477,1.081c-1.343.973-11.519,2.91-24.67,2.356,14.281,4.156,25.749,8.053,30.679,11.969,8.43,6.7,15.43,16.925,18.851,22.426l.16.255c10.765,17.107,43.543,46.854,55.613,48.378a2.485,2.485,0,0,0,1.47-.081c8.163-7.721,18.929-19.332,19.035-19.448a3.524,3.524,0,0,1,4.976-.191,3.523,3.523,0,0,1,.193,4.976c-.11.119-11.033,11.9-19.362,19.778A7.918,7.918,0,0,1,443.341-460.121ZM356.733-566.514Z" data-name="Path 881"
                  fill="#29246b"
                  id="Path_881" transform="translate(-304.744 763.312)"/>
            <path d="M529.925-282.107a3.882,3.882,0,0,1-2.752-1.171c-1.677-1.679-2.215-4.967-3.662-15.108-.752-5.27-1.626-11.385-2.785-16.986-1.545,2.42-3.677,4.369-6.826,4.152a5.836,5.836,0,0,1-4.358-2.42c-1.938-2.631-3.314-7.857,1.169-26.681,2.017-8.78-28.646-89.727-44.552-125.753a3.522,3.522,0,0,1,1.8-4.644,3.529,3.529,0,0,1,4.644,1.8c8.371,18.963,48.156,116.806,44.962,130.23-2.881,12.086-2.984,17.31-2.716,19.475a32.4,32.4,0,0,0,1.976-4.369c1.011-2.6,1.965-5.061,4.763-5.061h.044a3.921,3.921,0,0,1,3.672,2.8,129.088,129.088,0,0,1,4.028,18.646,3.868,3.868,0,0,1,2.971-2.141,3.9,3.9,0,0,1,3.73,1.631c-1.213-3.917-2.738-7.989-4.488-12.666-6.413-17.134-15.2-40.6-22.5-90.824-1.2-8.253-2.275-15.9-3.281-23.031-9.628-68.333-12.532-88.955-52.872-148.28a3.521,3.521,0,0,1,.93-4.892,3.523,3.523,0,0,1,4.894.932c41.261,60.679,44.475,83.5,54.022,151.256,1,7.125,2.079,14.762,3.277,23,7.191,49.474,15.822,72.531,22.125,89.366,4.692,12.536,8.084,21.595,8.007,34.925a3.986,3.986,0,0,1-3.25,4.251c-1.442.239-3.934.668-7.818-8.259-.89,8.407-2.288,8.965-3.747,9.543A3.792,3.792,0,0,1,529.925-282.107Zm2.611-5.65Zm6.569-.185v0Z" data-name="Path 882"
                  fill="#29246b"
                  id="Path_882" transform="translate(-181.569 750.182)"/>
            <path d="M427.875-480.745a3.511,3.511,0,0,1-1.6-.387c-39.753-20.3-39.5-50.756-37.259-57.8a3.519,3.519,0,0,1,4.424-2.288,3.522,3.522,0,0,1,2.288,4.424c-.09.277-5.635,29.277,33.751,49.393a3.52,3.52,0,0,1,1.534,4.738A3.52,3.52,0,0,1,427.875-480.745Z" data-name="Path 883"
                  fill="#29246b"
                  id="Path_883" transform="translate(-235.056 789.102)"/>
            <path d="M450.05-247.139l-1.395-11.686c-5.246-43.936-10.075-47.977-26.07-61.362-4.25-3.556-9.066-7.585-14.851-13.1-27.732-26.435-35.842-45.635-10.583-89.52,22-38.226,15.057-49.03,2.457-68.641l-.479-.743a3.523,3.523,0,0,1,1.061-4.866A3.522,3.522,0,0,1,405.056-496l.475.741c13.163,20.487,21.859,34.021-2.277,75.96-22.718,39.472-17.3,55.514,9.341,80.909,5.618,5.358,10.341,9.31,14.51,12.8,14.9,12.466,21.484,17.978,26.692,52.122,8.7-33.525-16.749-58.105-27.026-68.03a48.611,48.611,0,0,1-3.725-3.809c-5.3-6.635-16.18-20.268-16.4-33.587-.218-13.418,8.308-19.659,63.784-60.255l8.263-6.048c57.433-42.059,53.2-84.353,51.169-104.68l-.119-1.191a3.524,3.524,0,0,1,3.16-3.85,3.514,3.514,0,0,1,3.851,3.158l.116,1.182c1.994,19.938,6.666,66.624-54.015,111.061l-8.264,6.051c-52.369,38.323-61.057,44.954-60.9,54.455.18,10.917,10.053,23.285,14.8,29.228.519.651,1.752,1.84,3.18,3.218,11.345,10.958,45.872,44.3,23.639,88.891Z" data-name="Path 884"
                  fill="#29246b"
                  id="Path_884" transform="translate(-240.277 777.794)"/>
            <path d="M313.666-542.419a3.524,3.524,0,0,1-2.24-.8,3.518,3.518,0,0,1-1.262-3.075c1.039-10.176,11.338-14.987,11.776-15.189l2.923,6.407-1.461-3.2,1.475,3.2a17.518,17.518,0,0,0-3.156,2.053c6.769-2.811,14.354-5.428,19.954-3.561l-2.222,6.683c-4.061-1.352-13.094,2.534-18.492,4.853-2.475,1.064-4.615,1.984-6.273,2.488A3.557,3.557,0,0,1,313.666-542.419Z" data-name="Path 885"
                  fill="#29246b"
                  id="Path_885" transform="translate(-300.236 772.321)"/>
            <g data-name="Group 394" id="Group_394" transform="translate(104.569 438.754)">
                <g data-name="Group 393" id="Group_393">
                    <path d="M420.424-389.347a2.118,2.118,0,0,1-2.033-1.532,2.118,2.118,0,0,1,1.448-2.622h0l1.769-.51a2.119,2.119,0,0,1,2.479,1.086,2.116,2.116,0,0,1-.618,2.639l-.428.325a2.115,2.115,0,0,1-1.251.428,2.951,2.951,0,0,0-.772.1l-.005,0A2.1,2.1,0,0,1,420.424-389.347Z" data-name="Path 886"
                          fill="#161f58"
                          id="Path_886" transform="translate(-314.502 473.322)"/>
                    <path d="M429.14-395.871a2.08,2.08,0,0,1-.516-.064,2.269,2.269,0,0,1-.444-.163,2.138,2.138,0,0,1-.512-.361,2.115,2.115,0,0,1-.378-2.6,2.118,2.118,0,0,1,2.778-.833c.046.024.092.05.134.075a2.116,2.116,0,0,1,.923,2.565A2.12,2.12,0,0,1,429.14-395.871Z" data-name="Path 887"
                          fill="#161f58"
                          id="Path_887" transform="translate(-307.242 468.292)"/>
                    <path d="M429.316-395.575a2,2,0,0,1-1.433-.571,2.168,2.168,0,0,1-.582-2.009,2.311,2.311,0,0,1,.976-1.4,2.2,2.2,0,0,1,1.631-.325,2.235,2.235,0,0,1,.679.3,2.119,2.119,0,0,1,.91,2.136l-.011.057a2.219,2.219,0,0,1-1.464,1.7A2.392,2.392,0,0,1,429.316-395.575Z" data-name="Path 888"
                          fill="#161f58"
                          id="Path_888" transform="translate(-307.04 468.45)"/>
                    <path d="M439.269-394.706c-.05,0-.1,0-.149-.005l-.483-.033a2.119,2.119,0,0,1-1.969-2.04,2.119,2.119,0,0,1,1.824-2.171l.231-.033.91-.264a2.118,2.118,0,0,1,2.62,1.446,2.117,2.117,0,0,1-1.442,2.624,3.024,3.024,0,0,0-.556.233A2.1,2.1,0,0,1,439.269-394.706Z" data-name="Path 889"
                          fill="#161f58"
                          id="Path_889" transform="translate(-299.174 468.947)"/>
                    <g data-name="Group 382" id="Group_382" transform="translate(120.193 68.488)">
                        <path d="M428.514-398.717l-.06-.042c-.011.06-.02.116-.031.174l-.018-.022-.011.053.437.031a3.125,3.125,0,0,1-.279-.281Z" data-name="Path 890"
                              fill="#c0ccb0"
                              id="Path_890" transform="translate(-426.275 400.903)"/>
                        <path d="M429.782-395.449c-.048,0-.094,0-.143-.006l-.435-.031a2.114,2.114,0,0,1-1.591-.91,2.118,2.118,0,0,1-.323-1.67,2.15,2.15,0,0,1,.442-.923l.066-.083a2.147,2.147,0,0,1,1.382-.848,2.11,2.11,0,0,1,1.934.681,2.192,2.192,0,0,1,.589,2.449A2.109,2.109,0,0,1,429.782-395.449Z" data-name="Path 891"
                              fill="#161f58"
                              id="Path_891" transform="translate(-427.239 399.948)"/>
                    </g>
                    <g data-name="Group 383" id="Group_383" transform="translate(118.571 29.672)">
                        <path d="M486.229-406.068c29.532.809,46.026-4.809,51.969-7.385l-8.367-5.34c-15.448,4.026-29.826,4.378-42.679,4.108-7.613-.16-17.787-.4-27.4,1.527-19.463,13.67-28.9,27.017-31.09,30.365C442.312-401.6,458.193-406.835,486.229-406.068Z" data-name="Path 892"
                              fill="#ffef83"
                              id="Path_892" transform="translate(-424.427 423.03)"/>
                        <path d="M531.759-416.865l8.367,5.34c-5.551,2.406-20.3,7.464-46.277,7.464-1.839,0-3.74-.026-5.69-.079-1.73-.048-3.407-.072-5.046-.072-24.938,0-39.716,5.7-52.521,23.347,2.189-3.349,11.628-16.7,31.09-30.365a101.872,101.872,0,0,1,19.8-1.633c2.714,0,5.277.057,7.6.106,2.015.042,4.066.07,6.154.07a142.488,142.488,0,0,0,36.525-4.178m0-4.237a4.216,4.216,0,0,0-1.068.136c-10.721,2.794-21.655,4.042-35.457,4.042-1.89,0-3.873-.024-6.064-.07l-.3-.005c-2.226-.048-4.747-.1-7.389-.1a106.886,106.886,0,0,0-20.629,1.714,4.233,4.233,0,0,0-1.6.686c-19.9,13.98-29.679,27.657-32.2,31.516a4.239,4.239,0,0,0,1.143,5.807,4.223,4.223,0,0,0,2.4.747,4.231,4.231,0,0,0,3.433-1.749c11.569-15.945,24.417-21.6,49.092-21.6,1.571,0,3.228.024,4.928.07,1.951.053,3.9.081,5.807.081,26.05,0,41.231-4.9,47.962-7.815a4.237,4.237,0,0,0,2.538-3.55,4.232,4.232,0,0,0-1.943-3.906l-8.367-5.341a4.232,4.232,0,0,0-2.279-.664Z" data-name="Path 893"
                              fill="#29246b"
                              id="Path_893" transform="translate(-426.355 421.102)"/>
                    </g>
                    <g data-name="Group 384" id="Group_384" transform="translate(120.236 68.503)">
                        <path d="M428.417-398.785v0l0,0Z" data-name="Path 894" fill="#e2e6da"
                              id="Path_894" transform="translate(-426.298 400.902)"/>
                        <path d="M429.379-395.7a2.118,2.118,0,0,1-2.117-2.117,2.118,2.118,0,0,1,2.117-2.117,2.119,2.119,0,0,1,2.121,2.117A2.119,2.119,0,0,1,429.379-395.7Z" data-name="Path 895"
                              fill="#161f58"
                              id="Path_895" transform="translate(-427.262 399.939)"/>
                    </g>
                    <g data-name="Group 385" id="Group_385" transform="translate(120.352 35.888)">
                        <path d="M486.384-407.931c-28.037-.767-43.918,4.466-57.565,23.275-.04.057-.081.108-.121.165-.072.173-.147.341-.218.514a3.1,3.1,0,0,0,.279.281l16.864,1.22c.248-.035.389-.057.389-.057l1.046-.3,95.858-27.635,1.916-.552-3.9-5.541a26.379,26.379,0,0,1-2.574,1.246C532.41-412.74,515.916-407.121,486.384-407.931Z" data-name="Path 896"
                              fill="#fff"
                              id="Path_896" transform="translate(-426.362 418.676)"/>
                        <path d="M446.585-379.4c-.051,0-.1,0-.152,0l-16.866-1.222a2.1,2.1,0,0,1-1.25-.527,5.243,5.243,0,0,1-.472-.475,2.116,2.116,0,0,1-.365-2.185l.224-.53a2.123,2.123,0,0,1,.264-.466c13.637-18.791,29.182-25.116,59.437-24.281h0c29.231.8,45.45-4.776,51.068-7.211a24.9,24.9,0,0,0,2.347-1.132,2.127,2.127,0,0,1,2.8.609l3.9,5.541a2.117,2.117,0,0,1,.268,1.925,2.118,2.118,0,0,1-1.413,1.332l-98.817,28.487a2.4,2.4,0,0,1-.253.057l-.429.062A1.986,1.986,0,0,1,446.585-379.4Zm-13.461-5.215,13.382.967.016,0,95.824-27.624-1.136-1.615q-.465.218-1.053.473c-5.875,2.549-22.813,8.389-52.868,7.56C459.886-405.6,445.343-400.262,433.125-384.611Z" data-name="Path 897"
                              fill="#29246b"
                              id="Path_897" transform="translate(-427.325 417.714)"/>
                    </g>
                    <g data-name="Group 386" id="Group_386" transform="translate(8.226 57.057)">
                        <path d="M416.647-384c19.747-13.184,34.408-18.092,51.527-14.035a134.415,134.415,0,0,0-33.745-5.839c-8.84,3.521-17,8.947-23.167,13.007-10.738,7.07-23.125,14.332-38.345,19.145l-4.391,9.163C374.777-363.483,391.831-367.425,416.647-384Z" data-name="Path 898"
                              fill="#ffef83"
                              id="Path_898" transform="translate(-364.29 408.104)"/>
                        <path d="M436.357-401.942A134.421,134.421,0,0,1,470.1-396.1a49.245,49.245,0,0,0-11.428-1.385c-12.648,0-24.859,5.246-40.1,15.42-24.817,16.571-41.87,20.512-48.121,21.442l4.391-9.163c15.222-4.813,27.607-12.075,38.345-19.145,6.167-4.061,14.329-9.486,23.167-13.007m0-4.235a4.247,4.247,0,0,0-1.567.3c-9.046,3.6-17.409,9.11-23.517,13.132l-.413.271c-9.9,6.519-22.07,13.831-37.292,18.644a4.248,4.248,0,0,0-2.543,2.209l-4.391,9.163a4.238,4.238,0,0,0,.411,4.347,4.239,4.239,0,0,0,3.409,1.721,4.221,4.221,0,0,0,.624-.046c6.475-.963,24.3-5.048,49.85-22.108,15.44-10.31,26.729-14.708,37.747-14.708a44.85,44.85,0,0,1,10.451,1.272,4.257,4.257,0,0,0,.978.114,4.236,4.236,0,0,0,4.081-3.107,4.239,4.239,0,0,0-2.8-5.169,139.078,139.078,0,0,0-34.813-6.03q-.107-.005-.215-.005Z" data-name="Path 899"
                              fill="#29246b"
                              id="Path_899" transform="translate(-366.217 406.177)"/>
                    </g>
                    <g data-name="Group 387" id="Group_387" transform="translate(119.476 67.982)">
                        <path d="M427.987-399.084l.029.11.292.116-.007-.007Z" data-name="Path 900" fill="#c0ccb0"
                              id="Path_900" transform="translate(-425.897 401.175)"/>
                        <path d="M429.259-395.79a2.1,2.1,0,0,1-.8-.156,2.759,2.759,0,0,1-1.54-1.539,2.189,2.189,0,0,1,.822-2.328,2.1,2.1,0,0,1,2.411-.055l-.363.659.409-.6.044.024.011-.013.22.156a2.123,2.123,0,0,1,.547.561,2.12,2.12,0,0,1-.121,2.516A2.122,2.122,0,0,1,429.259-395.79Zm-.769-1.605-.995.662Zm.624-.989-.174.253Z" data-name="Path 901"
                              fill="#161f58"
                              id="Path_901" transform="translate(-426.848 400.223)"/>
                    </g>
                    <g data-name="Group 388" id="Group_388" transform="translate(0 50.112)">
                        <path d="M481.4-391.82l-.029-.11c-18.587-12.991,13.8,2.479-3.595-1.224-21.4-16.061-97.087-16.967-98.3-11.42L364.043-388.2c29.485-11.086,54.7-13.492,74.129-12.51a134.413,134.413,0,0,1,33.745,5.838A67.477,67.477,0,0,1,481.4-391.82Z" data-name="Path 902"
                              fill="#ffef83"
                              id="Path_902" transform="translate(-359.806 411.889)"/>
                        <path d="M404.314-405.725c24.4,0,61.393,4.024,75.362,14.477-1.982-.677-3.921-1.242-5.831-1.7a134.415,134.415,0,0,0-33.745-5.839q-3.831-.193-7.958-.2c-18.174,0-40.564,3.081-66.171,12.708l15.437-16.374c.422-1.93,9.864-3.081,22.907-3.079m79.509,15.088a12.2,12.2,0,0,1-1.611-.134m-2.507-.455-.029-.022m.121.04c.949.2,1.749.343,2.415.437q.512.366,1.088.769l.029.11q-1.789-.716-3.532-1.316m-75.483-18.754v0a136.164,136.164,0,0,0-16.736.851c-3.9.508-8.07,1.3-9.717,4.051l-14.973,15.881a4.235,4.235,0,0,0-.444,5.253,4.236,4.236,0,0,0,3.527,1.89,4.215,4.215,0,0,0,1.49-.272c21.951-8.253,43.712-12.437,64.681-12.437,2.589,0,5.195.064,7.745.193a130.523,130.523,0,0,1,32.674,5.644c.1.033.2.061.306.086,1.677.4,3.42.9,5.187,1.5a4.363,4.363,0,0,0,.565.194c1.026.356,2.079.75,3.138,1.173a4.233,4.233,0,0,0,1.573.3,4.237,4.237,0,0,0,2.815-1.07l.068-.062c.059-.02.116-.044.172-.068a4.624,4.624,0,0,0,2.886-4.253c0-5.062-2.635-4.1-4.877-4.1-.969,0-8.576-4.053-9.314-3.569-18.857-8.712-52.11-11.182-70.765-11.182Z" data-name="Path 903"
                              fill="#29246b"
                              id="Path_903" transform="translate(-361.734 409.962)"/>
                    </g>
                    <g data-name="Group 389" id="Group_389" transform="translate(117.69)">
                        <path d="M430.154-369.633l-.033-.11c8.82-20.89-10.365,9.446,2.391-2.949,9.565-24.987,73.156-66.046,77.134-61.995l21.784,5.644c-30.861,6.312-53.485,17.7-69.411,28.872a134.438,134.438,0,0,0-25.459,22.9A67.251,67.251,0,0,0,430.154-369.633Z" data-name="Path 904"
                              fill="#ffef83"
                              id="Path_904" transform="translate(-424.113 439.2)"/>
                        <path d="M510.735-433.036a1.266,1.266,0,0,1,.927.277l21.783,5.644c-30.861,6.312-53.485,17.7-69.413,28.872a134.47,134.47,0,0,0-25.457,22.9q-2.064,2.1-4.035,4.539c9.161-23.83,67.365-62.237,76.195-62.237m-78.566,66.061c-1.156.972-1.394-.7-1.785-.7m4.075-3.022.081-.1m-1.892,3.824c-.771.958.277-1.769-.479-.73l1.015-.171c.182-.431-.7.587-.536.2.514-.431-1.872,1.378-1.174.7m79.261-70.3h0c-7.163,0-28.152,13.773-40.512,23.028-10.374,7.769-27.268,21.543-35.8,34.626l-5.681,7.973,1.638.606c-1.947,0,2.677-5.579,0-.951-2.222,3.846-5.172,4.207-3.983,6.268a4.544,4.544,0,0,0,3.983,2.283,4.862,4.862,0,0,0,1-.1l.092.017a4.267,4.267,0,0,0,.7.059,4.242,4.242,0,0,0,3.426-1.743c.672-.923,1.354-1.818,2.031-2.664a4.343,4.343,0,0,0,.376-.466c1.178-1.446,2.387-2.8,3.593-4.028.075-.075.147-.154.215-.235a130.532,130.532,0,0,1,24.657-22.171c19.11-13.409,41.93-22.894,67.828-28.189a4.236,4.236,0,0,0,3.387-4.04,4.239,4.239,0,0,0-3.173-4.211L513.338-436.7a5.793,5.793,0,0,0-2.6-.573Z" data-name="Path 905"
                              fill="#29246b"
                              id="Path_905" transform="translate(-426.127 437.273)"/>
                    </g>
                    <g data-name="Group 390" id="Group_390" transform="translate(108.527 72.028)">
                        <path d="M449.18-394.392a4.232,4.232,0,0,1,0-1.378l-15.121-1.094-12.024,9.074a4.218,4.218,0,0,1,.58.921c.479.789,3.824,5.446,14.433,2.389a4.323,4.323,0,0,1,.75-.145,4.463,4.463,0,0,1,.714-.277C449-387.926,449.217-393.484,449.18-394.392Z" data-name="Path 906"
                              fill="#29246b"
                              id="Path_906" transform="translate(-419.917 398.982)"/>
                        <path d="M431.518-380.372c-6.637,0-9.207-3.541-9.751-4.435a2.262,2.262,0,0,1-.121-.228,2.143,2.143,0,0,0-.3-.472,2.118,2.118,0,0,1-.446-1.585,2.118,2.118,0,0,1,.826-1.428l12.024-9.074a2.178,2.178,0,0,1,1.427-.422l15.121,1.094a2.122,2.122,0,0,1,1.5.793,2.116,2.116,0,0,1,.435,1.642,2.172,2.172,0,0,0,0,.7,2.006,2.006,0,0,1,.029.277c.053,1.336-.286,8.174-12.2,11.607a2.424,2.424,0,0,0-.382.15,2.066,2.066,0,0,1-.685.2,2.442,2.442,0,0,0-.391.073A25.638,25.638,0,0,1,431.518-380.372Zm-5.589-6.013c1.149,1.059,4.319,2.9,11.5.831a6.123,6.123,0,0,1,.745-.165,5.938,5.938,0,0,1,.723-.257c7.521-2.169,8.855-5.582,9.086-6.864l-12.316-.892Z" data-name="Path 907"
                              fill="#29246b"
                              id="Path_907" transform="translate(-420.881 398.018)"/>
                    </g>
                    <g data-name="Group 391" id="Group_391" transform="translate(5.246 41.8)">
                        <path d="M595.287-413.16l-95.857,27.635a4.976,4.976,0,0,0-.952.393l-.482-.035-16.864-1.22-.437-.031-.633-.046L466.075-375.91l-.428.323a5.023,5.023,0,0,0-1.341.187l-95.272,27.464a4.543,4.543,0,0,0-3.106,5.624,4.543,4.543,0,0,0,5.624,3.106l92.358-26.626c3.261,3.279,10.156,7.435,22.648,3.833a4.365,4.365,0,0,0,.712-.277,4.374,4.374,0,0,0,.752-.145c12.466-3.593,15.976-10.712,16.91-15.237l92.87-26.773a4.543,4.543,0,0,0,3.106-5.624A4.543,4.543,0,0,0,595.287-413.16ZM485.5-371.148a4.458,4.458,0,0,0-.714.277,4.329,4.329,0,0,0-.75.145c-10.609,3.057-13.954-1.6-14.433-2.389a4.217,4.217,0,0,0-.58-.921l12.024-9.073,15.121,1.094a4.23,4.23,0,0,0,0,1.378C496.209-379.73,495.992-374.172,485.5-371.148Z" data-name="Path 908"
                              fill="#6cc5cf"
                              id="Path_908" transform="translate(-363.629 415.456)"/>
                        <path d="M371.248-335.943a6.618,6.618,0,0,1-3.213-.835,6.611,6.611,0,0,1-3.178-3.985,6.616,6.616,0,0,1,.569-5.064,6.615,6.615,0,0,1,3.987-3.18l95.272-27.464a6.793,6.793,0,0,1,1.16-.227l13.9-10.494a2.139,2.139,0,0,1,1.428-.422l17.861,1.294a6.271,6.271,0,0,1,.765-.275l95.863-27.635h0a6.667,6.667,0,0,1,8.244,4.556,6.622,6.622,0,0,1-.571,5.066,6.615,6.615,0,0,1-3.985,3.178L507.66-375c-1.343,4.716-5.477,11.941-18.09,15.576a6.2,6.2,0,0,1-.743.165,6.226,6.226,0,0,1-.716.255c-12.622,3.637-20.086-.253-23.8-3.5L373.1-336.207A6.623,6.623,0,0,1,371.248-335.943Zm96.632-36.984a2.121,2.121,0,0,1-1.244.422,2.9,2.9,0,0,0-.776.1l-95.274,27.466a2.4,2.4,0,0,0-1.451,1.156,2.421,2.421,0,0,0-.207,1.844,2.415,2.415,0,0,0,1.158,1.451,2.417,2.417,0,0,0,1.842.207L464.289-366.9a2.118,2.118,0,0,1,2.088.541c3.251,3.27,9.455,6.494,20.558,3.292a2.458,2.458,0,0,0,.382-.151,2.128,2.128,0,0,1,.677-.194,2.629,2.629,0,0,0,.405-.077c11.083-3.195,14.5-9.174,15.422-13.63a2.119,2.119,0,0,1,1.49-1.607l92.87-26.773a2.412,2.412,0,0,0,1.45-1.158,2.4,2.4,0,0,0,.207-1.844,2.423,2.423,0,0,0-3-1.657l-95.858,27.633a3,3,0,0,0-.551.231,2.115,2.115,0,0,1-1.136.239l-.3-.02a2.122,2.122,0,0,1,.238,1.345,2.171,2.171,0,0,0,0,.7,2.011,2.011,0,0,1,.029.277c.053,1.336-.286,8.174-12.2,11.607l0,0a2.338,2.338,0,0,0-.378.149,2.062,2.062,0,0,1-.684.2,2.448,2.448,0,0,0-.391.073c-12,3.461-16.134-2.161-16.837-3.323a2.227,2.227,0,0,1-.121-.228,2.152,2.152,0,0,0-.3-.472A2.116,2.116,0,0,1,467.88-372.926Zm18.589,2.741h0Zm-13.547-2.446c1.149,1.059,4.319,2.9,11.5.831a6.129,6.129,0,0,1,.745-.165,6.1,6.1,0,0,1,.719-.257h0c7.525-2.169,8.859-5.582,9.09-6.864l-12.316-.892Z" data-name="Path 909"
                              fill="#29246b"
                              id="Path_909" transform="translate(-364.593 414.492)"/>
                    </g>
                    <g data-name="Group 392" id="Group_392" transform="translate(7.344 63.611)">
                        <path d="M465.121-385.842,479.106-396.4l.633.046.011-.053c.011-.053.024-.106.033-.16v0c-.152-.108-.306-.211-.459-.319l-.009,0-.292-.116a67.486,67.486,0,0,0-9.484-3.051c-17.119-4.057-31.78.852-51.527,14.035-24.817,16.571-41.87,20.512-48.121,21.442a24.761,24.761,0,0,1-2.644.286l-.356,6.769,1.189-.343,95.272-27.464Z" data-name="Path 910"
                              fill="#fff"
                              id="Path_910" transform="translate(-364.772 403.577)"/>
                        <path d="M367.855-354.435a2.114,2.114,0,0,1-1.319-.461,2.114,2.114,0,0,1-.8-1.769l.354-6.769a2.12,2.12,0,0,1,2.055-2.006s.831-.031,2.393-.264c6.055-.9,22.774-4.76,47.261-21.108,21.424-14.307,36.332-18.327,53.191-14.336A69.483,69.483,0,0,1,480.775-398c.022.009.11.044.2.083a2.079,2.079,0,0,1,.536.273l.464.323a2.123,2.123,0,0,1,.864,2.053c-.009.055-.051.272-.064.325l0,0a1.537,1.537,0,0,1-.046.174,2.117,2.117,0,0,1-2.011,1.51l-13.36,10.081a2.109,2.109,0,0,1-.688.345L368.44-354.518A2.138,2.138,0,0,1,367.855-354.435Zm2.374-6.949-.1,1.972,95-27.386,11.112-8.387a61.107,61.107,0,0,0-6.218-1.839c-15.552-3.69-29.538.163-49.863,13.734-25.2,16.826-42.652,20.833-48.986,21.776Q370.652-361.436,370.229-361.384Zm95.856-23.486h0Z" data-name="Path 911"
                              fill="#29246b"
                              id="Path_911" transform="translate(-365.736 402.605)"/>
                    </g>
                </g>
            </g>
        </g>
    </g>
</svg>
