<svg xmlns="http://www.w3.org/2000/svg" width="86" height="86" viewBox="0 0 86 86">
  <g id="BOO_BOUTON" data-name="BOO BOUTON" transform="translate(1251.15 22769.15)">
    <circle id="Ellipse_103" data-name="Ellipse 103" cx="43" cy="43" r="43" transform="translate(-1251.15 -22769.15)" fill="#29246b"/>
    <g id="Group_844" data-name="Group 844" transform="translate(-1230.648 -22750.574)">
      <g id="Group_843" data-name="Group 843" transform="translate(0 12.206)">
        <g id="Group_8" data-name="Group 8" transform="translate(14.792 21.952)">
          <circle id="Ellipse_2" data-name="Ellipse 2" cx="2.697" cy="2.697" r="2.697" transform="translate(0)" fill="#7dced8"/>
        </g>
        <path id="Path_4" data-name="Path 4" d="M-260.164,55.957c-.009.02-.017.041-.025.063l-.02.052a3.688,3.688,0,0,0-.177.6s0,.005,0,.007c-.134.554-.23,1.294-.391,2.074-.31,1.5-.954,7.278-1.09,9.862a.75.75,0,0,1-.75.75.75.75,0,0,1-.75-.75c0-.009,0-.019,0-.028-.318-3.907-1.06-13.015-.228-15.115a6.17,6.17,0,0,1,1.786-2.451c.091-.079.181-.158.276-.232a11.034,11.034,0,0,1,1.005-.674,11.017,11.017,0,0,1,5.639-1.542,11.053,11.053,0,0,1,9.226,4.956h0a8.136,8.136,0,0,1,1.338,4.5,8.184,8.184,0,0,1-2.2,5.6,8.228,8.228,0,0,1-1.787,1.449.009.009,0,0,0,0,.016,9.9,9.9,0,0,1,2.344,1.089,9.888,9.888,0,0,1,1.1.812,9.961,9.961,0,0,1,2.8,3.868,9.9,9.9,0,0,1,.719,3.717,10,10,0,0,1-.089,1.331,9.9,9.9,0,0,1-6.334,7.882q-.809.309-1.652.549-.928.264-1.891.438a20.008,20.008,0,0,1-3.581.321,19.871,19.871,0,0,1-12.048-4.045q-.311-.244-.62-.491l-.034-.027q-5.176-4.12-10-8.643-1.109-1.037-2.2-2.1a1.684,1.684,0,0,1-.5-1.2,1.681,1.681,0,0,1,.27-.917l.008-.012.027-.04q.623-.92,1.272-1.821,2.108-2.926,4.482-5.634a75.611,75.611,0,0,1,5.6-5.743l.057-.053a.809.809,0,0,1,.516-.185.811.811,0,0,1,.811.811.647.647,0,0,1-.127.384l-.594.8a75.363,75.363,0,0,0-6.842,10.2q-.371.663-.728,1.335a.7.7,0,0,0,.177.873q.48.388.962.772,4.83,3.852,9.952,7.339l.009.007q.436.318.895.6h0a14.85,14.85,0,0,0,3.289,1.531,14.916,14.916,0,0,0,4.607.724,14.957,14.957,0,0,0,3.641-.447q.177-.043.352-.093a9.8,9.8,0,0,0,3.652-1.947c.06-.051.12-.1.178-.155a4.706,4.706,0,0,0,1.542-3.489,4.694,4.694,0,0,0-.789-2.613c-.069-.1-.141-.2-.217-.3l-.008-.009a9.645,9.645,0,0,0-1.548-1.616A9.591,9.591,0,0,0-252.6,67q-.42-.107-.855-.176l-.056-.009-.018,0a1.025,1.025,0,0,1-.788-.759,1.015,1.015,0,0,1-.03-.245,1.021,1.021,0,0,1,.393-.805.773.773,0,0,1,.071-.051l.028-.019a11.076,11.076,0,0,0,3.988-4.1,6.391,6.391,0,0,0,.334-.772c.018-.048.035-.1.05-.144l.009-.027c.015-.045.029-.091.042-.136s.03-.1.043-.157.032-.132.045-.2c0-.012.005-.025.008-.038h0a4.547,4.547,0,0,0,.088-.894,4.542,4.542,0,0,0-.783-2.557,6.311,6.311,0,0,0-1.505-1.4l-.007,0a7.048,7.048,0,0,0-3.816-1.114,7.083,7.083,0,0,0-2.287.377,3.777,3.777,0,0,0-.976.418l0,0a3.832,3.832,0,0,0-1.459,1.606Z" transform="translate(280.295 -48.572)" fill="#7dced8"/>
      </g>
      <g id="Group_420" data-name="Group 420" transform="translate(31.964) rotate(90)">
        <path id="Path_16" data-name="Path 16" d="M0,7.509,7.51,0,9.075,1.564,15.02,7.509" transform="translate(0 15.02) rotate(-90)" fill="none" stroke="#7dced8" stroke-linecap="round" stroke-linejoin="round" stroke-width="5"/>
      </g>
    </g>
  </g>
</svg>
